<svg id="Layer_1" data-name="Layer 1" xmlns="http://www.w3.org/2000/svg" viewBox="0 0 360 360"><defs><style>.cls-1{fill:#f5b97d;}.cls-2{fill:#cd916e;}.cls-3{fill:#e3aa75;}.cls-4{fill:#b67f5f;}.cls-5{fill:#0f2040;}</style></defs><title>Breast</title><path class="cls-1" d="M258.33,189.51a10.2,10.2,0,0,0-11-7.63C227.09,160.61,164.51,89.82,141,5.27H112.56a16.91,16.91,0,0,0-16.9,16.91V337.82a16.91,16.91,0,0,0,16.9,16.91h28.19V279.25a92.79,92.79,0,0,0,112-78A10.21,10.21,0,0,0,258.33,189.51Z"/><path class="cls-2" d="M258.33,189.51a10.2,10.2,0,0,0-11-7.63c-3.34-3.51-7.89-8.47-13.18-14.52a30.94,30.94,0,0,0,14.77,50.46,93.25,93.25,0,0,0,3.87-16.6A10.21,10.21,0,0,0,258.33,189.51Z"/><path class="cls-3" d="M124.09,274l-3.52-1.56a5.69,5.69,0,0,0-8,5.19v0a11.93,11.93,0,0,0,7.23,11h0a101.82,101.82,0,0,0,21,6.4V279.22A90.39,90.39,0,0,1,124.09,274Z"/><path class="cls-4" d="M258.33,189.51a10.2,10.2,0,0,0-11-7.63l-1.83-1.95a16.74,16.74,0,0,0-2.49,8.73,16.92,16.92,0,0,0,9.31,15.08c.15-.84.35-1.66.47-2.52A10.21,10.21,0,0,0,258.33,189.51Z"/><path class="cls-5" d="M263.88,188.23A15.5,15.5,0,0,0,250,176.59c-20.47-21.8-80.8-91.13-103.47-172.73a5.27,5.27,0,1,0-10.16,2.83c19.06,68.62,63.83,128.58,91,160.34a38,38,0,0,0,14.45,55.88,87.7,87.7,0,0,1-115.16,46.2,5.27,5.27,0,0,0-4.17,9.69,99.08,99.08,0,0,0,13.74,4.72v71.21a5.28,5.28,0,0,0,10.55,0V285.67a99,99,0,0,0,14.45,1.06,98.21,98.21,0,0,0,96.87-82.29A15.52,15.52,0,0,0,263.88,188.23ZM251,196.45a5.25,5.25,0,0,0-3,4.05,87.46,87.46,0,0,1-2.64,12.39,27.5,27.5,0,0,1-10.79-37.57c3.74,4.2,6.93,7.62,9.37,10.2a5.27,5.27,0,0,0,4.41,1.6,4.91,4.91,0,0,1,2.63,9.33Z"/><path class="cls-5" d="M207.07,242a5.26,5.26,0,0,0,7.46,0,76.29,76.29,0,0,0,11.21-14.19,5.27,5.27,0,1,0-9-5.51,66.18,66.18,0,0,1-9.66,12.23A5.26,5.26,0,0,0,207.07,242Z"/><path class="cls-5" d="M206.59,160.74a5.27,5.27,0,1,0-8.24,6.58c2,2.56,4.12,5.12,6.18,7.61a5.27,5.27,0,1,0,8.13-6.72C210.64,165.77,208.6,163.25,206.59,160.74Z"/><path class="cls-5" d="M188.78,151.45a5.28,5.28,0,0,0,4.24-8.4c-3.31-4.5-6.57-9.08-9.7-13.62a5.27,5.27,0,0,0-8.68,6c3.19,4.63,6.52,9.3,9.89,13.88A5.27,5.27,0,0,0,188.78,151.45Z"/><path class="cls-5" d="M171.68,258.32a5.27,5.27,0,0,0,5.13,4.09,5.42,5.42,0,0,0,1.19-.13,76.32,76.32,0,0,0,17-6.15,5.27,5.27,0,0,0-4.75-9.42A65.07,65.07,0,0,1,175.63,252,5.26,5.26,0,0,0,171.68,258.32Z"/><path class="cls-5" d="M125.75,45.61a5.28,5.28,0,0,0,4.91,3.33,5.14,5.14,0,0,0,1.94-.37,5.27,5.27,0,0,0,3-6.84c-2.06-5.2-4-10.45-5.73-15.6a5.27,5.27,0,0,0-10,3.38C121.64,34.83,123.63,40.24,125.75,45.61Z"/><path class="cls-5" d="M144.34,62.11a5.27,5.27,0,1,0-9.55,4.45c2.36,5.07,4.9,10.23,7.54,15.34a5.27,5.27,0,0,0,9.37-4.84C149.12,72.08,146.65,67.05,144.34,62.11Z"/><path class="cls-5" d="M162.41,96.55a5.27,5.27,0,0,0-9.12,5.3c2.82,4.85,5.79,9.76,8.84,14.6a5.27,5.27,0,1,0,8.92-5.62C168.07,106.09,165.17,101.29,162.41,96.55Z"/><path class="cls-5" d="M133,253.28a5.27,5.27,0,0,0,3.25,6.71A75.13,75.13,0,0,0,154,263.85l.5,0a5.28,5.28,0,0,0,.48-10.53,64.45,64.45,0,0,1-15.2-3.3A5.28,5.28,0,0,0,133,253.28Z"/></svg>