<svg id="Layer_1" data-name="Layer 1" xmlns="http://www.w3.org/2000/svg" viewBox="0 0 360 360"><defs><style>.cls-1{fill:#f5b97d;}.cls-2{fill:#b88b5e;}.cls-3{fill:#b35664;}.cls-4{fill:#ef7385;}.cls-5{fill:#0f2040;}.cls-6{fill:#783a43;}</style></defs><title>Cardiac</title><path class="cls-1" d="M199,15.72l4.72,61.55a72.51,72.51,0,0,0-18.63,6.64c-1.81.93-3.61,2-5.36,3.08L169.3,24.46a15.54,15.54,0,0,1-.18-2.39A14.54,14.54,0,0,1,179,8.33l5.94-2a10.73,10.73,0,0,1,14,9.37Z"/><path class="cls-1" d="M250.64,26.38a16.4,16.4,0,0,1-.87,5.3L234.51,77.44a71.6,71.6,0,0,0-15.84-1.74,74.81,74.81,0,0,0-8.91.52l10.37-61.95a10.07,10.07,0,0,1,10-8.45,10.23,10.23,0,0,1,5.64,1.69l7.46,5A16.68,16.68,0,0,1,250.64,26.38Z"/><path class="cls-1" d="M291.4,53.92a12.13,12.13,0,0,1-2.74,7.63L263.8,91.36a71.33,71.33,0,0,0-20.26-11.24v-.06L263.8,47.69a14.69,14.69,0,0,1,12.46-6.93,14.22,14.22,0,0,1,6.58,1.57l2,1a11.85,11.85,0,0,1,6.58,10.6Z"/><path class="cls-2" d="M161.73,103.18c-.93,1.16-1.81,2.33-2.68,3.55a99.21,99.21,0,0,0-6.52,10.6,105,105,0,0,0-4.72,10l-19.1-3.84a64.5,64.5,0,0,0-12.46-1.22h-.76A61.33,61.33,0,0,0,99,124.55a28.16,28.16,0,0,0-15.38-21.72l-24-12a12.62,12.62,0,0,1-7-11.3,13.15,13.15,0,0,1,2.09-7.05l5.59-8.26a13.34,13.34,0,0,1,19.16-3.32l15.2,11.41a9.49,9.49,0,0,0,5.47,1.8,9.2,9.2,0,0,0,8.91-11.41l-9.43-37.9a10.67,10.67,0,0,1-.41-3.09A12.9,12.9,0,0,1,109,9.2l12.17-3a10.72,10.72,0,0,1,2.68-.35A11.17,11.17,0,0,1,135,16.07l4.37,56.83a23.08,23.08,0,0,0,6.75,14.73l15.55,15.55Z"/><path class="cls-3" d="M128.71,123.5l19.1,3.84c-1.05,2.68-2,5.36-2.91,8.1A103.74,103.74,0,0,0,140,167.11v3.15c0,22-17.35,39.36-38.78,39.36A61.15,61.15,0,0,1,77.88,205a60.53,60.53,0,0,1-19.8-13.21l-5.41-5.42c0-29.17,19.68-54.27,46.35-61.78a61.33,61.33,0,0,1,16.47-2.27h.76A64.5,64.5,0,0,1,128.71,123.5Z"/><path class="cls-3" d="M263.8,91.36a75.78,75.78,0,0,1,13.45,13.86L261,108a61.76,61.76,0,0,0-28.88,12.93,59.89,59.89,0,0,1-37.27,13h-1a59.64,59.64,0,0,1-41.28-16.59,99.21,99.21,0,0,1,6.52-10.6c.87-1.22,1.75-2.39,2.68-3.55a72.18,72.18,0,0,1,18-16.19c1.75-1.1,3.55-2.15,5.36-3.08a72.51,72.51,0,0,1,18.63-6.64c2-.41,4-.76,6.06-1a74.52,74.52,0,0,1,8.9-.52,71.6,71.6,0,0,1,15.84,1.74,68.12,68.12,0,0,1,9,2.68A71.33,71.33,0,0,1,263.8,91.36Z"/><path class="cls-4" d="M209.89,209.61a17.48,17.48,0,1,1-17.48-17.45A17.49,17.49,0,0,1,209.89,209.61Z"/><path class="cls-4" d="M297.23,174.68l-6.87-38.85a72.41,72.41,0,0,0-13.1-30.62L261,108a61.61,61.61,0,0,0-28.88,12.93,59.86,59.86,0,0,1-37.27,13h-1a59.55,59.55,0,0,1-41.27-16.59c-1.74,3.27-3.31,6.59-4.73,10-1,2.67-2,5.34-2.89,8.08A103.39,103.39,0,0,0,140,167.13v3.13c0,22-17.34,39.35-38.77,39.35A61.36,61.36,0,0,1,77.87,205a60.65,60.65,0,0,1-19.8-13.25l-5.41-5.41v.46a133.05,133.05,0,0,0,36,90.69,259.06,259.06,0,0,0,93.57,64.34c12.28,4.88,23.35,9.36,29.16,11.68a24,24,0,0,0,9,1.71,19.66,19.66,0,0,0,12.39-4.42l2.92-2.38a217.33,217.33,0,0,0,73.2-115.47ZM232,343.87l-2.89,2.39c-4.27,3.49-10.43,3.84-15.48,1.82L184.44,336.4a255.59,255.59,0,0,1-91.51-62.88,127.47,127.47,0,0,1-33.58-72.85,66.42,66.42,0,0,0,41.88,14.78c24.6,0,44.61-20.26,44.61-45.19v-3.17a98.42,98.42,0,0,1,8.69-40.51,65,65,0,0,0,39.3,13.17h1a65.53,65.53,0,0,0,40.87-14.35,57.33,57.33,0,0,1,26.24-11.71l12.61-2.1a66.53,66.53,0,0,1,10.11,25.28l6.12,34.64,6.3,31.9,5.84,29.3A212.56,212.56,0,0,1,232,343.87Z"/><path class="cls-4" d="M147.81,127.34a105,105,0,0,1,4.72-10,59.64,59.64,0,0,0,41.28,16.59h1a59.89,59.89,0,0,0,37.27-13A61.76,61.76,0,0,1,261,108l16.3-2.73a72,72,0,0,1,13.1,30.63l6.87,38.83,11.65,58.23a219.73,219.73,0,0,1-73.19,115.47l-2.91,2.39a19.74,19.74,0,0,1-12.41,4.42,24.66,24.66,0,0,1-9-1.69c-5.83-2.33-16.89-6.81-29.18-11.7a259.39,259.39,0,0,1-93.57-64.34,133,133,0,0,1-36-90.66v-.47l5.41,5.42A60.53,60.53,0,0,0,77.88,205a61.15,61.15,0,0,0,23.35,4.66c21.43,0,38.78-17.35,38.78-39.36v-3.15a103.74,103.74,0,0,1,4.89-31.67c.87-2.74,1.86-5.42,2.91-8.1Z"/><path class="cls-5" d="M311.87,218.26a1.22,1.22,0,0,0-.08-.43l-8.86-44.26-6.84-38.73a78.35,78.35,0,0,0-24.17-44.15L293.1,65.26a17.66,17.66,0,0,0-5.66-27.16l-2-1a20.65,20.65,0,0,0-9.18-2.17,20.44,20.44,0,0,0-17.45,9.68L243.36,69.36l12-35.86a22.56,22.56,0,0,0-8.9-25.85l-7.47-5a16,16,0,0,0-24.57,10.65l-6.66,39.91-2.92-38A16.61,16.61,0,0,0,188.32,0a16.06,16.06,0,0,0-5.2.85l-5.91,2a20.32,20.32,0,0,0-13.92,19.27,20.62,20.62,0,0,0,.28,3.34l9.83,58.89a77.73,77.73,0,0,0-12,10.4L150.22,83.49a17.44,17.44,0,0,1-5.06-11l-4.38-56.86A17,17,0,0,0,123.91,0a17.5,17.5,0,0,0-4.1.5L107.6,3.56A18.63,18.63,0,0,0,93.43,21.72,17.56,17.56,0,0,0,94,26.24l9.47,37.92a3.37,3.37,0,0,1-5.27,3.49L83,56.26A19.26,19.26,0,0,0,55.47,61L50,69.29A18.51,18.51,0,0,0,57,96.06l24,12A22.4,22.4,0,0,1,92.15,120.7a69.85,69.85,0,0,0-45.29,65.62,138.74,138.74,0,0,0,37.52,95.14,267.46,267.46,0,0,0,95.71,65.73l29.16,11.71a30.17,30.17,0,0,0,11.08,2.1,25.51,25.51,0,0,0,16.12-5.73l2.89-2.35a224.74,224.74,0,0,0,74.73-117l.11-.1C313.33,229.8,312.22,221.25,311.87,218.26Zm-82.79,128c-4.27,3.49-10.43,3.84-15.48,1.82L184.44,336.4a255.59,255.59,0,0,1-91.51-62.88,127.47,127.47,0,0,1-33.58-72.85,66.42,66.42,0,0,0,41.88,14.78c24.6,0,44.61-20.26,44.61-45.19v-3.17a98.42,98.42,0,0,1,8.69-40.51,65,65,0,0,0,39.3,13.17h1a65.53,65.53,0,0,0,40.87-14.35,57.33,57.33,0,0,1,26.24-11.71l12.61-2.1a66.53,66.53,0,0,1,10.11,25.28l6.12,34.64,6.3,31.9,5.84,29.3A212.56,212.56,0,0,1,232,343.87ZM58.5,79.54a6.92,6.92,0,0,1,1.14-3.81l5.55-8.29a7.81,7.81,0,0,1,10.86-1.86L91.22,76.94a15,15,0,0,0,23.54-15.59l-9.47-37.92a6.69,6.69,0,0,1-.22-1.71,7.05,7.05,0,0,1,5.34-6.87l12.21-3a5.4,5.4,0,0,1,6.56,4.7l4.38,56.86A28.89,28.89,0,0,0,142,91.75l12,12a112.77,112.77,0,0,0-9.65,16.91l-14.53-2.88a69.86,69.86,0,0,0-13.6-1.36h-.78a68.27,68.27,0,0,0-12.11,1.14,33.88,33.88,0,0,0-17.12-20l-24-12A6.76,6.76,0,0,1,58.5,79.54ZM180.87,13.85l5.91-2a5,5,0,0,1,6.41,4.24l4.35,56.75A76.68,76.68,0,0,0,184.15,78l-9.08-54.45a10.17,10.17,0,0,1-.14-1.45A8.68,8.68,0,0,1,180.87,13.85Zm37.82,67.69a66.78,66.78,0,0,1,47.42,19.65l-6.12,1a68.57,68.57,0,0,0-31.58,14.13,54.09,54.09,0,0,1-33.61,11.79h-1a53.65,53.65,0,0,1-33.89-12q1.81-3,3.84-6A67,67,0,0,1,218.69,81.54ZM232.5,12.35l7.48,5a10.77,10.77,0,0,1,4.84,9,10.23,10.23,0,0,1-.57,3.42l-13.67,41a78,78,0,0,0-11.89-1c-.68,0-1.32.1-2,.14l9.11-54.76A4.48,4.48,0,0,1,232.5,12.35Zm47.75,35.18,2,1a6.07,6.07,0,0,1,3.35,5.45,5.9,5.9,0,0,1-1.43,3.85L262.8,83.46a78.36,78.36,0,0,0-10.68-6.16l16.59-26.53A9.13,9.13,0,0,1,280.25,47.53ZM115.47,128.11h.78a57.53,57.53,0,0,1,11.32,1.1L140,131.7a110.77,110.77,0,0,0-5.8,35.39v3.17c0,18.8-14.49,33.54-33,33.54a54.84,54.84,0,0,1-39-16.16L58.61,184C59.78,153,84.81,128.11,115.47,128.11Z"/><path class="cls-6" d="M263.12,156a2,2,0,0,0-2.76.27c-1,1.17-23.44,29.11-18.27,62.73.19,1.27.35,2.48.51,3.7-4.68,2.71-20.68,13.41-18.36,31.93a2,2,0,0,0,1.94,1.73l.25,0a2,2,0,0,0,1.71-2.19c-1.87-14.89,9.74-23.92,15-27.21,3.09,27.17-.95,42-1,42.21a2,2,0,0,0,1.35,2.42,1.68,1.68,0,0,0,.54.08,2,2,0,0,0,1.89-1.43c.2-.7,4.62-16.75.79-46.55v0c-.22-1.71-.45-3.44-.73-5.23-4.9-31.86,17.21-59.36,17.43-59.64A2,2,0,0,0,263.12,156Z"/><path class="cls-6" d="M181.72,208.2a2,2,0,0,0-3.9.49c1.86,14.89-9.74,23.92-15,27.2-3.09-27.16,1-42,1-42.2a2,2,0,0,0-3.78-1.08c-.2.71-4.62,16.76-.79,46.55v.05c.22,1.7.46,3.43.73,5.23,4.9,31.85-17.2,59.36-17.42,59.64a2,2,0,1,0,3,2.48c1-1.17,23.44-29.1,18.27-62.72-.2-1.27-.35-2.48-.52-3.71C168,237.42,184,226.73,181.72,208.2Z"/><path class="cls-6" d="M238.92,167.34a2,2,0,0,0-3.93,0c0,12.83-17.51,20.33-24.77,22.9,2.8-13.85,5.42-23.92,5.49-24.18a2,2,0,0,0-3.8-1c-.73,2.79-17.85,68.47-10.69,97.11,6.87,27.48,3.48,48.58.52,51.54a2,2,0,0,0,0,2.78,2,2,0,0,0,2.78,0c4.11-4.11,7.81-26.1.52-55.27-4-15.91.09-44.75,4.3-66.53C215,192.94,238.92,184.55,238.92,167.34Z"/></svg>