<svg id="Layer_1" data-name="Layer 1" xmlns="http://www.w3.org/2000/svg" viewBox="0 0 360 360"><defs><style>.cls-1{fill:#f5b97d;}.cls-2{fill:#0f2040;}</style></defs><title>Colorectal</title><path class="cls-1" d="M345.3,109.27a34.76,34.76,0,0,1-.06,46.5A34.45,34.45,0,0,1,354.19,179a34.87,34.87,0,0,1-58.13,26,34.85,34.85,0,0,1-46.5,0,34.76,34.76,0,0,1-46.5-.06,34.76,34.76,0,0,1-46.5.06,34.85,34.85,0,0,1-46.5,0,34.69,34.69,0,0,1-23.25,8.89,34.25,34.25,0,0,1-15-3.43,34.65,34.65,0,0,1,3.43,15.06,35.27,35.27,0,0,1-3.37,15,34,34,0,0,1,15-3.43,34.45,34.45,0,0,1,23.25,9,34.76,34.76,0,0,1,46.5-.06,34.85,34.85,0,0,1,46.5,0,34.76,34.76,0,0,1,46.5.06,34.47,34.47,0,0,1,23.25-9,34.85,34.85,0,0,1,17.44,65v51.21h-5.81L255.38,336V302.18a34.51,34.51,0,0,1-5.82-4.24,34.76,34.76,0,0,1-46.5.06,34.85,34.85,0,0,1-46.5,0,34.76,34.76,0,0,1-46.5-.06,34.45,34.45,0,0,1-23.25,8.95A34.83,34.83,0,0,1,63.56,298a34.86,34.86,0,0,1-49.23-49.23,34.85,34.85,0,0,1,0-46.5l.06-.06A34.34,34.34,0,0,1,5.44,179a34.91,34.91,0,0,1,34.87-34.88,34.45,34.45,0,0,1,23.25,9,34.76,34.76,0,0,1,46.5-.06,34.85,34.85,0,0,1,46.5,0,34.76,34.76,0,0,1,46.5.06,34.76,34.76,0,0,1,46.5-.06,34.71,34.71,0,0,1,23.25-8.89,34.3,34.3,0,0,1,15.06,3.43,34.75,34.75,0,0,1,0-30.11,34.3,34.3,0,0,1-15.06,3.43A34.71,34.71,0,0,1,249.56,112a34.76,34.76,0,0,1-46.5-.06,34.76,34.76,0,0,1-46.5.06,34.76,34.76,0,0,1-46.5-.06,34.45,34.45,0,0,1-23.25,9,34.85,34.85,0,0,1-17.43-65V4.64h5.81l29.06,17.44V55.85a34.44,34.44,0,0,1,5.81,4.24,34.76,34.76,0,0,1,46.5-.06,34.76,34.76,0,0,1,46.5.06,34.76,34.76,0,0,1,46.5-.06,34.76,34.76,0,0,1,46.5.06,34.47,34.47,0,0,1,23.25-9,34.87,34.87,0,0,1,26,58.13Z"/><path class="cls-2" d="M352.66,109.27a40.64,40.64,0,0,0-56.6-56.6,40.49,40.49,0,0,0-46.5,0,40.49,40.49,0,0,0-46.5,0,40.48,40.48,0,0,0-46.49,0,40.51,40.51,0,0,0-46.51,0V18.79L76.8-1.17H63.56V52.67a40.65,40.65,0,1,0,46.5,66.69,40.52,40.52,0,0,0,46.5,0,40.52,40.52,0,0,0,46.5,0,40.52,40.52,0,0,0,46.5,0,40.67,40.67,0,0,0,23.25,7.33,39.78,39.78,0,0,0,6.37-.54,37.84,37.84,0,0,0,0,12.74,41.6,41.6,0,0,0-29.56,6.8,40.49,40.49,0,0,0-46.54,0,40.49,40.49,0,0,0-46.5,0,40.49,40.49,0,0,0-46.5,0,40.49,40.49,0,0,0-46.5,0A40.7,40.7,0,0,0,6.92,202.33a40.51,40.51,0,0,0,0,46.44,40.64,40.64,0,0,0,56.59,56.6,40.52,40.52,0,0,0,46.5,0,40.53,40.53,0,0,0,46.51,0,40.51,40.51,0,0,0,46.51,0,40.44,40.44,0,0,0,46.48,0v33.88l33.27,20h13.23V305.37a40.65,40.65,0,1,0-46.5-66.7,40.49,40.49,0,0,0-46.5,0,40.52,40.52,0,0,0-46.5,0,40.52,40.52,0,0,0-46.5,0,39.75,39.75,0,0,0-29.61-6.79,37.16,37.16,0,0,0,0-12.74,39.57,39.57,0,0,0,6.36.56,40.45,40.45,0,0,0,23.25-7.34,40.52,40.52,0,0,0,46.5,0,40.52,40.52,0,0,0,46.5,0,40.52,40.52,0,0,0,46.5,0,40.52,40.52,0,0,0,46.5,0,40.64,40.64,0,0,0,56.6-56.59,40.49,40.49,0,0,0,0-46.5Zm-11.73,50.38a29,29,0,0,1-36.17,44.47A40.39,40.39,0,0,0,313.5,179H301.88a29.07,29.07,0,0,1-56.48,9.69l-11,3.87a40.76,40.76,0,0,0,6.38,11.51c-10.54,5.89-24.66,4.81-33.87-3.46l-3.89-3.48-3.88,3.48A29,29,0,0,1,152.52,189l-10.92,4a40.3,40.3,0,0,0,6.21,11.09,30.25,30.25,0,0,1-29,0A40.47,40.47,0,0,0,127.5,179H115.88a29.1,29.1,0,0,1-29.07,29.06A28.44,28.44,0,0,1,76,205.93,40.54,40.54,0,0,0,61.92,191l-6.18,9.84a28.94,28.94,0,0,1,11.5,35.49A40.71,40.71,0,0,0,46.13,272H57.75a29,29,0,0,1,48.43-21.62l3.88,3.49L114,250.4c9.23-8.27,23.34-9.35,33.88-3.45a40.75,40.75,0,0,0-8.7,25.07h11.62a29.07,29.07,0,1,1,58.13,0H220.5A40.47,40.47,0,0,0,211.8,247c10.54-5.89,24.66-4.82,33.88,3.45l3.88,3.49,3.89-3.49a29,29,0,1,1,33.89,46.76l-2.9,1.67v47.78l-23.25-13.95V298.84l-2.9-1.68a29.18,29.18,0,0,1-4.84-3.52l-3.89-3.49-3.88,3.48a29,29,0,0,1-46.55-11.32l-10.88,4.12a40,40,0,0,0,6.05,10.65,30.23,30.23,0,0,1-29,0,40.3,40.3,0,0,0,6.44-11.69l-11-3.81A29,29,0,0,1,114,293.63l-3.89-3.48-3.88,3.48C97,301.91,82.84,303,72.31,297.08a40.29,40.29,0,0,0,6.43-11.67l-11-3.83A29.06,29.06,0,1,1,40.31,243V231.33a40.44,40.44,0,0,0-25.1,8.73,28.69,28.69,0,0,1,0-29,40.81,40.81,0,0,0,18.58,8.14l1.86-11.48a29.06,29.06,0,1,1,24.08-50.3l3.87,3.47,3.88-3.47c9.24-8.28,23.35-9.35,33.88-3.45A40.51,40.51,0,0,0,95,165.44l11,3.88a29.07,29.07,0,0,1,56.48,9.7H174A40.42,40.42,0,0,0,165.3,154c10.54-5.9,24.65-4.84,33.89,3.45l3.87,3.46,3.88-3.47A29,29,0,0,1,255.38,179H267A40.47,40.47,0,0,0,258.3,154a29.64,29.64,0,0,1,25.47-1.78,40.58,40.58,0,0,0,5.28,7.47l8.64-7.76a28.81,28.81,0,0,1-5.27-30.29,41,41,0,0,0,7.52-5.3l-7.75-8.66A29,29,0,0,1,245.4,95.71l-11,3.88a40.81,40.81,0,0,0,6.37,11.5c-10.54,5.89-24.63,4.82-33.88-3.46l-3.87-3.47-3.87,3.47c-9.24,8.27-23.33,9.35-33.88,3.46a40.51,40.51,0,0,0,6.37-11.49l-11-3.88a29,29,0,0,1-46.78,11.91l-3.88-3.47-3.87,3.47a29,29,0,1,1-33.9-46.76l2.9-1.68V11.42l23.25,14V59.19l2.9,1.68a28.38,28.38,0,0,1,4.84,3.53l3.88,3.48,3.88-3.48c9.25-8.28,23.35-9.35,33.89-3.45A40.47,40.47,0,0,0,139.13,86h11.62A29,29,0,0,1,199.19,64.4l3.87,3.48,3.88-3.48A29,29,0,0,1,255.38,86H267A40.42,40.42,0,0,0,258.3,61c10.55-5.9,24.64-4.83,33.89,3.45l3.87,3.47,3.88-3.48a29,29,0,0,1,44.48,36.16,40.47,40.47,0,0,0-25.11-8.73v11.62a29,29,0,0,1,21.62,48.43l-3.49,3.89Z"/></svg>