<svg id="Layer_1" data-name="Layer 1" xmlns="http://www.w3.org/2000/svg" viewBox="0 0 360 360"><defs><style>.cls-1{fill:#e6e9ed;}.cls-2{fill:#ef7385;}.cls-3{fill:#0f2040;}</style></defs><title>Dental</title><path class="cls-1" d="M330.92,203.26v23.27a23.26,23.26,0,1,1-46.52,0V203.26A11.66,11.66,0,0,1,296,191.63h23.26A11.66,11.66,0,0,1,330.92,203.26Z"/><path class="cls-1" d="M330.92,133.47v23.27a11.66,11.66,0,0,1-11.63,11.63H296a11.66,11.66,0,0,1-11.63-11.63V133.47a23.26,23.26,0,1,1,46.52,0Z"/><path class="cls-1" d="M261.13,249.79a23.26,23.26,0,0,1-23.26-23.26V203.26a11.66,11.66,0,0,1,11.63-11.63h23.27a11.67,11.67,0,0,1,11.63,11.63v23.27A23.26,23.26,0,0,1,261.13,249.79Z"/><path class="cls-1" d="M261.13,110.21a23.26,23.26,0,0,1,23.27,23.26v23.27a11.67,11.67,0,0,1-11.63,11.63H249.5a11.66,11.66,0,0,1-11.63-11.63V133.47A23.26,23.26,0,0,1,261.13,110.21Z"/><path class="cls-1" d="M222.4,256.65a21.75,21.75,0,0,1-34.83-12.27l-7.51-33.61a17,17,0,0,1-.35-3.44,15.72,15.72,0,0,1,15.71-15.7h26.75a15.69,15.69,0,0,1,15.7,15.7,17.08,17.08,0,0,1-.35,3.44L230,244.38A22.13,22.13,0,0,1,222.4,256.65Z"/><path class="cls-1" d="M208.79,98.58a21.79,21.79,0,0,1,21.23,17l7.5,33.61a17,17,0,0,1,.35,3.44,15.71,15.71,0,0,1-15.7,15.7H195.42a15.71,15.71,0,0,1-15.71-15.7,17,17,0,0,1,.35-3.44l7.51-33.61a22,22,0,0,1,7.62-12.27A21.58,21.58,0,0,1,208.79,98.58Z"/><path class="cls-1" d="M121.56,207.33a15.71,15.71,0,0,1,15.7-15.7H164a15.69,15.69,0,0,1,15.7,15.7,17.08,17.08,0,0,1-.34,3.44l-7.51,33.61a22,22,0,0,1-7.62,12.27,21.75,21.75,0,0,1-34.83-12.27l-7.5-33.61A16.32,16.32,0,0,1,121.56,207.33Z"/><path class="cls-1" d="M150.64,98.58a21.77,21.77,0,0,1,21.22,17l7.51,33.61a17,17,0,0,1,.34,3.44,15.71,15.71,0,0,1-15.7,15.7H137.26a15.69,15.69,0,0,1-15.7-15.7,16.32,16.32,0,0,1,.35-3.44l7.5-33.61A22.08,22.08,0,0,1,137,103.35,21.61,21.61,0,0,1,150.64,98.58Z"/><path class="cls-1" d="M121.56,226.53a23.27,23.27,0,0,1-46.53,0V203.26a11.67,11.67,0,0,1,11.63-11.63h23.27a11.67,11.67,0,0,1,11.63,11.63Z"/><path class="cls-1" d="M98.3,110.21a23.26,23.26,0,0,1,23.26,23.26v23.27a11.67,11.67,0,0,1-11.63,11.63H86.66A11.67,11.67,0,0,1,75,156.74V133.47A23.26,23.26,0,0,1,98.3,110.21Z"/><path class="cls-2" d="M353.37,83.69l-22.45,73.05V133.47a23.26,23.26,0,1,0-46.52,0,23.27,23.27,0,0,0-46.53,0v19.2a17,17,0,0,0-.35-3.44L230,115.62a21.75,21.75,0,0,0-34.83-12.27,22.09,22.09,0,0,0-7.63,12.27l-7.5,33.61a17,17,0,0,0-.35,3.44,17,17,0,0,0-.34-3.44l-7.51-33.61A21.75,21.75,0,0,0,137,103.35a22.09,22.09,0,0,0-7.63,12.27l-7.5,33.61a17,17,0,0,0-.34,3.44v-19.2a23.27,23.27,0,0,0-46.53,0,23.26,23.26,0,0,0-46.52,0v23.27L6.06,83.69a17.62,17.62,0,0,1-.81-5.23A18.1,18.1,0,0,1,9.32,67a17.9,17.9,0,0,1,10.41-6.22s55.3-32,160-32,160,32,160,32a17.92,17.92,0,0,1,13.67,22.91Z"/><path class="cls-2" d="M330.92,226.53V203.26l22.45,73.05a17.92,17.92,0,0,1-13.67,22.91s-55.3,32-160,32-160-32-160-32A18,18,0,0,1,5.25,281.54a17.62,17.62,0,0,1,.81-5.23l22.45-73.05v23.27a23.26,23.26,0,0,0,46.52,0,23.27,23.27,0,0,0,46.53,0v-19.2a16.39,16.39,0,0,0,.35,3.44l7.5,33.61a21.75,21.75,0,0,0,34.83,12.27,22.09,22.09,0,0,0,7.63-12.27l7.5-33.61a17,17,0,0,0,.34-3.44,17.08,17.08,0,0,0,.35,3.44l7.51,33.61a21.75,21.75,0,0,0,34.83,12.27A22.15,22.15,0,0,0,230,244.38l7.5-33.61a17.76,17.76,0,0,0,.34-3.44v19.2a23.27,23.27,0,0,0,46.53,0,23.26,23.26,0,1,0,46.52,0Z"/><path class="cls-1" d="M75,226.53a23.26,23.26,0,0,1-46.52,0V203.26a11.66,11.66,0,0,1,11.63-11.63H63.4A11.66,11.66,0,0,1,75,203.26Z"/><path class="cls-1" d="M51.77,110.21A23.26,23.26,0,0,1,75,133.47v23.27A11.66,11.66,0,0,1,63.4,168.37H40.14a11.66,11.66,0,0,1-11.63-11.63V133.47A23.26,23.26,0,0,1,51.77,110.21Z"/><path class="cls-3" d="M167.94,313.62c3.84.09,7.77.14,11.77.14V302.13c-3.9,0-7.72-.05-11.48-.14Z"/><path class="cls-3" d="M37.84,288.57c18.35,7.9,58.12,21.61,118.32,24.61l.58-11.62c-58.37-2.9-96.66-16.08-114.3-23.67Z"/><path class="cls-3" d="M336.6,202a17.4,17.4,0,0,0-17.31-16.13H296a17.29,17.29,0,0,0-11.63,4.53,17.32,17.32,0,0,0-11.63-4.53H249.5a17.37,17.37,0,0,0-12.84,5.72,21.38,21.38,0,0,0-14.51-5.72H195.44a21.43,21.43,0,0,0-15.73,6.92A21.4,21.4,0,0,0,164,185.82H137.28a21.42,21.42,0,0,0-14.52,5.72,17.33,17.33,0,0,0-12.83-5.72H86.66A17.32,17.32,0,0,0,75,190.35a17.29,17.29,0,0,0-11.63-4.53H40.14A17.4,17.4,0,0,0,22.83,202L.48,274.58a23.64,23.64,0,0,0-1,7A23.88,23.88,0,0,0,17.6,304.7C25.12,308.82,80.24,337,179.71,337s154.59-28.2,162.11-32.33A23.79,23.79,0,0,0,359,274.58ZM296,197.45h23.26a5.82,5.82,0,0,1,5.82,5.81v23.27a17.45,17.45,0,0,1-34.9,0V203.26A5.82,5.82,0,0,1,296,197.45Zm-52.34,5.81a5.81,5.81,0,0,1,5.81-5.81h23.27a5.81,5.81,0,0,1,5.81,5.81v23.27a17.45,17.45,0,0,1-34.89,0Zm-48.25-5.81h26.71a9.92,9.92,0,0,1,9.91,9.9,10.34,10.34,0,0,1-.24,2.15l-7.48,33.62a15.93,15.93,0,0,1-31.1,0l-7.47-33.62a9.71,9.71,0,0,1-.24-2.15A9.91,9.91,0,0,1,195.44,197.45Zm-58.16,0H164a9.92,9.92,0,0,1,9.91,9.9,9.71,9.71,0,0,1-.24,2.15l-7.47,33.62a15.93,15.93,0,0,1-31.1,0l-7.48-33.62a10.34,10.34,0,0,1-.24-2.15A9.92,9.92,0,0,1,137.28,197.45Zm-50.62,0h23.27a5.81,5.81,0,0,1,5.81,5.81v23.27a17.45,17.45,0,0,1-34.89,0V203.26A5.81,5.81,0,0,1,86.66,197.45Zm-52.34,5.81a5.82,5.82,0,0,1,5.82-5.81H63.4a5.82,5.82,0,0,1,5.82,5.81v23.27a17.45,17.45,0,0,1-34.9,0ZM338.58,293.5l-.94.19-.83.48c-.53.31-55.47,31.22-157.1,31.22S23.15,294.48,22.6,294.17l-.83-.48-.93-.19a12.2,12.2,0,0,1-9.78-11.93A12,12,0,0,1,11.6,278l12.87-41.81A28.86,28.86,0,0,0,75,243.79a28.86,28.86,0,0,0,47.86-1.92l.84,3.78a27.57,27.57,0,0,0,53.82,0l2.16-9.76,2.17,9.76a27.57,27.57,0,0,0,53.82,0l.84-3.78a28.86,28.86,0,0,0,47.86,1.92A28.86,28.86,0,0,0,335,236.18L347.83,278a12,12,0,0,1,.54,3.58A12.21,12.21,0,0,1,338.58,293.5Z"/><path class="cls-3" d="M191.49,46.38c-3.85-.09-7.77-.14-11.78-.14V57.87q5.86,0,11.5.14Z"/><path class="cls-3" d="M321.59,71.43c-18.36-7.9-58.14-21.62-118.32-24.61l-.58,11.62c58.36,2.9,96.66,16.08,114.3,23.68Z"/><path class="cls-3" d="M22.83,158.05a17.4,17.4,0,0,0,17.31,16.13H63.4A17.29,17.29,0,0,0,75,169.65a17.32,17.32,0,0,0,11.63,4.53h23.27a17.37,17.37,0,0,0,12.84-5.72,21.38,21.38,0,0,0,14.51,5.72H164a21.4,21.4,0,0,0,15.72-6.92,21.44,21.44,0,0,0,15.73,6.92h26.71a21.42,21.42,0,0,0,14.52-5.72,17.33,17.33,0,0,0,12.83,5.72h23.27a17.32,17.32,0,0,0,11.63-4.53A17.29,17.29,0,0,0,296,174.18h23.26a17.4,17.4,0,0,0,17.31-16.13L359,85.43A23.81,23.81,0,0,0,341.82,55.3C334.3,51.18,279.19,23,179.71,23S25.12,51.18,17.6,55.31A23.86,23.86,0,0,0-.57,78.43a23.59,23.59,0,0,0,1,7Zm40.57,4.5H40.14a5.82,5.82,0,0,1-5.82-5.81V133.47a17.45,17.45,0,0,1,34.9,0v23.27A5.82,5.82,0,0,1,63.4,162.55Zm52.34-5.81a5.81,5.81,0,0,1-5.81,5.81H86.66a5.82,5.82,0,0,1-5.81-5.81V133.47a17.45,17.45,0,0,1,34.89,0ZM164,162.55H137.28a9.92,9.92,0,0,1-9.91-9.9,10.26,10.26,0,0,1,.24-2.15l7.48-33.63a15.93,15.93,0,0,1,31.1,0l7.48,33.63a10.24,10.24,0,0,1,.23,2.14A9.92,9.92,0,0,1,164,162.55Zm58.16,0H195.44a9.91,9.91,0,0,1-9.91-9.9,9.64,9.64,0,0,1,.24-2.15l7.47-33.63a15.93,15.93,0,0,1,31.1,0l7.48,33.63a10.25,10.25,0,0,1,.24,2.14A9.92,9.92,0,0,1,222.15,162.55Zm50.62,0H249.5a5.81,5.81,0,0,1-5.81-5.81V133.47a17.45,17.45,0,0,1,34.89,0v23.27A5.82,5.82,0,0,1,272.77,162.55Zm52.34-5.81a5.82,5.82,0,0,1-5.82,5.81H296a5.82,5.82,0,0,1-5.82-5.81V133.47a17.45,17.45,0,0,1,34.9,0ZM20.84,66.5l.94-.19.84-.48c.53-.31,55.15-31.22,157.09-31.22,101.63,0,156.57,30.91,157.11,31.22l.84.49.93.18a12.2,12.2,0,0,1,9.78,11.93,12,12,0,0,1-.54,3.58L335,123.82a28.86,28.86,0,0,0-50.56-7.61,28.86,28.86,0,0,0-47.86,1.92l-.84-3.78a27.57,27.57,0,0,0-53.82,0l-2.17,9.77-2.16-9.77a27.57,27.57,0,0,0-53.82,0l-.84,3.78A28.86,28.86,0,0,0,75,116.21a28.86,28.86,0,0,0-50.56,7.61L11.6,82a11.93,11.93,0,0,1-.54-3.57A12.19,12.19,0,0,1,20.84,66.5Z"/></svg>