<svg id="Layer_1" data-name="Layer 1" xmlns="http://www.w3.org/2000/svg" viewBox="0 0 360 360"><defs><style>.cls-1{fill:#b35664;}.cls-2{fill:#ef7385;}.cls-3{fill:#0f2040;}.cls-4{fill:#fbe6d0;}.cls-5{fill:#f9d5b1;}</style></defs><title>Endoscopy</title><path class="cls-1" d="M40.27,360.5V322.9a35.74,35.74,0,0,1,10.47-25.27A43.78,43.78,0,0,1,111,296.05l9.09,8.19a128.47,128.47,0,0,0,179.48-7.45l25.34-26.92a109.55,109.55,0,0,0-7.64-157.52L300.94,98.08a139.42,139.42,0,0,0-91.83-34.51,40.74,40.74,0,0,1-40.75-40.75V-.47H133.42V40.84a48.54,48.54,0,0,0,17.47,37.29,48.52,48.52,0,0,1,17.47,37.29v16.21a55.45,55.45,0,0,0-11.65,34v4.09A62.52,62.52,0,0,1,143,208.79L129.24,226a63.66,63.66,0,0,1-49.68,23.87,63.65,63.65,0,0,0-39.05,13.4l-8.2,6.38a69.85,69.85,0,0,0-27,55.14v35.7"/><path class="cls-2" d="M121.78,261.52c93,0,169.51-71.44,179.38-163.25l-.22-.19a139.42,139.42,0,0,0-91.83-34.51,40.74,40.74,0,0,1-40.75-40.75V-.47H133.42V40.84a48.54,48.54,0,0,0,17.47,37.29,48.52,48.52,0,0,1,17.47,37.29v16.21a55.45,55.45,0,0,0-11.65,34v4.08A62.5,62.5,0,0,1,143,208.78L129.24,226a63.64,63.64,0,0,1-49.68,23.88,63.2,63.2,0,0,0-15.65,2A177.8,177.8,0,0,0,121.78,261.52Z"/><path class="cls-3" d="M174.18,133.44H162.53v-18A42.6,42.6,0,0,0,147.16,82.6,54.22,54.22,0,0,1,127.6,40.84V-.47h11.65V40.84a42.6,42.6,0,0,0,15.37,32.82,54.22,54.22,0,0,1,19.56,41.76Z"/><path class="cls-3" d="M187.56,122.52a49.78,49.78,0,0,0-25,43.12v4.08a68.59,68.59,0,0,1-15,42.7l-13.77,17.22A69.1,69.1,0,0,1,79.56,255.7a58,58,0,0,0-35.47,12.18l-8.2,6.37A63.6,63.6,0,0,0,11.16,324.8v35.7H-.48V324.8a75.16,75.16,0,0,1,29.22-59.74l8.19-6.38a69.85,69.85,0,0,1,42.63-14.62,57.47,57.47,0,0,0,45.13-21.7l13.78-17.22a56.89,56.89,0,0,0,12.42-35.42v-4.08a61.47,61.47,0,0,1,30.89-53.24"/><path class="cls-3" d="M46.09,360.5H34.45V322.9a41.27,41.27,0,0,1,12.17-29.38,49.58,49.58,0,0,1,68.25-1.79l9.1,8.18a122.63,122.63,0,0,0,171.34-7.11l25.34-26.92a103.73,103.73,0,0,0-7.23-149.15l-16.31-14.27a133.59,133.59,0,0,0-88-33.06,46.64,46.64,0,0,1-46.58-46.58V-.47h11.65V22.82a35,35,0,0,0,34.93,34.93,145.18,145.18,0,0,1,95.67,36L321.09,108a115.38,115.38,0,0,1,8,165.89l-25.34,26.92a134.28,134.28,0,0,1-187.61,7.78l-9.1-8.18a37.94,37.94,0,0,0-52.23,1.37,29.75,29.75,0,0,0-8.76,21.15Z"/><path class="cls-4" d="M244.94,240.88a3.63,3.63,0,0,1-3.65,5.1l-5.74-.57-11.08-1.13-16.37-1.69a3.55,3.55,0,0,1-2.56-5.63L223,212.79l2.11-2.93a3.61,3.61,0,0,1,6.21.59l3.61,8.09Z"/><path class="cls-5" d="M224.85,203.07c0-.86-4.56-86.92-40.83-111.1C145.93,66.58,146.35,2.23,146.39-.5l4.18.06c0,.64-.42,64.81,35.77,88.94,38,25.34,42.51,110.75,42.68,114.38Z"/></svg>