<svg id="Layer_1" data-name="Layer 1" xmlns="http://www.w3.org/2000/svg" viewBox="0 0 360 360"><defs><style>.cls-1{fill:#f9d5b1;}.cls-2{fill:#f5b97d;}.cls-3{fill:#f7c797;}.cls-4{fill:#b88b5e;}.cls-5{fill:#0f2040;}</style></defs><title>ENT</title><path class="cls-1" d="M94.41,309.11a45.64,45.64,0,0,0,45.64,45.63c25.2,0,43.35-15.46,52.47-45.63,7-23.2,23.49-43,35.75-55.52,62.36-63.5,62.36-144.5,62.36-144.5a98.11,98.11,0,1,0-196.22,0Z"/><path class="cls-2" d="M255.54,33.9a97.69,97.69,0,0,1,22.93,63s0,81-62.37,144.5c-12.26,12.48-28.73,32.32-35.75,55.52-9.12,30.17-27.27,45.63-52.47,45.63a45.42,45.42,0,0,1-25.61-7.85,45.61,45.61,0,0,0,37.78,20c25.2,0,43.35-15.46,52.47-45.63,7-23.2,23.49-43,35.75-55.52,62.36-63.5,62.36-144.5,62.36-144.5A97.9,97.9,0,0,0,255.54,33.9Z"/><path class="cls-3" d="M161.6,266.38a18.76,18.76,0,0,1-19.29,18.75A19,19,0,0,1,124.08,266V223.3a6.71,6.71,0,0,1,4.53-6.34c6.65-2.3,18.25-8.73,18.25-25.62s-11.53-23.29-18.19-25.61a6.71,6.71,0,0,1-4.53-6.5c2.1-94.34,60.24-93.86,60.24-93.86s37-1.84,48.24,32.16c0,0,15.27,44.55-13.4,94.47C199.79,225.84,161.6,253.2,161.6,266.38Z"/><path class="cls-4" d="M128.61,217a6.71,6.71,0,0,0-4.53,6.34v23.06c14.26-.85,21.08-11.21,25.71-19.05,13.92-23.6,24.54-23.84,31.86-46.73,8.51-26.64-11.51-51-32.57-51-13.5,0-20.67,8.72-24.12,15.16-.43,4.56-.71,9.36-.82,14.46a6.71,6.71,0,0,0,4.53,6.5c6.66,2.32,18.19,8.76,18.19,25.61S135.26,214.66,128.61,217Z"/><path class="cls-5" d="M184.27,60.12c-2.51,0-28.66.9-47.3,28.92a5.25,5.25,0,1,0,8.75,5.82,61.61,61.61,0,0,1,8.77-10.51c7.33,1.39,30.85,7.39,37.62,28.21a5.25,5.25,0,0,0,5,3.63,5.14,5.14,0,0,0,1.63-.26,5.25,5.25,0,0,0,3.37-6.62c-6.57-20.18-24.52-29.16-36.68-33,10-5.52,18.36-5.65,18.91-5.65h.29c1.35-.06,33.2-1.13,43,28.56a5.26,5.26,0,1,0,10-3.3c-5.12-15.5-16-26.61-31.56-32.13A62.77,62.77,0,0,0,184.27,60.12Z"/><path class="cls-5" d="M126.89,212a12,12,0,0,0-8.07,11.31V266c0,13.1,10.47,24,23.35,24.4h.68a24,24,0,0,0,24-24,5.26,5.26,0,1,0-10.51,0,13.51,13.51,0,0,1-13.88,13.5A13.8,13.8,0,0,1,129.33,266V223.3a1.46,1.46,0,0,1,1-1.37c6.55-2.27,21.78-9.78,21.78-30.59S136.93,163,130.4,160.77a1.48,1.48,0,0,1-1-1.42c.37-16.46,2.52-31,6.41-43.23a5.26,5.26,0,1,0-10-3.19c-4.19,13.19-6.51,28.73-6.9,46.18a12,12,0,0,0,8.06,11.59c6.69,2.33,14.66,7.8,14.66,20.64S133.6,209.67,126.89,212Z"/><path class="cls-5" d="M141.39,320.93c-2.69.15-5.43.23-8.13.24a5.26,5.26,0,0,0,0,10.51h0c2.88,0,5.8-.09,8.67-.26a5.25,5.25,0,1,0-.58-10.49Z"/><path class="cls-5" d="M168.18,317.07c-2.63.62-5.3,1.17-8,1.65a5.26,5.26,0,0,0,1.87,10.35c2.83-.51,5.7-1.11,8.5-1.77a5.26,5.26,0,1,0-2.41-10.23Z"/><path class="cls-5" d="M217.66,295.66c-2.25,1.49-4.57,2.94-6.89,4.31A5.26,5.26,0,0,0,216.1,309c2.48-1.47,5-3,7.37-4.6a5.26,5.26,0,1,0-5.81-8.77Z"/><path class="cls-5" d="M62.73,304.39c-.58-.29-1.14-.59-1.71-.89a5.26,5.26,0,1,0-4.9,9.3l1.82.95a5.26,5.26,0,0,0,4.79-9.36Z"/><path class="cls-5" d="M139.06,13.66c2.69.39,5.4.86,8.06,1.37a5.26,5.26,0,0,0,2-10.32c-2.82-.55-5.68-1-8.52-1.45a5.26,5.26,0,1,0-1.54,10.4C141.75,14.05,136.19,13.23,139.06,13.66Z"/><path class="cls-5" d="M295.48,130.22q-.53-1.46-1.08-2.91a150.71,150.71,0,0,0,1.49-18.22,103.37,103.37,0,1,0-206.73,0V143a5.26,5.26,0,1,0,10.51,0V109.09A93,93,0,0,1,166.6,19.93c2.28.7,4.57,1.45,6.81,2.24a5.31,5.31,0,0,0,6.71-3.2,5.45,5.45,0,0,0,.29-1.94,92.88,92.88,0,0,1,105,92.05c0,.09,0,4-.7,10.65a5.26,5.26,0,0,0-2,6.42c.33.78.63,1.58.94,2.37a227.22,227.22,0,0,1-5.91,27.95c-7,25-21.84,61.55-53.16,93.44-12.91,13.14-29.81,33.82-37,57.68-.42,1.4-.87,2.74-1.33,4.07a5.25,5.25,0,0,0-2.94,6.69c.05.13.12.24.17.37-9,20.42-23.58,30.77-43.34,30.77a40.37,40.37,0,0,1-34.9-20.12c2.62.44,5.28.84,7.92,1.15a5.26,5.26,0,1,0,1.25-10.44c-2.69-.32-5.4-.71-8-1.17a5.24,5.24,0,0,0-4.9,1.78,40.29,40.29,0,0,1-1.7-11.58V167.64a5.26,5.26,0,1,0-10.51,0V309.11a51,51,0,0,0,.41,6.34,5.16,5.16,0,0,0-1.75-.93c-2.58-.78-5.17-1.65-7.71-2.57a5.26,5.26,0,0,0-3.59,9.88c2.71,1,5.48,1.91,8.24,2.75a5.12,5.12,0,0,0,1.53.23,5.26,5.26,0,0,0,4.57-2.68A51,51,0,0,0,140.05,360c25.1,0,43.73-13.87,54.32-40.26,1.23-.5,2.46-1,3.67-1.53a5.25,5.25,0,0,0,.15-9.58c6.93-21,22.12-39.43,33.83-51.35,33-33.61,48.61-72,55.88-98.35,2.26-8.18,3.89-15.69,5.05-22.27a5.25,5.25,0,0,0,2.53-6.44Z"/><path class="cls-5" d="M111.91,11.67c2.72,0,5.47.06,8.17.18h.24a5.26,5.26,0,0,0,.22-10.51c-2.86-.13-5.76-.19-8.63-.19a5.26,5.26,0,1,0,0,10.51Z"/><path class="cls-5" d="M264.1,88.08a5.3,5.3,0,0,0,4.21-8.4c-1.71-2.3-3.5-4.59-5.31-6.81a5.26,5.26,0,1,0-8.14,6.66c1.71,2.09,3.4,4.26,5,6.43A5.22,5.22,0,0,0,264.1,88.08Z"/><path class="cls-5" d="M303.17,158c-.55-2.81-1.19-5.65-1.87-8.43A5.26,5.26,0,0,0,291.09,152c.65,2.63,1.24,5.31,1.77,8a5.3,5.3,0,0,0,6.18,4.13A5.25,5.25,0,0,0,303.17,158Z"/><path class="cls-5" d="M306.07,177.9a5.26,5.26,0,1,0-10.47,1c.26,2.7.45,5.45.58,8.16a5.26,5.26,0,0,0,10.5-.52c-.14-2.86-.34-5.76-.61-8.61S306.34,180.75,306.07,177.9Z"/><path class="cls-5" d="M279.14,111.68a5.3,5.3,0,0,0,4.63-7.74c-1.36-2.53-2.79-5.06-4.26-7.51a5.25,5.25,0,1,0-9,5.38c1.38,2.32,2.73,4.71,4,7.1A5.25,5.25,0,0,0,279.14,111.68Z"/><path class="cls-5" d="M221.39,47.65a5.25,5.25,0,1,0,6.24-8.45c-2.31-1.71-4.68-3.39-7.06-5a5.26,5.26,0,0,0-5.87,8.73c2.25,1.51,4.5,3.1,6.69,4.71Z"/><path class="cls-5" d="M245.76,66.93a5.3,5.3,0,0,0,3.71-9c-2-2-4.15-4-6.26-5.95a5.26,5.26,0,1,0-7.08,7.77c2,1.82,4,3.72,5.92,5.64A5.3,5.3,0,0,0,245.76,66.93Z"/><path class="cls-5" d="M198.35,33.13a5.25,5.25,0,1,0,4.93-9.28c-2.53-1.35-5.14-2.66-7.73-3.89A5.26,5.26,0,1,0,191,29.45c2.46,1.17,4.92,2.41,7.32,3.68Z"/></svg>