<svg id="Layer_1" data-name="Layer 1" xmlns="http://www.w3.org/2000/svg" viewBox="0 0 360 360"><defs><style>.cls-1{fill:#b35664;}.cls-2{fill:#ef7385;}.cls-3{fill:#f7c797;}.cls-4{fill:#f9d5b1;}.cls-5{fill:#c18e59;}.cls-6{fill:#0f2040;}</style></defs><title>General</title><path class="cls-1" d="M40.57,360V322.57A35.55,35.55,0,0,1,51,297.41a43.6,43.6,0,0,1,60-1.58l9,8.15a127.91,127.91,0,0,0,178.69-7.4l25.22-26.81A109,109,0,0,0,316.33,113L300.09,98.74a138.78,138.78,0,0,0-91.42-34.35,40.58,40.58,0,0,1-40.58-40.58V.63H133.32V41.75A48.35,48.35,0,0,0,150.7,78.88,48.31,48.31,0,0,1,168.09,116v16.14A55.25,55.25,0,0,0,156.5,166v4.07A62.25,62.25,0,0,1,142.86,209L129.15,226.1a63.36,63.36,0,0,1-49.46,23.77,63.32,63.32,0,0,0-38.88,13.34l-8.16,6.35A69.55,69.55,0,0,0,5.8,324.46V360"/><path class="cls-2" d="M121.72,261.46c92.57,0,168.76-71.13,178.59-162.53l-.22-.19a138.78,138.78,0,0,0-91.42-34.35,40.58,40.58,0,0,1-40.58-40.58V.63H133.32V41.75A48.35,48.35,0,0,0,150.7,78.88,48.31,48.31,0,0,1,168.09,116v16.14A55.25,55.25,0,0,0,156.5,166v4.07A62.22,62.22,0,0,1,142.86,209L129.15,226.1a63.36,63.36,0,0,1-49.46,23.77,63.11,63.11,0,0,0-15.58,1.95A176.79,176.79,0,0,0,121.72,261.46Z"/><path class="cls-3" d="M330.39,191.91a97.94,97.94,0,0,1-28.69,69.26l-27.08,27.08a86.65,86.65,0,0,1-61.27,25.38H204a86.65,86.65,0,0,1-61.27-25.38l-.46-.45a30.55,30.55,0,0,1,4.66-47,74.14,74.14,0,0,0,29.23-38.27l3.55-10.63h27.4a136.53,136.53,0,0,0,47.95-8.7,136.52,136.52,0,0,1,48-8.69h27.4Z"/><path class="cls-4" d="M207.09,191.91h-27.4l-3.55,10.62a74.17,74.17,0,0,1-29.23,38.28A30.5,30.5,0,0,0,133.33,266a122.65,122.65,0,0,0,55,12.84c59.22,0,107.23-40.23,107.23-89.84a75.76,75.76,0,0,0-1.45-14.1,136.31,136.31,0,0,0-39.12,8.3A136.53,136.53,0,0,1,207.09,191.91Z"/><circle class="cls-5" cx="220.26" cy="278.85" r="11.59"/><circle class="cls-5" cx="173.89" cy="273.06" r="11.59"/><path class="cls-6" d="M173.89,133.94H162.3V116A42.4,42.4,0,0,0,147,83.33a54,54,0,0,1-19.47-41.58V.63h11.59V41.75a42.44,42.44,0,0,0,15.3,32.68A54,54,0,0,1,173.89,116Z"/><path class="cls-6" d="M11.59,360H0V324.46A74.86,74.86,0,0,1,29.09,265l8.16-6.35a69.52,69.52,0,0,1,42.44-14.56,57.23,57.23,0,0,0,44.93-21.59l13.72-17.15a56.65,56.65,0,0,0,12.36-35.26V166a61,61,0,0,1,61.05-61h20.1v11.59h-20.1A49.45,49.45,0,0,0,162.3,166v4.07a68.31,68.31,0,0,1-14.92,42.51l-13.71,17.14a68.78,68.78,0,0,1-54,25.95,57.73,57.73,0,0,0-35.31,12.12l-8.17,6.34a63.37,63.37,0,0,0-24.62,50.33Z"/><path class="cls-6" d="M213.35,319.43H204a91.84,91.84,0,0,1-65.37-27.08l-.44-.43A36.33,36.33,0,0,1,143.7,236a68.71,68.71,0,0,0,27-35.29l3.54-10.62a5.79,5.79,0,0,1,5.5-4h27.4A130.11,130.11,0,0,0,253,177.78a142,142,0,0,1,50-9.06h27.4a5.8,5.8,0,0,1,5.8,5.8v17.39a103.1,103.1,0,0,1-30.39,73.36l-27.08,27.08A91.85,91.85,0,0,1,213.35,319.43ZM183.87,197.7l-2.22,6.66a80.43,80.43,0,0,1-31.53,41.27,24.73,24.73,0,0,0-3.76,38.07l.43.42A80.32,80.32,0,0,0,204,307.83h9.37a80.33,80.33,0,0,0,57.17-23.68l27.08-27.08a91.54,91.54,0,0,0,27-65.16v-11.6H303a130.2,130.2,0,0,0-45.92,8.33,141.87,141.87,0,0,1-50,9.06Z"/><path class="cls-6" d="M220.26,296.24a17.39,17.39,0,1,1,17.39-17.39A17.41,17.41,0,0,1,220.26,296.24Zm0-23.18a5.8,5.8,0,1,0,5.8,5.79A5.8,5.8,0,0,0,220.26,273.06Z"/><path class="cls-6" d="M173.89,290.44a17.39,17.39,0,1,1,17.39-17.38A17.41,17.41,0,0,1,173.89,290.44Zm0-23.18a5.8,5.8,0,1,0,5.8,5.8A5.81,5.81,0,0,0,173.89,267.26Z"/><path class="cls-6" d="M185.48,238.28h11.6v11.59h-11.6Z"/><path class="cls-6" d="M208.67,226.68h11.59v11.6H208.67Z"/><path class="cls-6" d="M249.24,273.06h11.59v11.59H249.24Z"/><path class="cls-6" d="M260.83,249.87h11.6v11.59h-11.6Z"/><path class="cls-6" d="M237.65,238.28h11.59v11.59H237.65Z"/><path class="cls-6" d="M46.37,360H34.78V322.57A41.1,41.1,0,0,1,46.9,293.31a49.38,49.38,0,0,1,67.95-1.78l9.05,8.15a122.1,122.1,0,0,0,170.59-7.08l25.22-26.8a103.26,103.26,0,0,0-7.2-148.49l-16.24-14.2a132.9,132.9,0,0,0-87.6-32.93A46.42,46.42,0,0,1,162.3,23.81V.63h11.59V23.81a34.82,34.82,0,0,0,34.78,34.78,144.56,144.56,0,0,1,95.24,35.79l16.24,14.2a114.86,114.86,0,0,1,8,165.16l-25.22,26.81a133.68,133.68,0,0,1-186.78,7.74l-9.06-8.14a37.77,37.77,0,0,0-52,1.36,29.61,29.61,0,0,0-8.72,21.06Z"/></svg>