<svg id="Layer_1" data-name="Layer 1" xmlns="http://www.w3.org/2000/svg" viewBox="0 0 360 360"><defs><style>.cls-1{fill:#f5b97d;}.cls-2{fill:#aeaeae;}.cls-3{fill:#e6e6e6;}.cls-4{fill:#adadad;}.cls-5{fill:#ef7385;}.cls-6{fill:#0f2040;}</style></defs><title>Generalize</title><path class="cls-1" d="M2.34,219.74H357.65V350H2.34Z"/><path class="cls-2" d="M349.35,47.22l-55,55-24,24-14.89,14.88a13.24,13.24,0,0,1-10.86,3.8,13.21,13.21,0,0,0-10.88,3.78L224.47,158a7.93,7.93,0,0,1-11.21-11.21l9.29-9.29a13.28,13.28,0,0,0,3.87-9.36c0-1.67-1.29-7.37,3.7-12.38L245,100.85l24-24,55-55a17.94,17.94,0,1,1,25.36,25.37Z"/><path class="cls-3" d="M349.35,47.22l-55,55-24,24-14.89,14.88a13.24,13.24,0,0,1-10.86,3.8,13.21,13.21,0,0,0-10.88,3.78L224.47,158a7.93,7.93,0,0,1-11.21-11.21l9.29-9.29a13.28,13.28,0,0,0,3.87-9.36c0-1.67-1.29-7.37,3.7-12.38L245,100.85l24-24,55-55a17.94,17.94,0,1,1,25.36,25.37Z"/><path class="cls-4" d="M245,100.94l24-24,25.36,25.36-24,24Z"/><path class="cls-3" d="M161,172,101.3,85.4,74.37,112.33Z"/><path class="cls-5" d="M343.21,339.17H16.78a3.61,3.61,0,1,1,0-7.22H339.6V253a3.61,3.61,0,0,1,7.22,0v82.6A3.61,3.61,0,0,1,343.21,339.17Zm0-97a3.61,3.61,0,0,1-3.61-3.61v-4.34a3.61,3.61,0,0,1,7.22,0v4.34A3.61,3.61,0,0,1,343.21,242.13Z"/><path d="M310.71,219.75a3.62,3.62,0,1,0,3.62-3.63A3.61,3.61,0,0,0,310.71,219.75Z"/><path d="M361.27,219.75a3.63,3.63,0,0,0-3.61-3.63H328.77a3.61,3.61,0,1,0,0,7.22h28.89A3.6,3.6,0,0,0,361.27,219.75Z"/><path class="cls-6" d="M-1.27,219.75a3.61,3.61,0,0,0,3.61,3.59H234.86l22.18,57H245.23v-11a3.61,3.61,0,1,0-7.22,0v11H214.9v-11a3.61,3.61,0,0,0-7.22,0v11H184.57v-11a3.61,3.61,0,1,0-7.22,0v11H154.24v-11a3.61,3.61,0,1,0-7.22,0v11H123.91v-11a3.62,3.62,0,0,0-7.23,0v11H99.59a3.61,3.61,0,0,0,0,7.22h17.09v11a3.62,3.62,0,1,0,7.23,0v-11H147v11a3.61,3.61,0,1,0,7.22,0v-11h23.11v11a3.61,3.61,0,1,0,7.22,0v-11h23.11v11a3.61,3.61,0,1,0,7.22,0v-11H238v11a3.61,3.61,0,1,0,7.22,0v-11h17.09a3.62,3.62,0,0,0,3.37-4.92l-23.08-59.26h57.27a3.61,3.61,0,1,0,0-7.22H239.8l-20.36-52.27a11.6,11.6,0,0,0,7.57-3.32l9.29-9.3a9.51,9.51,0,0,1,6.79-2.82c1.44,0,8.7,1.45,15-4.77,46.67-46.68,4-4,53-53a3.6,3.6,0,0,0,0-5.1,3.69,3.69,0,0,0-5.09,0h0L294.37,97.1,274.11,76.84l52.43-52.43a14.32,14.32,0,0,1,20.25,20.25L326.37,65.09a3.62,3.62,0,0,0,0,5.11,3.71,3.71,0,0,0,5.11,0l20.43-20.42A21.55,21.55,0,0,0,321.43,19.3l-93.87,93.87c-6.24,6.27-4.75,13.49-4.75,14.93a9.75,9.75,0,0,1-2.82,6.82l-9.28,9.27a11.51,11.51,0,0,0-2.27,13.07l-20.36,16.89a10.91,10.91,0,0,1-14.09-.1,18,18,0,0,0-10.2-4.3l-24.45-35.5a3.71,3.71,0,0,0-5-.91,3.61,3.61,0,0,0-.93,5l13.46,19.54L80,111.82,100.78,91,117,114.57a3.67,3.67,0,0,0,5,.92,3.59,3.59,0,0,0,.93-5L90.34,63.13a26.76,26.76,0,1,0-23.51-7.42,26.43,26.43,0,0,0,9.71,6.17L50.84,87.57a26.39,26.39,0,0,0-6.17-9.7,26.78,26.78,0,1,0,0,37.87,26.52,26.52,0,0,0,7.42-14.36c61,42-40.9-28.21,101.95,70.24a18.52,18.52,0,0,0-5.25,4l-15.68,17.18a3.61,3.61,0,1,0,5.33,4.87l15.68-17.18a10.89,10.89,0,0,1,15.18-.93,18.11,18.11,0,0,0,23.39.17l19-15.78L232,216.12H2.34a3.63,3.63,0,0,0-3.61,3.63ZM73.94,107.66,54.42,94.21,83.17,65.45,96.63,85Zm-2-84.72a19.56,19.56,0,1,1,0,27.66A19.57,19.57,0,0,1,71.94,22.94Zm-32.37,87.7a19.57,19.57,0,1,1,0-27.67A19.57,19.57,0,0,1,39.57,110.64ZM257,93.94l20.26,20.26-6.89,6.9-20.26-20.26Zm32.26,8.26-6.89,6.9L262.11,88.84l6.89-6.9Zm-73.45,47.1,9.3-9.28A16.86,16.86,0,0,0,230,128.1c0-1.62-1.15-6,2.64-9.84L245,105.94l20.26,20.26-12.34,12.33c-3.68,3.72-7.84,2.66-9.83,2.66a16.71,16.71,0,0,0-11.9,4.92l-9.28,9.29a4.31,4.31,0,0,1-6.1-6.1Z"/><path d="M321.26,80.41a3.62,3.62,0,0,0,0-5.11,3.7,3.7,0,0,0-5.1,0,3.61,3.61,0,0,0,5.1,5.11Z"/><path d="M126.13,121.44a3.61,3.61,0,1,0,5,.93A3.71,3.71,0,0,0,126.13,121.44Z"/><path d="M105.75,116.79a3.62,3.62,0,0,0,0,5.11l1.27,1.26a3.61,3.61,0,0,0,5.1-5.1l-1.26-1.27a3.71,3.71,0,0,0-5.11,0Z"/></svg>