<svg id="Layer_1" data-name="Layer 1" xmlns="http://www.w3.org/2000/svg" viewBox="0 0 360 360"><defs><style>.cls-1{fill:#f9d5b1;}.cls-2{fill:#f5b97d;}.cls-3{fill:#ffbcab;}.cls-4{fill:#f7c797;}.cls-5{fill:#b88b5e;}.cls-6{fill:#ff728b;}.cls-7{fill:#f28f9d;}.cls-8{fill:#ef7385;}.cls-9{fill:#0f2040;}.cls-10{fill:#fff;}</style></defs><title>Gyn</title><path class="cls-1" d="M78.45,145.26A23.5,23.5,0,1,1,55,121.76,23.5,23.5,0,0,1,78.45,145.26Z"/><path class="cls-1" d="M328.54,145.26a23.5,23.5,0,1,1-23.5-23.5A23.5,23.5,0,0,1,328.54,145.26Z"/><path class="cls-2" d="M293,53.52l-21,20.84H242.23l-12-12H129.78l-12,12H87.93L67,53.52H5.27v59.07l24.57,24.57,17.4-17.41L29.88,102.4V78.13H56.81L77.77,99h40L156.2,143.1l11.18,112.49a23.5,23.5,0,0,0,1.39,40.47V332.8h22.46V296.06a23.5,23.5,0,0,0,1.39-40.47L203.8,143.1,242.23,99h40l21-20.84h26.93V102.4l-17.48,17.48,17.4,17.4,24.69-24.69V53.52Z"/><path class="cls-3" d="M168.77,296.06V332.8H150.39l-29-29V275.41a58.62,58.62,0,0,1,9.5-32l-8.52-85.65L101.77,99h16L156.2,143.1l11.18,112.49a23.5,23.5,0,0,0,1.39,40.47Zm-51-221.7,12-12H230.22l12,12h15.4l-.84-35.15-12-12H115.22l-12,12-.84,35.15ZM258.23,99h-16L203.8,143.1,192.62,255.59a23.5,23.5,0,0,1-1.39,40.47V332.8h18.38l29-29V275.41a58.64,58.64,0,0,0-9.49-32l8.52-85.66Z"/><path class="cls-4" d="M52.55,145.26a23.5,23.5,0,0,1,13-21,23.5,23.5,0,1,0,0,42A23.49,23.49,0,0,1,52.55,145.26Z"/><path class="cls-4" d="M302.64,145.26a23.5,23.5,0,0,1,12.95-21,23.5,23.5,0,1,0,0,42A23.49,23.49,0,0,1,302.64,145.26Z"/><path class="cls-5" d="M150.88,62.36h-21.1l-12,12h21.1Z"/><path class="cls-5" d="M26.37,112.59V53.52H5.27v59.07l24.57,24.57,10.55-10.55Z"/><path class="cls-5" d="M177.59,275.41a23.48,23.48,0,0,1,10.89-19.82L177.29,143.1,138.87,99h-21.1L156.2,143.1l11.18,112.49a23.5,23.5,0,0,0,1.39,40.47V332.8h21.1V296.06A23.47,23.47,0,0,1,177.59,275.41Z"/><path class="cls-5" d="M56.81,78.13,77.77,99h21.1l-21-20.84Z"/><path class="cls-6" d="M123.6,68.54l.7-29.33,12-12H115.22l-12,12-.84,35.15h15.4Z"/><path class="cls-6" d="M230.22,62.36l12,12h15.4l-.14-5.82c-1.88-1.89-3.76-3.76-6.18-6.18Z"/><path class="cls-7" d="M212.32,296.06a23.5,23.5,0,0,0,1.39-40.47L224.9,143.1l29.91-34.35L258.23,99h-16L203.8,143.1,192.62,255.59a23.5,23.5,0,0,1-1.39,40.47V332.8h18.38l2.71-2.71Z"/><path class="cls-8" d="M142.43,303.76V275.41a58.63,58.63,0,0,1,9.51-32l-8.52-85.65-17.14-49L117.77,99h-16l20.55,58.76,8.52,85.65a58.62,58.62,0,0,0-9.5,32v28.35l29,29h18.39v-2.71Z"/><path class="cls-9" d="M360,48.25H290.87l-21,20.84H244.41l-12-12H127.6l-12,12H90.1l-21-20.84H0v66.52l26.46,26.46a29.87,29.87,0,0,0-.28,4A28.77,28.77,0,1,0,55,116.49a30.68,30.68,0,0,0-3.33.19L35.16,100.21V83.41H54.63l21,20.84h39.77l35.75,41L161.84,253.1A28.76,28.76,0,0,0,163.5,299v39.08h33V299a28.77,28.77,0,0,0,1.66-45.88l10.72-107.81,35.75-41H284.4l21-20.84h19.48v16.8l-16.47,16.47a30.4,30.4,0,0,0-3.33-.19,28.77,28.77,0,1,0,28.77,28.77,28.08,28.08,0,0,0-.28-4L360,114.77Zm-286.82,97A18.23,18.23,0,1,1,55,127,18.25,18.25,0,0,1,73.18,145.26ZM305,163.49a18.23,18.23,0,1,1,18.23-18.23A18.24,18.24,0,0,1,305,163.49Zm44.41-53.08-19.86,19.86a29,29,0,0,0-10-9.85l15.84-15.84V72.86H301l-21,20.84H239.83l-41.11,47.2L187.05,258.3l2.73,1.74a18.23,18.23,0,0,1-1.08,31.39l-2.75,1.5v34.59h-11.9V292.93l-2.76-1.5A18.22,18.22,0,0,1,170.22,260l2.73-1.75L161.28,140.9,120.17,93.7H80L59,72.86H24.61v31.72l15.84,15.84a29.12,29.12,0,0,0-10.05,9.84L10.55,110.41V58.8H64.78l21,20.84H120l12-12H228l12,12h34.21l21-20.84h54.23Z"/><path class="cls-9" d="M108.43,41.45l9-9H242.59l9,9,.46,19,10.54-.26L262,37l-15-15H113L98,37l-.56,23.2,10.54.26Z"/><path class="cls-9" d="M126.61,301.57V275.41a53.18,53.18,0,0,1,8.65-29.15l1-1.55-8.76-88.13-15.84-45.29-10,3.49,15.43,44.1,8.27,83.22a63.76,63.76,0,0,0-9.34,33.31v30.53l32.13,32.13h6.51V327.52h-2.14Z"/><path class="cls-9" d="M258.29,114.78l-10-3.49-15.84,45.29-8.76,88.13,1,1.56a53.25,53.25,0,0,1,8.64,29.14v26.16l-26,26h-2.13v10.54h6.5l32.14-32.13V275.41a63.82,63.82,0,0,0-9.34-33.3l8.27-83.23Z"/><path class="cls-10" d="M305,158.73a13.43,13.43,0,0,1-9.52-3.94l7.45-7.46a2.93,2.93,0,0,0,4.14-4.14l7.46-7.45a13.47,13.47,0,0,1-9.53,23Z"/><path class="cls-10" d="M54.83,158.73a13.47,13.47,0,0,1-9.53-3.94l7.46-7.46a2.93,2.93,0,0,0,4.14-4.14l7.46-7.45a13.47,13.47,0,0,1-9.53,23Z"/><path class="cls-10" d="M187.78,179.9l-10.5-1.05,4.5-45.26,8-9.18,7.95,6.93L191.94,138ZM202.34,126l-8-6.93,6.92-8,8,6.93Zm11.54-13.26-7.95-6.92,6.93-8,7.95,6.93Z"/><path class="cls-10" d="M222.93,85.21H194.06V74.66h28.87Zm-35.9,0H176.48V74.66H187Zm-17.58,0H158.91V74.66h10.54Z"/><path class="cls-10" d="M216.24,249l-10.5-1,6.27-63,10.5,1Zm7-70-10.49-1,1-10.5,10.5,1.05Zm1.74-17.49-10.49-1,1-10.5,10.5,1.05Z"/><path class="cls-10" d="M237.5,50.05H157.66V39.5H237.5V50.05Zm-86.87,0H140.08V39.5h10.55Zm-17.58,0H122.5V39.5h10.55Z"/></svg>