<svg id="Layer_1" data-name="Layer 1" xmlns="http://www.w3.org/2000/svg" viewBox="0 0 360 360"><defs><style>.cls-1{fill:#ffbd86;}.cls-2{fill:#f6a96c;}.cls-3{fill:#ef7385;}.cls-4{fill:#b35664;}.cls-5{fill:#0f2040;}</style></defs><title>MaxFax</title><path class="cls-1" d="M206.33,281V255.3H153.67V281a12.52,12.52,0,0,1-7.62,11.52L98.57,312.79a26.37,26.37,0,0,0-16,24.26v17.68H277.46V337.05a26.37,26.37,0,0,0-16-24.26L214,292.56A12.52,12.52,0,0,1,206.33,281Z"/><path class="cls-2" d="M277.46,337.06v17.67H263.77V342.87c0-10.57-6.31-17.42-16-21.57l-27.06-11.53c-10.67-4.54-28-8.71-28-22.91V255.29h13.69V281A12.55,12.55,0,0,0,214,292.57l47.48,20.22A26.39,26.39,0,0,1,277.46,337.06Z"/><path class="cls-1" d="M240,97.25c-27.22-25.75-60-24.61-60-24.61s-32.78-1.14-60,24.61c-20.3,19.2-30.19,47.24-27.74,75.43,2.74,31.55,15.64,79.95,66.86,100.38a56.33,56.33,0,0,0,41.76,0c51.22-20.43,64.12-68.83,66.85-100.38C270.19,144.49,260.31,116.45,240,97.25Z"/><path class="cls-2" d="M267.74,172.69c-2.73,31.54-15.63,79.94-66.85,100.37a56.26,56.26,0,0,1-37.16,1.6,55.9,55.9,0,0,0,23.45-4c51.23-20.42,64.13-68.83,66.87-100.37,2.44-28.2-7.44-56.24-27.74-75.44A90.73,90.73,0,0,0,186,72.9a91.69,91.69,0,0,1,54,24.35C260.31,116.45,270.19,144.49,267.74,172.69Z"/><path class="cls-3" d="M85.42,100.52c-5.79,7.8-7.19,27.36-7.49,33.22a103.11,103.11,0,0,0,2,26.59c1.75,8.25,5.36,14.91,9.88,21.17a3.8,3.8,0,0,0,6.79-1.33c4.2-15.5,9.08-29.62,19.88-42.55a88.18,88.18,0,0,1,34.39-24.91c9.27-3.81,25.58-10.32,28.29-22,5.1-22.06-24.44-33-40.18-31.16C128.47,60.76,118.14,64,109.38,70c-9.18,6.28-10.67,10.8-10.53,23.37,0,3.46-2.63,5.44-5.9,4.32C89.85,96.59,87.39,97.88,85.42,100.52Z"/><path class="cls-4" d="M179.12,90.68c-2.71,11.71-19,18.22-28.29,22q-2.84,1.16-5.58,2.5A92.74,92.74,0,0,1,119.1,85.4,39,39,0,0,1,115,75.48a69.82,69.82,0,0,1-1.07-8.32,68.59,68.59,0,0,1,25-7.64C154.68,57.66,184.22,68.62,179.12,90.68Z"/><path class="cls-3" d="M259.93,64.21a6.86,6.86,0,0,0,.76,5.31c9.64,16,19.26,28.89,21.28,56.42,0,0,2.86,44.44-10.76,56.63,0,0-5.95,5.7-7.23,0,0,0-4.24-43-71.62-68.1,0,0-69.54-25.81-62.37-66.67,0,0,2.67-29.6,36.77-39.79,20.58-6.15,42.8-1.86,60.17,10.77a126.59,126.59,0,0,1,33.29,36,6.84,6.84,0,0,1,.8,5.38Z"/><path class="cls-4" d="M271.21,182.57s-4.46,4.27-6.48,1.72c7.34-17.29,5.33-48.46,5.33-48.46-2-27.52-11.63-40.41-21.27-56.41a6.82,6.82,0,0,1-.75-5.31L249.12,70a6.81,6.81,0,0,0-.8-5.37,126.77,126.77,0,0,0-33.28-36c-17.38-12.63-39.61-16.91-60.18-10.77a60.14,60.14,0,0,0-13.69,5.95C146.63,17.6,154.74,11.6,166.76,8c20.58-6.15,42.81-1.86,60.18,10.76a126.9,126.9,0,0,1,33.28,36,6.9,6.9,0,0,1,.8,5.39l-1.09,4.06a6.87,6.87,0,0,0,.76,5.31c9.63,16,19.25,28.89,21.28,56.42C282,125.94,284.83,170.38,271.21,182.57Z"/><path class="cls-5" d="M166.31,180.94a5.27,5.27,0,0,0-5.28,5.28,5.47,5.47,0,0,1-10.93,0,5.27,5.27,0,1,0-10.54,0,16,16,0,0,0,32,0A5.27,5.27,0,0,0,166.31,180.94Z"/><path class="cls-5" d="M204.45,202.23a16,16,0,0,0,16-16,5.27,5.27,0,1,0-10.54,0,5.47,5.47,0,0,1-10.94,0,5.27,5.27,0,1,0-10.54,0A16,16,0,0,0,204.45,202.23Z"/><path class="cls-5" d="M119.66,196.61a5.27,5.27,0,1,0-10.54.42,23,23,0,0,0,4.61,12.59,5.28,5.28,0,1,0,8.58-6.14A12.78,12.78,0,0,1,119.66,196.61Z"/><path class="cls-5" d="M160.05,207.34a46.58,46.58,0,0,1-6.74,4.81,5.27,5.27,0,1,0,5.23,9.16,56.71,56.71,0,0,0,8.27-5.88,5.27,5.27,0,1,0-6.76-8.09Z"/><path class="cls-5" d="M141.23,214.72a29.46,29.46,0,0,1-8.46-2.76,5.28,5.28,0,0,0-4.68,9.46,40.16,40.16,0,0,0,11.54,3.73,5.52,5.52,0,0,0,.81.06,5.28,5.28,0,0,0,.79-10.49Z"/><path class="cls-5" d="M207.18,212.15a46,46,0,0,1-6.74-4.81,5.27,5.27,0,1,0-6.76,8.09,56.17,56.17,0,0,0,8.27,5.88,5.27,5.27,0,0,0,5.23-9.16Z"/><path class="cls-5" d="M227.72,212a29.55,29.55,0,0,1-8.46,2.76,5.28,5.28,0,0,0,.79,10.49,5.52,5.52,0,0,0,.81-.06,40.1,40.1,0,0,0,11.53-3.73,5.27,5.27,0,0,0-4.67-9.46Z"/><path class="cls-5" d="M246.31,191.55a5.28,5.28,0,0,0-5.48,5.06,12.78,12.78,0,0,1-2.65,6.87,5.27,5.27,0,1,0,8.57,6.14A23.14,23.14,0,0,0,251.37,197,5.27,5.27,0,0,0,246.31,191.55Z"/><path class="cls-5" d="M166.57,128.65a5.27,5.27,0,0,0-5.27,5.28v4.92a5.27,5.27,0,0,0,10.54,0v-4.92A5.27,5.27,0,0,0,166.57,128.65Z"/><path class="cls-5" d="M166.57,149.75A5.26,5.26,0,0,0,161.3,155v10.55a5.27,5.27,0,0,0,10.54,0V155A5.27,5.27,0,0,0,166.57,149.75Z"/><path class="cls-5" d="M193.9,170.84a5.27,5.27,0,0,0,5.27-5.27V155a5.27,5.27,0,1,0-10.54,0v10.55A5.27,5.27,0,0,0,193.9,170.84Z"/><path class="cls-5" d="M193.9,144.12a5.27,5.27,0,0,0,5.27-5.27v-4.92a5.27,5.27,0,1,0-10.54,0v4.92A5.27,5.27,0,0,0,193.9,144.12Z"/><path class="cls-5" d="M263.5,307.94,216,287.71A7.25,7.25,0,0,1,211.6,281v-7a103.08,103.08,0,0,0,45.55-44.5,136.94,136.94,0,0,0,13.7-40.31,17,17,0,0,0,3.95-2.78c15-13.57,12.74-56,12.43-60.89a119.32,119.32,0,0,0-1.69-13.2,5.27,5.27,0,1,0-10.36,1.94,108.74,108.74,0,0,1,1.52,12c1,15.7-.38,43-8.24,51.61-2.89-12-16.12-46.71-74.27-68.36A165.37,165.37,0,0,1,161.36,92c-20-14-28.76-28.61-26.18-43.33a2.7,2.7,0,0,0,.06-.41c.09-.91,2.22-19.6,21.86-30.56,7.08,10.64,19.24,16.6,31.23,21.77C201.07,45,212,50.33,217.13,59.94a5.28,5.28,0,0,0,4.66,2.81,5.39,5.39,0,0,0,2.48-.62A5.28,5.28,0,0,0,226.45,55c-7.26-13.66-22.68-20.31-33.94-25.17-10.19-4.4-19.78-9-25.48-16.36l1.24-.4c18.57-5.55,39.34-1.81,55.57,10a121.33,121.33,0,0,1,31.9,34.5,1.59,1.59,0,0,1,.19,1.24l-1.09,4.07a12.17,12.17,0,0,0,1.33,9.39q1.5,2.48,3,4.87c3.18,5.18,6.19,10.08,8.82,15.45a5.27,5.27,0,1,0,9.47-4.64c-2.85-5.82-6-10.93-9.31-16.33-1-1.58-1.95-3.17-2.93-4.79a1.61,1.61,0,0,1-.17-1.23l1.08-4.06a12.19,12.19,0,0,0-1.4-9.52A131.44,131.44,0,0,0,230,14.51C211.17.79,187-3.52,165.25,3c-35.8,10.69-40.12,40.81-40.49,44.11a39.3,39.3,0,0,0-.42,10.1,64.46,64.46,0,0,0-17.93,8.43C96.65,72.27,94,78,93.62,88.75c0,0,0,.07,0,.11v.2c0,1,0,2.13,0,3.27-4.66-1.13-9.12.67-12.38,5-2.68,3.61-7.35,13.09-8.53,36.08a108.32,108.32,0,0,0,2.07,28c1.7,8,5.12,15.32,10.77,23.16a9.31,9.31,0,0,0,3.35,2.85,137.74,137.74,0,0,0,14,42.09A103.09,103.09,0,0,0,148.39,274v7a7.24,7.24,0,0,1-4.4,6.67l-1,.41a5.27,5.27,0,1,0,4.13,9.7l1-.41A17.77,17.77,0,0,0,158.94,281v-2.43a61.09,61.09,0,0,0,42.12,0V281a17.77,17.77,0,0,0,10.82,16.37l47.48,20.23a21.08,21.08,0,0,1,12.83,19.42v12.39H87.81V337.06a21.08,21.08,0,0,1,12.83-19.42L125,307.28a5.28,5.28,0,0,0-4.13-9.71L96.5,307.94a31.6,31.6,0,0,0-19.24,29.12v17.67A5.27,5.27,0,0,0,82.54,360H277.46a5.27,5.27,0,0,0,5.28-5.27V337.06A31.62,31.62,0,0,0,263.5,307.94ZM85.05,159.24A97.39,97.39,0,0,1,83.19,134c.73-14.12,3.27-26,6.47-30.34.66-.9,1-1.1,1.28-1.1a.92.92,0,0,1,.32.07,11.11,11.11,0,0,0,2.67.54,113.6,113.6,0,0,0,2.36,19.28,5.27,5.27,0,0,0,5.12,4,4.93,4.93,0,0,0,1.25-.16,5.27,5.27,0,0,0,3.88-6.36c-2.62-10.79-2.38-30.77-2.38-31v-.09c.27-7.89,2-10.33,8.2-14.61a53.76,53.76,0,0,1,14.31-6.82c5.46,15,19.12,27.07,32.43,35.8-3.54,1.78-7.07,3.24-9.79,4.35l-.49.2a94,94,0,0,0-36.43,26.41C101.13,147.72,96,162.61,92.28,175.85A46.76,46.76,0,0,1,85.05,159.24ZM198.93,268.16a50.86,50.86,0,0,1-37.85,0,93.23,93.23,0,0,1-48.91-43.61A127.13,127.13,0,0,1,99.26,185.7a9.22,9.22,0,0,0,2.39-4.15c4.45-16.43,9.15-29,18.83-40.55a83.53,83.53,0,0,1,32.35-23.41l.48-.2a109.86,109.86,0,0,0,16.24-7.82,168.71,168.71,0,0,0,21,9.84c18.26,6.8,43.18,19.41,58.14,40.88,8.88,12.73,10.07,22.73,10.08,22.8a4.58,4.58,0,0,0,.1.63,9.47,9.47,0,0,0,1.62,3.67,126.34,126.34,0,0,1-12.61,37.16A93.26,93.26,0,0,1,198.93,268.16Z"/><path class="cls-5" d="M289,254.29l-1.61-19.7a5.27,5.27,0,0,0-7.79-4.2l-18.42,10.09a5.27,5.27,0,0,0,5.07,9.25l2.22-1.21c-9,15-20.17,21.8-20.4,21.94a5.27,5.27,0,0,0,5.32,9.1c.69-.4,14.34-8.53,24.89-26.9l.21,2.49a5.27,5.27,0,0,0,5.25,4.85l.43,0A5.27,5.27,0,0,0,289,254.29Z"/><path class="cls-5" d="M81.56,255.15l.21-2.49c10.55,18.37,24.2,26.5,24.89,26.9a5.27,5.27,0,1,0,5.31-9.11c-.14-.08-11.34-6.76-20.41-21.95l2.24,1.23a5.27,5.27,0,1,0,5.07-9.25L80.45,230.39a5.27,5.27,0,0,0-7.79,4.2L71.05,254.3A5.27,5.27,0,0,0,75.88,260l.43,0A5.27,5.27,0,0,0,81.56,255.15Z"/></svg>