<svg id="Layer_1" data-name="Layer 1" xmlns="http://www.w3.org/2000/svg" viewBox="0 0 360 360"><defs><style>.cls-1{fill:#f9d5b1;}.cls-2{fill:#f7c797;}.cls-3,.cls-5{fill:#f5b97d;}.cls-4{fill:#b88b5e;}.cls-5{opacity:0.8;isolation:isolate;}.cls-6{fill:#0f2040;}</style></defs><title>Neuro</title><path class="cls-1" d="M233.51,283.47l-85.65-103v18.62a1.55,1.55,0,0,1-.67,1.26,23.4,23.4,0,0,0,11.4,42.56c.65.06,1.29.08,1.92.08v1.4A66.75,66.75,0,0,0,197.77,304l20.79,10.14.14.06a25.82,25.82,0,0,1,14.8,23.19h0A13.6,13.6,0,0,0,247.09,351H254a13.6,13.6,0,0,0,13.59-13.59A60.29,60.29,0,0,0,233.51,283.47Z"/><path class="cls-2" d="M233.51,283.47l-85.65-103v18.62a1.55,1.55,0,0,1-.67,1.26,23.36,23.36,0,0,0-10.07,19.09v1.12a23.51,23.51,0,0,0,21.46,22.36c.65.05,1.29.07,1.92.07h6.27a40.37,40.37,0,0,0,8,10c.64.59,1.3,1.15,2,1.69a51.56,51.56,0,0,0,27.69,35.73L225.2,300.5a86.25,86.25,0,0,0,35.23,8.73A60.53,60.53,0,0,0,233.51,283.47Z"/><path class="cls-2" d="M328.54,201.94a68.25,68.25,0,0,1-95,81.53l-20.79-10.13a32.24,32.24,0,0,1-18.1-29h0V201.94Z"/><path class="cls-3" d="M328.54,201.94H194.62v42.42a32.15,32.15,0,0,0,8.58,21.87,3.78,3.78,0,0,0,3.05,1.22h0a46.23,46.23,0,0,0,18.64-5.36,47.75,47.75,0,0,0,5-3.12,49.53,49.53,0,0,0,5.46,1.88l.79.2a48.27,48.27,0,0,0,11.12,1.31,46.61,46.61,0,0,0,8.15-.71l.3-.06a46.19,46.19,0,0,0,23.57-12,48.9,48.9,0,0,0,6.88,1h0c.89.07,1.8.1,2.72.1a44.67,44.67,0,0,0,7.79-.73,43.57,43.57,0,0,0,10.49-3.15,46,46,0,0,0,22.23-20l2.16-4.63A68.32,68.32,0,0,0,328.54,201.94Z"/><path class="cls-4" d="M202.87,244.84a24.42,24.42,0,0,1-7.82-1.37,21.83,21.83,0,0,1-7.54-4.52,21.47,21.47,0,0,1-6.1-9.64l-1.57-5.18-5.35-.76a26.13,26.13,0,0,1-21.07-17.8l-2.37-7.39-7.57,1.72a23.31,23.31,0,0,1-5.21.58h-.82a23,23,0,0,1-16.86-8L115,185.9l-6.49,5.73a22.21,22.21,0,0,1-14.75,5.47,24,24,0,0,1-3.37-.24c-6.84-.94-13.06-4.87-16.26-10.26l-4.31-7.27-7.28,4.3a17.53,17.53,0,0,1-4.07,1.64,22.15,22.15,0,0,1-2.19.48,24.65,24.65,0,0,1-2.61.19H53a23.67,23.67,0,0,1-10.34-2.66c-1-.55-1.93-1.14-2.84-1.76l-.24-.16c-.3-.21-.59-.4-.88-.64s-.82-.7-1.24-1.09a30.32,30.32,0,0,1-2.15-2.17,31,31,0,0,1-1.85-2.55c-.23-.36-.46-.72-.68-1.1s-.4-.82-.58-1.23a23.89,23.89,0,0,1-1-2.56,17.28,17.28,0,0,1-.59-4.69l.07-6.88L24,157a16.7,16.7,0,0,1-4.37-1.65,23.65,23.65,0,0,1-2.21-1.57c-.39-.31-.78-.63-1.16-1-.15-.14-.39-.41-.63-.67l-.23-.26c-.65-.74-1.35-1.62-2-2.54a29.44,29.44,0,0,1-1.57-2.85c-.25-.5-.51-1.07-.76-1.65,0-.11-.17-.49-.28-.85l-.14-.43c-.35-1.14-.65-2.33-.9-3.51-1.49-9.61,2.67-16.63,6.7-19.74l6.06-4.66-4-6.51A17.72,17.72,0,0,1,16.54,105a22.3,22.3,0,0,1-.83-5.14,23.83,23.83,0,0,1,2.62-11.32c.55-1.06,1.06-1.94,1.56-2.73s1.23-1.61,1.87-2.36l.12-.14a20.31,20.31,0,0,1,4-3.54l.13-.09a17.77,17.77,0,0,1,4.27-2.18,19.18,19.18,0,0,1,2.08-.65,22.24,22.24,0,0,1,2.23-.33l8.12-.75-.44-8.14a19.83,19.83,0,0,1,1.92-9.15A27.39,27.39,0,0,1,47,54a28,28,0,0,1,4-4,27.28,27.28,0,0,1,4.79-3,24.89,24.89,0,0,1,4.95-1.67,24.35,24.35,0,0,1,4.6-.44h.37a19.85,19.85,0,0,1,4.45.68l8.08,2.13,2.24-8a20.71,20.71,0,0,1,4.58-8,27.83,27.83,0,0,1,3.9-3.39,27.4,27.4,0,0,1,4.81-2.57A23.62,23.62,0,0,1,102.56,24a21.09,21.09,0,0,1,10.31,2.59l7.34,4.11,4.16-7.31a22.51,22.51,0,0,1,15.82-10.72,24.7,24.7,0,0,1,4.11-.35,21.77,21.77,0,0,1,14.35,5.12l6.5,5.65,5.54-6.58a18,18,0,0,1,3.22-3A22.44,22.44,0,0,1,187.42,9l.82,0a23.81,23.81,0,0,1,9.88,2.31,24.26,24.26,0,0,1,4,2.58,18.31,18.31,0,0,1,3.15,3.13l5.33,6.76,6.67-5.43A21.7,21.7,0,0,1,231,13.78a25.21,25.21,0,0,1,5,.5,22.34,22.34,0,0,1,15.43,11.3l3.89,7.49,7.51-3.85A20.6,20.6,0,0,1,272.17,27,23.57,23.57,0,0,1,282,29.21c6.4,2.91,11.23,8.5,12.62,14.61L296.47,52l8.2-1.78a21.21,21.21,0,0,1,2.3-.37c.34,0,.81-.05,1.35-.05h.77a20.27,20.27,0,0,1,4.7.66,24.73,24.73,0,0,1,4.92,1.93,26.46,26.46,0,0,1,4.65,3.25,24,24,0,0,1,6.4,9A20.51,20.51,0,0,1,331,69.41a20.87,20.87,0,0,1,.06,4.79L330.24,82l7.64,1.5a18.71,18.71,0,0,1,8.75,4.27,14.11,14.11,0,0,1,1.7,1.65c.71.79,1.38,1.6,2,2.44l.08.11a19.41,19.41,0,0,1,1.21,2l.16.3A27.52,27.52,0,0,1,353.12,97a23.83,23.83,0,0,1,1.45,11.65,27.29,27.29,0,0,1-.57,2.86,16.26,16.26,0,0,1-.8,2.17,14.59,14.59,0,0,1-2.18,3.73l-5.13,6,5.59,5.55a18.64,18.64,0,0,1,1.55,1.74l.7.95.84,1.28a22,22,0,0,1,2.13,4.26,23.11,23.11,0,0,1,1.17,10.53v.14a24.44,24.44,0,0,1-3.76,10.47,24.16,24.16,0,0,1-3.25,3.83,20.14,20.14,0,0,1-3.81,2.64l-6.89,3.65,3.07,7.18a17.65,17.65,0,0,1,1.13,4.47,21,21,0,0,1-.12,5,25.3,25.3,0,0,1-1.56,5.4c-.45.95-.95,1.9-1.49,2.83-.26.44-.52.87-.8,1.31s-.6.79-.92,1.19c-.71.88-1.47,1.75-2.26,2.56a25.35,25.35,0,0,1-2.25,1.87,23.16,23.16,0,0,1-2.26,1.56c-.89.47-1.78.9-2.67,1.27a21.29,21.29,0,0,1-2.22.8c-.87.2-1.75.36-2.6.47a18.66,18.66,0,0,1-2.44.17h0a16.81,16.81,0,0,1-2.05-.19l-8-1.13-1.54,7.89c-1.19,6.14-6.33,11.95-13.08,14.82l-.21.1a20.56,20.56,0,0,1-5.12,1.5,22,22,0,0,1-3.87.4c-.35,0-.69,0-1,0h-.16a23.74,23.74,0,0,1-4.92-.81,19.35,19.35,0,0,1-4.1-1.77l-7.33-4.07-4.15,7.28a21.93,21.93,0,0,1-2.71,3.74,23.17,23.17,0,0,1-3.61,3.12,23.88,23.88,0,0,1-13.62,4.28,25,25,0,0,1-5.86-.7,23.12,23.12,0,0,1-8.27-4.16l-6.7-5.33-5.27,6.75a22.53,22.53,0,0,1-7.14,5.93,23.63,23.63,0,0,1-9.59,2.67C203.93,244.82,203.4,244.84,202.87,244.84Z"/><path class="cls-5" d="M304.1,61.75a17.81,17.81,0,0,0-2.47-3.9L296.47,52l-1.86-8.18c-1.39-6.1-6.22-11.7-12.62-14.61A23.53,23.53,0,0,0,272.17,27a20.6,20.6,0,0,0-9.39,2.18l-7.51,3.86-3.88-7.5A22.34,22.34,0,0,0,236,14.29a24.66,24.66,0,0,0-5-.51,21.65,21.65,0,0,0-13.66,4.62l-6.68,5.43-5.32-6.76a18.73,18.73,0,0,0-3.16-3.13,24.92,24.92,0,0,0-4-2.58,23.78,23.78,0,0,0-9.88-2.31l-.82,0a24,24,0,0,0-9.34,2,23.76,23.76,0,0,0-4.16,2.47,18,18,0,0,0-3.22,3l-5.55,6.58-6.5-5.65a21.76,21.76,0,0,0-14.35-5.11,24.86,24.86,0,0,0-4.11.34,22.49,22.49,0,0,0-15.81,10.72l-4.17,7.31-7.34-4.11A21.07,21.07,0,0,0,102.56,24a23.62,23.62,0,0,0-8.81,1.72,28.46,28.46,0,0,0-4.81,2.57,27.16,27.16,0,0,0-3.89,3.4,20.6,20.6,0,0,0-4.59,8l-2.24,8-8.08-2.12A19.27,19.27,0,0,0,65.69,45h-.37a25.1,25.1,0,0,0-4.59.44,25.18,25.18,0,0,0-5,1.67A24.68,24.68,0,0,0,47,54a25.82,25.82,0,0,0-2.8,4.5,19.66,19.66,0,0,0-1.93,9.14l.44,8.14-8.12.75a22.24,22.24,0,0,0-2.23.33,19.18,19.18,0,0,0-2.08.65A17.77,17.77,0,0,0,26,79.68l-.13.09a20.31,20.31,0,0,0-4,3.54l-.12.14c-.64.75-1.27,1.54-1.87,2.36s-1,1.67-1.56,2.74a23.76,23.76,0,0,0-2.62,11.31,22.46,22.46,0,0,0,.83,5.15,17.66,17.66,0,0,0,1.92,4.11l4,6.51-6.05,4.66c-4,3.11-8.2,10.14-6.71,19.74.25,1.18.55,2.37.9,3.52l.14.42c.11.36.23.74.28.85.25.58.51,1.16.76,1.65a29.44,29.44,0,0,0,1.57,2.85c.67.93,1.37,1.8,2,2.54l.23.26c.24.26.48.53.63.67.38.34.77.66,1.16,1a25.83,25.83,0,0,0,2.21,1.58A17,17,0,0,0,24,157l5.54,1.22.25-.09c.84-.3,1.65-.63,2.42-1A20.1,20.1,0,0,0,34.14,156a17.23,17.23,0,0,0,3.35-2.82l5.58-6.36,6.37,5.56c4.71,4.12,11.85,5.91,18.65,4.67a23.36,23.36,0,0,0,3.27-.83,22.24,22.24,0,0,0,12.31-9.8l4.38-7.47,7.37,4.53a23,23,0,0,0,18.5,2.29l.78-.24a23.39,23.39,0,0,0,4.77-2.18l6.65-4,4.57,6.28a26.11,26.11,0,0,0,25.57,10.33l5.33-1,3.1,4.43a21.43,21.43,0,0,0,8.81,7.25,21.71,21.71,0,0,0,8.57,1.94,24.27,24.27,0,0,0,7.85-1.13c.51-.17,1-.36,1.49-.56a23.76,23.76,0,0,0,8.28-5.53,22.58,22.58,0,0,0,4.93-7.87l2.89-8.06,8,3a23.31,23.31,0,0,0,9.16,1.37,25.23,25.23,0,0,0,5.78-1.17,22.51,22.51,0,0,0,3.79-1.62,23.74,23.74,0,0,0,7.82-6.7,24.12,24.12,0,0,0,2.46-4.09,22.23,22.23,0,0,0,1.4-4.4l1.67-8.22,8.23,1.59a19.47,19.47,0,0,0,4.45.4,24.49,24.49,0,0,0,4.93-.77l.16,0c.33-.08.66-.17,1-.28a22.42,22.42,0,0,0,3.56-1.58,20.66,20.66,0,0,0,4.39-3l.18-.16c5.51-4.83,8.57-12,7.79-18.16l-1-8,7.92-1.42a16.08,16.08,0,0,0,2-.45h0a21.54,21.54,0,0,0,2.26-.93,26.23,26.23,0,0,0,2.32-1.26,19.44,19.44,0,0,0,1.86-1.46,29,29,0,0,0,2.14-2,23.82,23.82,0,0,0,1.67-2.19A27.13,27.13,0,0,0,303,81.37c.49-1,1-2.08,1.35-3.14.17-.48.34-1,.5-1.42s.24-1,.35-1.49c.22-1,.4-2.11.53-3.15a26.15,26.15,0,0,0-.2-5.62A21.65,21.65,0,0,0,304.1,61.75Z"/><path class="cls-6" d="M358.32,135.23a28.32,28.32,0,0,0-2.66-5.35l-.08-.12-.85-1.27-.07-.11c-.29-.41-.58-.81-.89-1.2a23.54,23.54,0,0,0-2-2.27l-1.84-1.83,1.69-2a20,20,0,0,0,3.06-5.12l.05-.11a22.2,22.2,0,0,0,1.07-3,33,33,0,0,0,.67-3.4A29.35,29.35,0,0,0,354.7,95a32.12,32.12,0,0,0-1.6-3.39l-.06-.1-.17-.32a21.79,21.79,0,0,0-1.65-2.67l-.06-.08c-.73-1-1.53-2-2.32-2.83a19.08,19.08,0,0,0-2.39-2.3A25.36,25.36,0,0,0,341,79.76a26.11,26.11,0,0,0-5.77-1.89l-2.51-.49.28-2.55a26.78,26.78,0,0,0-.06-6.06,25.17,25.17,0,0,0-1.59-6.06.61.61,0,0,0-.05-.12,29.82,29.82,0,0,0-7.84-11.13,32,32,0,0,0-5.66-4l-.12-.07a29.8,29.8,0,0,0-6-2.39,25.65,25.65,0,0,0-6.05-.88h-.08l-.93,0c-.49,0-1.21,0-1.94.08a25.38,25.38,0,0,0-2.92.47l-2.7.58-.61-2.69c-1.78-7.8-7.83-14.9-15.81-18.52a29.21,29.21,0,0,0-12.18-2.69,26.29,26.29,0,0,0-12,2.82L254,25.44,252.7,23A28.06,28.06,0,0,0,233.37,8.72a30.09,30.09,0,0,0-6.11-.62A27.34,27.34,0,0,0,210,14l-2.2,1.79-1.76-2.23A24.24,24.24,0,0,0,202,9.48a30.53,30.53,0,0,0-5-3.18l-.19-.1a29.59,29.59,0,0,0-12.2-2.84h-.89A29.79,29.79,0,0,0,172.14,5.8l-.2.09a30.45,30.45,0,0,0-5.1,3,24.26,24.26,0,0,0-4.22,3.93L160.8,15l-2.14-1.86a27.46,27.46,0,0,0-18.09-6.51,30.84,30.84,0,0,0-5,.43,28.22,28.22,0,0,0-19.81,13.51L114.34,23l-2.42-1.36A26.8,26.8,0,0,0,98.83,18.3a29.09,29.09,0,0,0-10.92,2.14l-.1,0A32.87,32.87,0,0,0,82,23.59a.57.57,0,0,0-.13.08,33.78,33.78,0,0,0-4.7,4.1l-.13.14a26.33,26.33,0,0,0-5.8,10.28l-.74,2.65-2.66-.7a24.87,24.87,0,0,0-5.76-.87h-.5A31.31,31.31,0,0,0,56,39.8l-.14,0a31.78,31.78,0,0,0-6.11,2.05,32.23,32.23,0,0,0-5.84,3.59l-.11.09a33.65,33.65,0,0,0-4.83,4.77l-.12.15a31.76,31.76,0,0,0-3.41,5.46l-.09.18a25.51,25.51,0,0,0-2.43,11.81L33,70.61l-2.67.25a28.63,28.63,0,0,0-2.84.42l-.2,0a25.21,25.21,0,0,0-2.75.85A23.52,23.52,0,0,0,19,75.07l-.07.05a25.83,25.83,0,0,0-5.06,4.51l-.08.1c-.76.87-1.49,1.8-2.18,2.75l-.18.27c-.6.93-1.19,2-1.81,3.16A29.5,29.5,0,0,0,6.3,100a27.82,27.82,0,0,0,1,6.48c0,.05,0,.1,0,.15a23.16,23.16,0,0,0,2.53,5.47l1.32,2.14-2,1.54c-5.26,4-10.73,13-8.85,25.11,0,.1,0,.2,0,.3.28,1.34.63,2.69,1.05,4.06l.12.4c.23.71.33,1,.5,1.43.29.67.59,1.32.89,1.93a32.43,32.43,0,0,0,1.91,3.44l.13.19c.76,1,1.59,2.08,2.42,3l.23.26c.34.38.7.76.91,1a1.29,1.29,0,0,0,.17.16c.46.41.92.8,1.38,1.16a32,32,0,0,0,2.74,1.94,3.54,3.54,0,0,0,.33.19,22.44,22.44,0,0,0,5.84,2.19l2.21.49,0,2.27a23.11,23.11,0,0,0,.79,6.24l.06.22a31,31,0,0,0,1.2,3.14c.22.5.46,1,.71,1.5l.15.28c.27.46.55.9.84,1.35a34.09,34.09,0,0,0,2.18,3,.9.9,0,0,0,.15.18,32.3,32.3,0,0,0,2.58,2.62c.49.45,1,.9,1.49,1.31s.8.6,1.1.81l.41.29c1.05.71,2.15,1.39,3.27,2l.26.14a29.39,29.39,0,0,0,12.86,3.25l.78,0a30.31,30.31,0,0,0,3.18-.23h.12a26.3,26.3,0,0,0,2.9-.64,22.48,22.48,0,0,0,5.43-2.22l2.39-1.41,1.42,2.39c4.06,6.84,11.86,11.82,20.37,13a30.47,30.47,0,0,0,4.15.29,28,28,0,0,0,18.52-6.89l2.13-1.89,1.84,2.18a28.73,28.73,0,0,0,21,10h1.16a29.07,29.07,0,0,0,20.24,41.95,72.49,72.49,0,0,0,40.35,61l20.77,10.12.1.06.08,0a20,20,0,0,1,11.58,18.06,19.3,19.3,0,0,0,19.28,19.28H254a19.3,19.3,0,0,0,19.27-19.28,65.51,65.51,0,0,0-15.08-41.55c1.73.13,3.47.2,5.21.2,1,0,2.05,0,3.08-.07a73.67,73.67,0,0,0,70.75-73.88,5.68,5.68,0,0,0-5.68-5.68h0a5.68,5.68,0,0,0-5.68,5.69A62.55,62.55,0,0,1,236,278.36L229.19,275l-14-6.82A26.74,26.74,0,0,1,201,250.45h.15A29.37,29.37,0,0,0,213,247.11a28.26,28.26,0,0,0,8.92-7.44l1.73-2.22,2.21,1.76a29.18,29.18,0,0,0,10.3,5.19l.2,0a31.35,31.35,0,0,0,7.17.85,29.23,29.23,0,0,0,5.2-.46,29.34,29.34,0,0,0,16.19-8.74l.09-.1a27.28,27.28,0,0,0,3.4-4.71l1.37-2.4,2.41,1.35a25.14,25.14,0,0,0,5.36,2.28,29.36,29.36,0,0,0,6,1h.11a24.72,24.72,0,0,0,6.35-.42,25.92,25.92,0,0,0,6.47-1.92l.1-.05c8.44-3.58,14.89-11,16.44-19l.51-2.6,2.62.37a20.18,20.18,0,0,0,2.91.26h0a27.9,27.9,0,0,0,3.1-.22,28.43,28.43,0,0,0,3.2-.59,23.08,23.08,0,0,0,3-1l.08,0a35.05,35.05,0,0,0,3.17-1.5l.1-.06a27.42,27.42,0,0,0,2.87-1.94l.09-.07a30.63,30.63,0,0,0,2.76-2.32.47.47,0,0,1,.1-.1c.91-.94,1.78-1.94,2.6-3,.37-.46.73-.92,1.07-1.39a3.62,3.62,0,0,0,.22-.32c.31-.49.62-1,.91-1.49.62-1.06,1.2-2.16,1.72-3.27,0-.09.09-.19.13-.3a31.37,31.37,0,0,0,1.9-6.6,2.51,2.51,0,0,0,0-.27,26.6,26.6,0,0,0,.1-6.47,23.46,23.46,0,0,0-1.54-5.9l-1-2.36,2.27-1.2a25.72,25.72,0,0,0,4.91-3.41l.17-.16a28.63,28.63,0,0,0,4.09-4.84,29.91,29.91,0,0,0,4.63-12.93v-.09A28.89,28.89,0,0,0,358.32,135.23ZM231,288.59a54.58,54.58,0,0,1,30.89,48.79,7.92,7.92,0,0,1-7.91,7.9h-6.93a7.92,7.92,0,0,1-7.9-7.9,31.32,31.32,0,0,0-18-28.31l-20.9-10.19a61.05,61.05,0,0,1-34-50.83c.45-.09.89-.18,1.33-.29a5.68,5.68,0,0,0-2.78-11,17.72,17.72,0,0,1-19.45-26.47A31.86,31.86,0,0,0,170,229l1.76.25.52,1.7a27.09,27.09,0,0,0,7.72,12.2,27.39,27.39,0,0,0,9.23,5.58,37.93,37.93,0,0,0,3.07,11.08,38.45,38.45,0,0,0,9.18,12.67,37.41,37.41,0,0,0,8.79,6l14,6.82,6.81,3.32h0ZM348.49,147.07l0,.18a18.43,18.43,0,0,1-2.84,7.92,17.46,17.46,0,0,1-2.36,2.78,14,14,0,0,1-2.61,1.81l-5.71,3a4.19,4.19,0,0,0-.5,0h-9.86a12,12,0,0,1-11.94-11.94,23.34,23.34,0,0,0-23.31-23.31h-.83a23.34,23.34,0,0,0-23.31,23.31,10.6,10.6,0,0,1-10.58,10.59,12,12,0,0,1-12-11.94v-5a5.68,5.68,0,1,0-11.36,0v5a23.33,23.33,0,0,0,23.31,23.31,22,22,0,0,0,21.95-22,12,12,0,0,1,11.94-11.94h.83a12,12,0,0,1,11.94,11.94,23.33,23.33,0,0,0,23.31,23.31h8.08l1.6,3.72a13.28,13.28,0,0,1,.73,3,16.06,16.06,0,0,1-.13,3.43,19.61,19.61,0,0,1-1.15,3.92c-.36.75-.75,1.5-1.18,2.24l-.58.95-.65.84c-.59.73-1.22,1.44-1.87,2.12-.39.37-1.1.93-1.65,1.35s-1.19.88-1.58,1.11c-.7.37-1.4.7-2,1-.41.16-1.18.47-1.41.53a18.85,18.85,0,0,1-2,.37,15.89,15.89,0,0,1-1.73.13,12.56,12.56,0,0,1-1.25-.15l-8-1.12a5.68,5.68,0,0,0-6.37,4.54L301.89,210c-.84,4.27-4.75,8.56-9.8,10.71l-.21.09-.08,0a15.34,15.34,0,0,1-3.73,1.07,16.69,16.69,0,0,1-2.89.31l-.61,0-.22,0a18.15,18.15,0,0,1-3.74-.61,13.55,13.55,0,0,1-2.88-1.26l-7.33-4.08a5.69,5.69,0,0,0-7.7,2.15l-4.15,7.29a16.16,16.16,0,0,1-2,2.72,18,18,0,0,1-2.73,2.34,18.22,18.22,0,0,1-7.21,2.94,19,19,0,0,1-7.54-.25,17.61,17.61,0,0,1-6.14-3.1l-3.82-3a5.44,5.44,0,0,0,0-.57v-.83a23.33,23.33,0,0,0-23.31-23.31A10.6,10.6,0,0,1,195.28,192,12,12,0,0,1,207.22,180h5a5.69,5.69,0,0,0,0-11.37h-5A23.34,23.34,0,0,0,183.91,192a22,22,0,0,0,22,22,12,12,0,0,1,11.94,11.94v.61l-4.83,6.2a17,17,0,0,1-5.39,4.44,18.3,18.3,0,0,1-7.3,2,17.93,17.93,0,0,1-7.13-1,16.05,16.05,0,0,1-5.54-3.34,15.71,15.71,0,0,1-4.49-7.08l-1.57-5.18a5.69,5.69,0,0,0-4.64-4l-5.35-.76a20.42,20.42,0,0,1-16.46-13.91l-2.37-7.39a5.68,5.68,0,0,0-5.41-3.95,6,6,0,0,0-1.26.14l-7.58,1.72a18,18,0,0,1-4.57.43,17.33,17.33,0,0,1-12.71-5.94l-5.59-6.61a5.67,5.67,0,0,0-8.1-.6L101,187.36a16.88,16.88,0,0,1-13.58,3.87c-5.09-.71-9.86-3.66-12.15-7.53L71,176.42a5.67,5.67,0,0,0-7.78-2l-7.28,4.3a11.69,11.69,0,0,1-2.66,1,14.38,14.38,0,0,1-1.47.34c-.64.08-1.31.12-2,.14h-.46a17.88,17.88,0,0,1-7.68-2c-.8-.45-1.57-.93-2.26-1.41l-.44-.3-.26-.17c-.32-.28-.7-.6-1-.91-.75-.7-1.27-1.21-1.66-1.65-.52-.66-1-1.34-1.44-2-.15-.24-.31-.47-.45-.72s-.27-.55-.39-.83a19.68,19.68,0,0,1-.72-1.86,11.9,11.9,0,0,1-.36-3l.07-6.88a5.7,5.7,0,0,0-4.47-5.61l-6.72-1.48a10.83,10.83,0,0,1-2.73-1,18.52,18.52,0,0,1-1.54-1.11c-.26-.21-.52-.42-.78-.65l-.32-.35-.19-.21c-.52-.59-1.07-1.28-1.59-2A24.16,24.16,0,0,1,13.17,144c-.19-.38-.39-.81-.57-1.21,0-.13-.1-.31-.15-.49l-.12-.37c-.29-.94-.54-1.91-.75-2.88-1.12-7.56,2.34-12.49,4.58-14.21l6.06-4.67a5.68,5.68,0,0,0,1.37-7.49l-4-6.5a12.36,12.36,0,0,1-1.3-2.7,17.17,17.17,0,0,1-.61-3.69,18.24,18.24,0,0,1,2-8.59c.43-.83.83-1.54,1.21-2.14s1-1.26,1.51-1.89l.15-.19a15.76,15.76,0,0,1,3-2.56l.16-.11a12.36,12.36,0,0,1,2.88-1.43,13.92,13.92,0,0,1,1.36-.44c.51-.1,1-.17,1.5-.22l8.12-.75a5.67,5.67,0,0,0,5.15-6l-.43-8.14a14,14,0,0,1,1.37-6.38,21.21,21.21,0,0,1,2.09-3.37,22.21,22.21,0,0,1,3-3,22,22,0,0,1,3.63-2.28A19.93,19.93,0,0,1,58.12,51a18.09,18.09,0,0,1,3.42-.34h.33a13.29,13.29,0,0,1,3.09.49l7.92,2.09A12,12,0,0,1,72.82,70a23.3,23.3,0,0,0,0,33l.58.59a23.33,23.33,0,0,0,33,0,10.58,10.58,0,0,1,15,0,11.94,11.94,0,0,1,0,16.88L117.82,124a5.69,5.69,0,0,0,8,8l3.51-3.52a23.33,23.33,0,0,0,0-33,22,22,0,0,0-31,0,11.94,11.94,0,0,1-16.89,0L80.85,95a12,12,0,0,1,0-16.88,23.34,23.34,0,0,0,.22-32.75l1.13-4.08a15.13,15.13,0,0,1,3.31-5.74,21.76,21.76,0,0,1,3-2.57,22.81,22.81,0,0,1,3.71-2,17.93,17.93,0,0,1,6.65-1.3,15.42,15.42,0,0,1,7.53,1.87l7.34,4.11a5.69,5.69,0,0,0,7.72-2.14l4.16-7.32a16.79,16.79,0,0,1,11.82-7.92,18.85,18.85,0,0,1,3.17-.27,16.15,16.15,0,0,1,10.62,3.72l4.49,3.91s0,.07,0,.11v17.6A23.34,23.34,0,0,0,179,66.64a12,12,0,0,1,11.94,11.94v.83A12,12,0,0,1,179,91.35a22,22,0,0,0-21.95,22,23.33,23.33,0,0,0,23.31,23.31h5a5.69,5.69,0,0,0,0-11.37h-5A12,12,0,0,1,168.4,113.3,10.6,10.6,0,0,1,179,102.72a23.34,23.34,0,0,0,23.31-23.31v-.83A23.34,23.34,0,0,0,179,55.27,12,12,0,0,1,167,43.33V25.73c0-.16,0-.32,0-.47l4.29-5.1a12.48,12.48,0,0,1,2.25-2.08,19.44,19.44,0,0,1,3.09-1.85,18.44,18.44,0,0,1,7-1.51h.81a16.61,16.61,0,0,1,10.45,3.7,12.76,12.76,0,0,1,2.19,2.15l5.32,6.77a5.68,5.68,0,0,0,8.05.89l6.68-5.42a16.8,16.8,0,0,1,13.91-3,16.63,16.63,0,0,1,11.52,8.34l3.88,7.49a5.68,5.68,0,0,0,7.64,2.44l7.51-3.85a14.9,14.9,0,0,1,6.8-1.56,18,18,0,0,1,7.47,1.66c4.74,2.16,8.44,6.36,9.42,10.7l.69,3a23,23,0,0,0-9.93,8.48,24,24,0,0,0-3.6,17.59A10.58,10.58,0,0,1,264,86.46a11.94,11.94,0,0,1-13.89-9.6L249.19,72A5.68,5.68,0,0,0,238,74l.89,4.89A23.29,23.29,0,0,0,266,97.65a22,22,0,0,0,17.66-25.54,12.87,12.87,0,0,1,1.92-9.3,11.46,11.46,0,0,1,7.53-5.11l.23-.05c.2,0,.39-.06.59-.1l8.2-1.78c.54-.11,1.11-.2,1.62-.26.19,0,.79,0,1.39,0a14.89,14.89,0,0,1,3.32.44,19,19,0,0,1,3.73,1.43,21.19,21.19,0,0,1,3.63,2.52,18.66,18.66,0,0,1,4.89,6.81,13.76,13.76,0,0,1,1,6.88l-.86,7.75a5.69,5.69,0,0,0,4.56,6.2L333.05,89a14.48,14.48,0,0,1,3.28,1.09,15.22,15.22,0,0,1,3.06,2.08,8.61,8.61,0,0,1,1,1c.59.65,1.13,1.32,1.69,2.06l.08.11c.14.2.52.88.77,1.33l.14.25c.37.71.79,1.51,1,2.06a18.25,18.25,0,0,1,1.15,8.85c-.12.81-.27,1.55-.45,2.29-.08.27-.38,1-.51,1.3a10.12,10.12,0,0,1-1.27,2.28l-5.14,6a5.68,5.68,0,0,0,.31,7.73l5.6,5.56a13.94,13.94,0,0,1,1.06,1.2c.17.21.33.43.49.66l.77,1.15a17,17,0,0,1,1.54,3.08A17.34,17.34,0,0,1,348.49,147.07Z"/></svg>