<svg id="Layer_1" data-name="Layer 1" xmlns="http://www.w3.org/2000/svg" viewBox="0 0 360 360"><defs><style>.cls-1{fill:#f28f9d;}.cls-2{fill:#ef7385;}.cls-3{fill:#f5b97d;}.cls-4{fill:#eabd8c;}.cls-5{fill:#b88b5e;}.cls-6{fill:#f7c797;}.cls-7{fill:#0f2040;}</style></defs><title>OB</title><path class="cls-1" d="M214.84,40.65V5.81H145.16V40.65a63.88,63.88,0,0,1-63.87,63.87h0A75.48,75.48,0,0,0,5.81,180h0A174.18,174.18,0,0,0,180,354.19h0A174.18,174.18,0,0,0,354.19,180h0a75.48,75.48,0,0,0-75.48-75.48h0A63.88,63.88,0,0,1,214.84,40.65Z"/><path class="cls-2" d="M180,336.77c-92.66,0-168.39-72.36-173.85-163.64-.2,2.27-.34,4.55-.34,6.87a174.19,174.19,0,0,0,348.38,0c0-2.32-.14-4.6-.34-6.87C348.39,264.41,272.66,336.77,180,336.77Z"/><path class="cls-3" d="M238.39,254a52.26,52.26,0,1,0,0-78.33,14.11,14.11,0,0,0-6.13-1.48c-9.27,0-17.26,9.5-21,23.23l-7.13,8.72,9.08,10Z"/><path class="cls-4" d="M69.68,226.45v17.42a5.81,5.81,0,0,0,5.8,5.81H87.1a140.36,140.36,0,0,0,42.62,37.63l15.44,8.82-3.72-2.26a52.29,52.29,0,0,1-25.15-44.35h0a23.23,23.23,0,0,0-23.23-23.07Z"/><path class="cls-3" d="M228,232.26l-3.21-5a27.55,27.55,0,0,1-11.88-18.37h0a27.63,27.63,0,0,0-27.25-23.07h0a27.64,27.64,0,0,0-19.53,8.08l-10.92,10.83L155,205l-.18.16c.21.43.61.71.84,1.13A27.91,27.91,0,0,0,180,220.65h3.55c-12.68,0-24.69-6.87-30.16-18.31A29.06,29.06,0,0,0,117,187.66L75.48,203.23l-9.36-14.06a7.57,7.57,0,0,0-13.86,4.2v21.47a11.61,11.61,0,0,0,11.61,11.61H92a25.47,25.47,0,0,1,18.8,8.29,22,22,0,0,1,5.37,14.94h0c0,28.48,22.83,52,51.32,52.25A125.81,125.81,0,0,0,233.1,284l28.19-16.91,9.48-5.81L238.39,254Z"/><path class="cls-5" d="M154.87,205h0a37.33,37.33,0,0,0,30.37,15.63H218.3l-8.77-21.09-.5-.69a27.56,27.56,0,0,0-42.93-5Z"/><path class="cls-6" d="M185.81,185.81l-1.68-2.52a59.14,59.14,0,0,1-9.94-32.81h0a82.37,82.37,0,0,1,6.68-32.5l4.07-9.52A82.46,82.46,0,0,0,191.61,76V5.81H168.39V73.43a82.56,82.56,0,0,1-8.71,36.89h0a82.5,82.5,0,0,0-8.71,36.9h0A110,110,0,0,0,158.83,188l3.75,9.38Z"/><path class="cls-7" d="M278.71,98.71a58.12,58.12,0,0,1-58.06-58.06V0h-81.3V40.65A58.12,58.12,0,0,1,81.29,98.71,81.37,81.37,0,0,0,0,180c0,99.26,80.74,180,180,180s180-80.74,180-180A81.37,81.37,0,0,0,278.71,98.71ZM180,348.39C87.15,348.39,11.61,272.85,11.61,180a69.76,69.76,0,0,1,69.68-69.68A69.75,69.75,0,0,0,151,40.65v-29h11.61V23.23h11.61V11.61h11.62V76a76.32,76.32,0,0,1-6.2,30.21l-4.08,9.52a87.72,87.72,0,0,0-7.14,34.78,64.54,64.54,0,0,0,7.91,31,32.87,32.87,0,0,0-11.45,6l-.62-1.56a103.56,103.56,0,0,1-7.46-38.67,77,77,0,0,1,8.1-34.3,88.76,88.76,0,0,0,9.32-39.49V34.84H162.58V73.43a77.05,77.05,0,0,1-8.1,34.3,88.83,88.83,0,0,0-9.32,39.49,115.05,115.05,0,0,0,8.28,43l1.42,3.54A34.76,34.76,0,0,0,115,182.22l-37.2,13.95L71,186a13.37,13.37,0,0,0-24.5,7.41v21.47a17.45,17.45,0,0,0,17.42,17.42v11.61a11.62,11.62,0,0,0,11.61,11.61h8.75a145.16,145.16,0,0,0,42.61,36.87l7.63,4.35a57.68,57.68,0,0,0,33.92,11A131.57,131.57,0,0,0,236.08,289l28-16.81a58,58,0,1,0-26.86-103.11,18.63,18.63,0,0,0-5-.68c-10,0-18.75,7.59-24.09,20.42a33.15,33.15,0,0,0-19-8.5l-.17-.25a53,53,0,0,1-9-29.58,76.15,76.15,0,0,1,6.2-30.21l4.08-9.52A87.72,87.72,0,0,0,197.42,76V11.61H209v29a69.75,69.75,0,0,0,69.68,69.67A69.76,69.76,0,0,1,348.39,180C348.39,272.85,272.85,348.39,180,348.39Zm27.15-138.54a33.45,33.45,0,0,0,14.39,22.24l7.5,5,6.44-9.66-7.5-5a21.78,21.78,0,0,1-9.37-14.5,33.87,33.87,0,0,0-2.09-7.08l.35-1.91C220,187.61,226.13,180,232.26,180a8.37,8.37,0,0,1,3.62.91l3.47,1.66,2.88-2.55a46.46,46.46,0,1,1,0,69.63l-7.68,8.71A58.49,58.49,0,0,0,249,267.68L230.11,279a120.05,120.05,0,0,1-61.72,17.1,46.5,46.5,0,0,1-46.45-46.45,17.43,17.43,0,0,1,5.89-13.07l-7.67-8.71a29,29,0,0,0-4,4.33A31.23,31.23,0,0,0,92,220.65H63.87a5.82,5.82,0,0,1-5.81-5.81V193.37a1.83,1.83,0,0,1,3.23-1l11.92,17.88L119,193.09a23.24,23.24,0,0,1,29,11.38,39.57,39.57,0,0,0,35.58,22h8V214.84h-8a27.94,27.94,0,0,1-20.9-9.3L170.2,198a21.81,21.81,0,0,1,37,11.84ZM75.48,232.26H92a19.64,19.64,0,0,1,18.66,13.45h0a29.11,29.11,0,0,0-.31,4A57.85,57.85,0,0,0,113.71,269a134,134,0,0,1-22-22.85L90,243.87H75.48Z"/><rect class="cls-7" x="261.29" y="290.32" width="11.61" height="11.61"/><rect class="cls-7" x="307.74" y="145.16" width="11.61" height="11.61"/><rect class="cls-7" x="214.84" y="127.74" width="11.61" height="11.61"/><rect class="cls-7" x="104.52" y="156.77" width="11.61" height="11.61"/><rect class="cls-7" x="69.68" y="272.9" width="11.61" height="11.61"/><rect class="cls-7" x="174.19" y="325.16" width="11.61" height="11.61"/><rect class="cls-7" x="34.84" y="145.16" width="11.61" height="11.61"/></svg>