<svg id="Layer_1" data-name="Layer 1" xmlns="http://www.w3.org/2000/svg" viewBox="0 0 360 360"><defs><style>.cls-1{fill:#e6e6e6;}.cls-2{fill:#999;}.cls-3{fill:#1a1a1a;}.cls-3,.cls-7{opacity:0.1;}.cls-3,.cls-6{isolation:isolate;}.cls-4{fill:#4d4d4d;}.cls-5{fill:#fff;}.cls-6{opacity:0.15;}.cls-8{fill:#0f2040;}</style></defs><title>Opthalmic</title><path class="cls-1" d="M180,91.58c76.74,0,140.52,47.33,170.35,77.65a15.34,15.34,0,0,1,0,21.54c-29.83,30.32-93.61,77.65-170.35,77.65S39.48,221.09,9.65,190.77a15.34,15.34,0,0,1,0-21.54C39.48,138.91,103.26,91.58,180,91.58Z"/><circle class="cls-2" cx="180" cy="180" r="88.42"/><path class="cls-3" d="M134.25,104.32A88.42,88.42,0,1,0,235.65,248.7C101.25,281.33,91.58,152.37,134.25,104.32Z"/><circle class="cls-4" cx="180" cy="180" r="43.32"/><circle class="cls-5" cx="222.47" cy="156.83" r="20.46"/><path class="cls-6" d="M12.76,166.13C42.44,147.8,108.7,109.67,180,109.67s137.56,38.13,167.24,56.46c-31-30.34-93.07-74.55-167.24-74.55S43.77,135.79,12.76,166.13Z"/><g class="cls-7"><path d="M234.43,229.54a5.24,5.24,0,0,1-3.33-1.18l-6.25-5.08a5.28,5.28,0,0,1,6.66-8.19l6.25,5.09a5.27,5.27,0,0,1-3.33,9.36Z"/><path d="M247.11,205.74a5.47,5.47,0,0,1-1.54-.23l-7.7-2.35a5.27,5.27,0,1,1,3.07-10.09l7.71,2.35a5.28,5.28,0,0,1-1.54,10.32Z"/><path d="M173.55,255.13a4,4,0,0,1-.49,0,5.27,5.27,0,0,1-4.77-5.74l.74-8a5.28,5.28,0,0,1,10.51,1l-.75,8A5.27,5.27,0,0,1,173.55,255.13Z"/><path d="M112,202.7a5.28,5.28,0,0,1-1.31-10.39l7.8-2a5.28,5.28,0,1,1,2.62,10.22l-7.8,2A5,5,0,0,1,112,202.7Z"/><path d="M146.93,132.71a5.26,5.26,0,0,1-4.47-2.47l-4.29-6.81a5.28,5.28,0,1,1,8.93-5.62l4.29,6.82a5.28,5.28,0,0,1-4.46,8.08Z"/><path d="M208.75,130.23a5.27,5.27,0,0,1-4.67-7.72l3.73-7.14a5.27,5.27,0,0,1,9.35,4.88l-3.73,7.14A5.27,5.27,0,0,1,208.75,130.23Z"/></g><path class="cls-8" d="M354.11,165.53c-1.75-1.78-3.59-3.59-5.47-5.38a5.27,5.27,0,0,0-7.28,7.63c1.8,1.71,3.56,3.45,5.23,5.15a10.12,10.12,0,0,1,0,14.14,280.28,280.28,0,0,1-66.31,49.24,240.57,240.57,0,0,1-43.53,18.19,93.58,93.58,0,0,0,.13-148.9c38.09,11.59,68.52,32.21,86.21,46.3a5.28,5.28,0,1,0,6.57-8.26C302.76,122.23,247.53,86.31,180,86.31c-34.94,0-70.35,9.44-105.25,28.07A291.45,291.45,0,0,0,5.89,165.53a20.73,20.73,0,0,0,0,28.94,281.19,281.19,0,0,0,33.48,28.8,5.21,5.21,0,0,0,3.12,1,5.27,5.27,0,0,0,3.13-9.52,270.21,270.21,0,0,1-32.21-27.71,10.12,10.12,0,0,1,0-14.14,280.28,280.28,0,0,1,66.31-49.24,240.57,240.57,0,0,1,43.53-18.19,93.58,93.58,0,0,0-.17,148.87,247.78,247.78,0,0,1-57.33-26.06,5.27,5.27,0,1,0-5.51,9c38.87,23.81,80.29,36.39,119.76,36.39,34.94,0,70.35-9.44,105.25-28.07a291.45,291.45,0,0,0,68.86-51.15A20.73,20.73,0,0,0,354.11,165.53ZM96.85,180A83.15,83.15,0,1,1,180,263.14,83.24,83.24,0,0,1,96.85,180ZM248.2,156.83a25.72,25.72,0,0,0-43.45-18.64A48.09,48.09,0,0,0,180,131.41a48.59,48.59,0,1,0,48.55,50.41A25.77,25.77,0,0,0,248.2,156.83ZM180,218a38,38,0,1,1,18.74-71.16A25.73,25.73,0,0,0,218,182.16,38.09,38.09,0,0,1,180,218Zm42.47-46a15.18,15.18,0,1,1,15.18-15.18A15.2,15.2,0,0,1,222.47,172Z"/></svg>