<svg id="Layer_1" data-name="Layer 1" xmlns="http://www.w3.org/2000/svg" viewBox="0 0 360 360"><defs><style>.cls-1{fill:#f5b97d;}.cls-2{fill:#b88b5e;}.cls-3{fill:#b35664;}.cls-4{fill:#adadad;}.cls-5{fill:#e6e6e6;}.cls-6{fill:#0f2040;}</style></defs><title>Orthopedic</title><circle class="cls-1" cx="180" cy="177.85" r="172.05"/><circle class="cls-2" cx="180" cy="177.85" r="139.19"/><path class="cls-3" d="M180,278.38A100.53,100.53,0,1,1,280.53,177.85,100.65,100.65,0,0,1,180,278.38Z"/><path class="cls-4" d="M210.09,238.93A30.93,30.93,0,1,0,186,183.1a3.78,3.78,0,0,1-4.2,0,30.93,30.93,0,1,0-24.12,55.83,3.88,3.88,0,0,1,3,3.77V347.27a7.74,7.74,0,0,0,7,7.71q8,.72,16.16.73T200,355a7.74,7.74,0,0,0,7-7.71V242.7A3.88,3.88,0,0,1,210.09,238.93Z"/><path class="cls-5" d="M201.67,177.94a30.81,30.81,0,0,0-19.57,5.16,3.78,3.78,0,0,1-4.2,0,30.93,30.93,0,0,0-46.91,17,61.82,61.82,0,0,0,98,0A31.07,31.07,0,0,0,201.67,177.94Z"/><path class="cls-5" d="M155.36,239.72a3.8,3.8,0,0,1,1.44,3V347.27a7.75,7.75,0,0,0,7,7.71q8,.72,16.16.73V264.35a24.63,24.63,0,0,0-24.64-24.63Z"/><path class="cls-5" d="M203.94,124.35a30.93,30.93,0,1,0-22.42,56.54,3.78,3.78,0,0,1,3,3A30.93,30.93,0,1,0,241,161.43a3.87,3.87,0,0,1,.53-4.8l78-78a7.75,7.75,0,0,0,.62-10.25A178.86,178.86,0,0,0,298,44.82a7.73,7.73,0,0,0-10.6.32l-78.69,78.68A3.87,3.87,0,0,1,203.94,124.35Z"/><path class="cls-4" d="M243.19,177.93a30.94,30.94,0,0,1-50.76-17.27,3.76,3.76,0,0,0-3-3,30.86,30.86,0,0,1-24.83-28c-.13.14-.26.27-.38.41a30.93,30.93,0,0,0,17.27,50.76,3.78,3.78,0,0,1,3,3,30.92,30.92,0,0,0,61.17-8.37A31.75,31.75,0,0,1,243.19,177.93Z"/><path class="cls-4" d="M240.6,160.49a3.85,3.85,0,0,1,1-3.86l78-78a7.76,7.76,0,0,0,.6-10.27q-5.47-7-11.62-13.4l-84.36,84.36a5.8,5.8,0,0,0,2.06,9.5A31,31,0,0,1,240.6,160.49Z"/><path class="cls-6" d="M327.67,78.71l.73-.73a5.8,5.8,0,0,0-8.2-8.2l-82.75,82.75a9.63,9.63,0,0,0-1.34,12,25,25,0,0,1-4.7,32.25,24.65,24.65,0,0,1-4.16,3l-.24.14a25.13,25.13,0,0,1-36.83-17.13,9.54,9.54,0,0,0-7.55-7.55,24.91,24.91,0,0,1-14.21-8.28c-7.68-8.89-7.52-24.37.34-33.12a25.07,25.07,0,0,1,32.09-4.53,9.63,9.63,0,0,0,12-1.34l83.74-83.73a5.8,5.8,0,1,0-8.2-8.2l-.48.48A177.86,177.86,0,1,0,151,353.34v.86a5.8,5.8,0,1,0,11.6,0v-4.52c0-.18.07-.35.1-.54a5.79,5.79,0,0,0-.1-2V242.7a9.62,9.62,0,0,0-7.53-9.42,25.13,25.13,0,1,1,19.59-45.37,5.77,5.77,0,0,0,5,.7A36.74,36.74,0,0,0,224,213.42a25,25,0,0,1-19.1,19.86,9.62,9.62,0,0,0-7.53,9.42V354.2a5.8,5.8,0,0,0,11.6,0v-.86A177.89,177.89,0,0,0,327.67,78.71ZM124,206.42a36.6,36.6,0,0,0,27,37.8v97.36C72.29,327.73,13.75,258.52,13.75,177.85,13.75,86.18,88.33,11.6,180,11.6a166.68,166.68,0,0,1,99.62,33.15l-73.91,73.9A36.65,36.65,0,0,0,160.13,126c-11,12.29-11.85,32.73-2.31,46.12A36.82,36.82,0,0,0,124,206.42Zm85,135.16V244.22a36.58,36.58,0,0,0,27.05-36.36,35.68,35.68,0,0,0,3-2.39,36.58,36.58,0,0,0,7.64-45.81l72.59-72.58a165.05,165.05,0,0,1,26.94,90.77C346.25,258.5,287.7,327.73,209,341.58Z"/></svg>