<svg id="Layer_1" data-name="Layer 1" xmlns="http://www.w3.org/2000/svg" viewBox="0 0 360 360"><defs><style>.cls-1{fill:#f5d7b7;}.cls-10,.cls-2{opacity:0.1;}.cls-2,.cls-6,.cls-8{isolation:isolate;}.cls-3{fill:#bf8d80;}.cls-4{fill:#f9d5b1;}.cls-5{fill:#f28b74;}.cls-6{fill:#b88b5e;opacity:0.41;}.cls-7{fill:#76b7eb;}.cls-8{fill:#ffbcab;}.cls-9{fill:#ffc9bc;}.cls-11{fill:#805e56;}.cls-12{fill:#0f2040;}</style></defs><title>Pediatrics</title><circle class="cls-1" cx="185.74" cy="40.86" r="35.59"/><circle class="cls-2" cx="185.74" cy="40.86" r="35.59"/><circle class="cls-1" cx="319.14" cy="174.25" r="35.59"/><circle class="cls-2" cx="319.14" cy="174.25" r="35.59"/><circle class="cls-3" cx="73.87" cy="286.13" r="68.56"/><path class="cls-2" d="M122.36,334.61A68.57,68.57,0,1,0,6.2,275.17c5.58,4,13.38,7.82,24,11.91,8.93,3.45,19.84,7,32.18,10.59,3.55,12.34,7.14,23.25,10.59,32.18,4.09,10.57,7.94,18.37,11.91,23.95A68.26,68.26,0,0,0,122.36,334.61Z"/><ellipse class="cls-4" cx="250.02" cy="109.97" rx="105.09" ry="102.79" transform="translate(-4.53 209) rotate(-45)"/><ellipse class="cls-5" cx="205.9" cy="73.93" rx="16.66" ry="20.91" transform="translate(8.03 167.25) rotate(-45)"/><ellipse class="cls-5" cx="286.08" cy="154.09" rx="16.66" ry="20.91" transform="translate(-25.17 247.42) rotate(-45)"/><path class="cls-6" d="M222.11,10.48a106.29,106.29,0,0,0-44.76,26.81c-41,41-41.77,106.85-1.63,147C199,207.55,230.9,217.08,261.6,213,196.09,191.23,176,81.85,222.11,10.48Z"/><path class="cls-7" d="M94.15,156c41.85.5,136.42,10.47,190.87,38.89a18.93,18.93,0,0,1,9,23.46c-8.54,22.75-31.07,56.37-51.7,76.59A52,52,0,0,1,203,309.67C145.42,306.4,18.45,277.17,9.2,258.23-.2,239,29.32,189.48,64.6,165A50.7,50.7,0,0,1,94.15,156Z"/><path class="cls-8" d="M94.15,156c41.85.5,136.42,10.47,190.87,38.89a18.93,18.93,0,0,1,9,23.46c-8.54,22.75-31.07,56.37-51.7,76.59A52,52,0,0,1,203,309.67C145.42,306.4,18.45,277.17,9.2,258.23-.2,239,29.32,189.48,64.6,165A50.7,50.7,0,0,1,94.15,156Z"/><path class="cls-2" d="M64.6,165a148.55,148.55,0,0,0-25.43,22.85,837.51,837.51,0,0,0,17.2,87.69q.77,3,1.54,6c44.29,13.56,107.83,25.92,144.32,28.11q2.36-3,4.5-6.1a64.49,64.49,0,0,0,11.5-37.85c-.22-18.2-2.62-55.76-9.7-96.14-43.69-9.39-88.85-13.22-114.38-13.53A50.7,50.7,0,0,0,64.6,165Z"/><path class="cls-9" d="M204,265.85C203.49,224,193.53,129.42,165.11,75a18.93,18.93,0,0,0-23.46-9c-22.75,8.53-56.37,31.07-76.59,51.7A52,52,0,0,0,50.33,157c3.27,57.54,32.5,184.51,51.44,193.76,19.24,9.39,68.74-20.12,93.27-55.4A50.72,50.72,0,0,0,204,265.85Z"/><g class="cls-10"><path class="cls-11" d="M84,225.67a5.28,5.28,0,0,1-5.16-4.24c-.44-2.18-2.48-15.54-2.48-18.12a5.28,5.28,0,0,1,10.55,0c.06,1.7,1.76,13.52,2.27,16.08a5.27,5.27,0,0,1-4.14,6.2A4.6,4.6,0,0,1,84,225.67Zm2.91-22.36h0Z"/><path class="cls-11" d="M139.71,132.66a5.51,5.51,0,0,1-1.68-.27,5.29,5.29,0,0,1-3.32-6.69c.37-1.13,1.39-3.28,3.68-8,.63-1.29,1.23-2.51,1.45-3a5.27,5.27,0,1,1,9.6,4.35c-.28.61-.85,1.78-1.57,3.26-1,2-2.86,5.85-3.17,6.71A5.26,5.26,0,0,1,139.71,132.66Z"/><path class="cls-11" d="M163.53,232.38a5.32,5.32,0,0,1-2.65-.71c-2.5-1.45-9.48-5.45-11.74-6.48a5.27,5.27,0,1,1,4.37-9.59c3.14,1.43,11.7,6.39,12.67,7a5.27,5.27,0,0,1-2.65,9.83Z"/><path class="cls-11" d="M128.45,318.21a5.27,5.27,0,0,1-5.27-5.27c0-2.81-.73-13.44-1.09-18.54-.11-1.65-.2-2.9-.23-3.44a5.27,5.27,0,1,1,10.53-.63c0,.53.11,1.74.22,3.34.54,7.78,1.12,16.34,1.12,19.27A5.27,5.27,0,0,1,128.45,318.21Z"/><path class="cls-11" d="M229.55,229a5.28,5.28,0,0,1-1.75-10.25c1.94-.69,6.54-3.44,9.58-5.26,4.47-2.68,6-3.54,7.44-3.84a5.27,5.27,0,0,1,2.61,10.2c-.77.37-3,1.7-4.63,2.68-4,2.41-8.55,5.13-11.5,6.17A5.37,5.37,0,0,1,229.55,229Zm17.35-9h0Z"/></g><path class="cls-12" d="M290.27,117.43a15.1,15.1,0,0,0-10.77,4.46,5.27,5.27,0,1,0,7.45,7.45,4.69,4.69,0,0,1,6.63,6.63,5.27,5.27,0,1,0,7.45,7.45,15.23,15.23,0,0,0-10.76-26ZM238.11,59a15.26,15.26,0,0,0-21.54,0A5.28,5.28,0,0,0,224,66.42,4.68,4.68,0,0,1,230.65,73a5.28,5.28,0,0,0,7.46,7.46A15.25,15.25,0,0,0,238.11,59Zm113.13,90a110.41,110.41,0,0,0,8-40.12,106.28,106.28,0,0,0-27.53-73.11,46.81,46.81,0,0,1,19-10.91,5.27,5.27,0,0,0-2.94-10.12,57.12,57.12,0,0,0-23.53,13.57A106.39,106.39,0,0,0,251.12.76a110.61,110.61,0,0,0-40.12,8A40.6,40.6,0,0,0,185.74,0h-.61a40.88,40.88,0,0,0-35.74,59.55,24.23,24.23,0,0,0-9.59,1.52c-23.6,8.86-58.08,32.11-78.51,53a57.29,57.29,0,0,0-16.22,43.32c.26,4.72.71,10,1.32,15.6a172.21,172.21,0,0,0-34.57,44.73C6.36,228.13-1.86,247.6,4.46,260.54c0,0,0,.1.08.16A73.81,73.81,0,0,0,99.3,355.46l.16.08a24.84,24.84,0,0,0,11,2.25c10.42,0,23.87-4.59,38.69-13.4A175.41,175.41,0,0,0,187,313.62c5.67.6,10.92,1.05,15.63,1.32,1.09.06,2.17.09,3.25.09A57.32,57.32,0,0,0,246,298.71c11.94-11.71,25-28.31,35.88-45.56a5.27,5.27,0,0,0-8.92-5.62C262.5,264.11,250,280,238.6,291.18a46.78,46.78,0,0,1-35.34,13.23c-2.47-.14-5.11-.34-7.89-.58,1.4-1.8,2.74-3.61,4-5.42a55.61,55.61,0,0,0,9.9-32.62c-.24-20.1-2.75-54.7-9.05-91.54-.06-.36-.13-.73-.19-1.09,34,6.81,62.4,15.89,82.55,26.41a13.69,13.69,0,0,1,6.48,16.93c-1.17,3.12-2.65,6.53-4.4,10.14a5.28,5.28,0,0,0,2.45,7.05,5.35,5.35,0,0,0,2.29.52,5.25,5.25,0,0,0,4.75-3c1.89-3.9,3.5-7.61,4.78-11a24.26,24.26,0,0,0,1.52-9.59A40.86,40.86,0,0,0,351.24,149ZM164.31,19.42A30.16,30.16,0,0,1,199.83,14,113.51,113.51,0,0,0,158,53.1,30.2,30.2,0,0,1,164.31,19.42ZM29.12,330.88A63.14,63.14,0,0,1,12.94,269c8,5.17,24,12.36,56.65,21.45,3.88,13.91,7.81,26.11,11.57,35.88s7.11,16.42,9.92,20.76A63.16,63.16,0,0,1,29.12,330.88Zm161.59-38.49c-11.12,16-28.69,32.05-47,42.93-17.14,10.19-32.33,14.31-39.64,10.74a3.93,3.93,0,0,1-.53-.32,5,5,0,0,0-.62-.5c-4.32-4-13-20.13-23.92-60.26,0-.16-.08-.32-.13-.47q-1.87-6.86-3.82-14.65a5.27,5.27,0,1,0-10.23,2.56c.51,2.07,1,4.1,1.56,6.12-40-11.6-49.63-19.23-51.85-21.78l-.11-.12a3.86,3.86,0,0,1-.5-.73c-5.62-11.5,8.28-43.58,34.05-69.83,2.52,18.61,6.39,40.25,11.18,62.12a5.27,5.27,0,0,0,10.3-2.26c-7.45-34-12.63-67.35-13.87-89.2A46.74,46.74,0,0,1,68.82,121.4c19.51-19.9,52.32-42.06,74.69-50.46a13.69,13.69,0,0,1,16.93,6.48c8.32,15.93,19.61,48.23,27.78,89.42a5.36,5.36,0,0,0,.28,1.39,547.11,547.11,0,0,1,10.22,97.68A45.11,45.11,0,0,1,190.71,292.39Zm104.51-95.76a24,24,0,0,0-7.76-6.41C265.3,178.65,235.22,169.16,198,162c-5.4-28-14.3-62.82-28.21-89.46a24,24,0,0,0-6.41-7.76A102,102,0,0,1,181.08,41C220,2.1,282.59,1.37,320.61,39.39a95.79,95.79,0,0,1,28.08,69.37,99.88,99.88,0,0,1-8.2,38.62,5.1,5.1,0,0,0-.39.9,102.76,102.76,0,0,1-44.88,48.35Zm45.36-.94A30.21,30.21,0,0,1,306.89,202,113.42,113.42,0,0,0,346,160.17,30.16,30.16,0,0,1,340.58,195.69Zm-82.9-84.06a8.73,8.73,0,0,1-9.31-9.31,5.27,5.27,0,1,0-10.52-.73,19.27,19.27,0,0,0,19.23,20.6c.44,0,.88,0,1.33,0a5.27,5.27,0,0,0-.73-10.52Z"/></svg>