<svg id="Layer_1" data-name="Layer 1" xmlns="http://www.w3.org/2000/svg" viewBox="0 0 360 360"><defs><style>.cls-1{fill:#f5b97d;}.cls-2{fill:#b88b5e;}.cls-3{fill:#0f2040;}</style></defs><title>Plastics</title><path class="cls-1" d="M290,171.54a29.77,29.77,0,0,1-16.32-21.11C265.34,109,243.21.05,243.21.05H116.12S94.06,109,85.69,150.43a29.77,29.77,0,0,1-16.32,21.11C32.84,188.81,21.55,242.34,43,274.8c13.24,20,47.14,31.48,69.85,19.71,0,0,.08,1,.34,2.79,11,76.57,122,76.57,133,0,.25-1.79.33-2.79.33-2.79,22.71,11.77,56.61.31,69.85-19.71C337.85,242.34,326.56,188.81,290,171.54Z"/><path class="cls-2" d="M316.39,274.8c-11.07,16.74-36.6,27.49-57.94,23.69,16.09-2.6,31.66-11.58,39.67-23.69,9.8-14.82,12.57-33.56,9.84-50.92-3.42-21.75-24.14-35-40.08-47.17a42.89,42.89,0,0,1-3.31-2.79c-6.82-6.37-7.4-14.92-9.13-23.49C247.08,109,225,.05,225,.05h18.26S265.34,109,273.71,150.43A29.74,29.74,0,0,0,290,171.54C326.56,188.81,337.86,242.33,316.39,274.8Z"/><path class="cls-3" d="M251.28,66a5.28,5.28,0,0,0,5.16,4.23,5.35,5.35,0,0,0,1.05-.11,5.26,5.26,0,0,0,4.12-6.21L249.56,4.15a5.27,5.27,0,0,0-10.33,2.09Z"/><path class="cls-3" d="M329.28,213.17c-5.91-21.16-19.4-38.07-37-46.39a24.62,24.62,0,0,1-13.41-17.39L266.41,87.65a5.27,5.27,0,0,0-10.33,2.09l12.46,61.73a35.17,35.17,0,0,0,19.23,24.83c14.84,7,26.27,21.49,31.36,39.71,5.55,19.84,2.88,40.73-7.14,55.88-5.72,8.66-16.38,16-28.5,19.64-11,3.3-22,3.24-30.87-.08a25.62,25.62,0,0,1,24.52-17.87h3.08a5.27,5.27,0,0,0,0-10.54c-12.62,0-24.64,4.17-32.41,14.84s-6.5,24-11.5,35.68c-9.6,22.48-32.5,35.9-56.61,35.9a65.93,65.93,0,0,1-24.58-4.73,58.64,58.64,0,0,1-27.32-22.29A62,62,0,0,1,119.88,304c-1.84-7.28-2-15-5.62-21.76a36.07,36.07,0,0,0-8-10.12C98.57,265.27,89,263,79.15,263a5.27,5.27,0,0,0,0,10.54h3.07a25.62,25.62,0,0,1,24.53,17.89c-8.86,3.3-19.85,3.36-30.84.06-12.12-3.64-22.77-11-28.5-19.64A59.8,59.8,0,0,1,38.72,250a5.27,5.27,0,1,0-10.35,2,70.28,70.28,0,0,0,10.25,25.69c7.15,10.8,19.63,19.52,34.26,23.91,12.46,3.74,25.11,3.82,35.77.34,3.35,17.51,12,32.16,25.16,42.55a75.72,75.72,0,0,0,91.78,0c13.17-10.39,21.81-25,25.17-42.55,10.65,3.47,23.31,3.4,35.77-.34,14.62-4.39,27.11-13.11,34.25-23.91C332.46,260,335.64,235.92,329.28,213.17Z"/><path class="cls-3" d="M32.17,232.19l.58,0A5.27,5.27,0,0,0,38,227.57c2.74-23.11,15.63-42.75,33.64-51.27a35.12,35.12,0,0,0,19.23-24.83L120.52,6.37a5.27,5.27,0,0,0-10.33-2.1L80.53,149.39a24.62,24.62,0,0,1-13.41,17.39,66.35,66.35,0,0,0-27.41,24.69,83.53,83.53,0,0,0-12.17,34.69A5.43,5.43,0,0,0,32.17,232.19Z"/><path class="cls-3" d="M179.67,175.35c-.76,0-1.53,0-2.29-.08a5.27,5.27,0,1,1,.72-10.51c.53,0,1.09,0,1.59.05a22.77,22.77,0,0,0,6.33-.88,5.27,5.27,0,0,1,2.9,10.13,33.33,33.33,0,0,1-9.22,1.29Zm-19-7.41a5.26,5.26,0,0,1-3.55-1.38,33.53,33.53,0,0,1-7.08-9.2,5.27,5.27,0,0,1,9.34-4.88,23.07,23.07,0,0,0,4.85,6.31,5.27,5.27,0,0,1-3.56,9.15Zm42-4.41a5.28,5.28,0,0,1-4.28-8.34,22.59,22.59,0,0,0,3.43-7.17A5.27,5.27,0,0,1,212,150.84a33.46,33.46,0,0,1-5,10.48A5.24,5.24,0,0,1,202.66,163.53Zm-51.17-21.79a5.27,5.27,0,0,1-5.27-5.27v-9.84a5.27,5.27,0,0,1,10.54,0v9.84A5.27,5.27,0,0,1,151.49,141.74Zm56.42-5.91a5.27,5.27,0,0,1-5.27-5.27v-9.84a5.27,5.27,0,0,1,10.54,0v9.84A5.27,5.27,0,0,1,207.91,135.83Zm-56.42-22.9a5.26,5.26,0,0,1-5.27-5.26V97.83a5.27,5.27,0,1,1,10.54,0v9.84A5.27,5.27,0,0,1,151.49,112.93ZM207.91,107a5.27,5.27,0,0,1-5.27-5.27V91.92a5.27,5.27,0,0,1,10.54,0v9.83A5.27,5.27,0,0,1,207.91,107ZM151.49,84.13a5.27,5.27,0,0,1-5.27-5.27V69a5.27,5.27,0,1,1,10.54,0v9.83A5.27,5.27,0,0,1,151.49,84.13Zm56.42-5.91A5.27,5.27,0,0,1,202.64,73V63.11a5.27,5.27,0,0,1,10.54,0V73A5.27,5.27,0,0,1,207.91,78.22ZM151.49,55.33a5.27,5.27,0,0,1-5.27-5.27V40.23a5.27,5.27,0,1,1,10.54,0v9.83A5.27,5.27,0,0,1,151.49,55.33Zm56.42-5.91a5.27,5.27,0,0,1-5.27-5.27V34.31a5.27,5.27,0,0,1,10.54,0v9.84A5.27,5.27,0,0,1,207.91,49.42ZM151.49,26.53a5.27,5.27,0,0,1-5.27-5.27V11.42a5.27,5.27,0,1,1,10.54,0v9.84A5.27,5.27,0,0,1,151.49,26.53Zm56.42-5.92a5.26,5.26,0,0,1-5.27-5.27V11a5.27,5.27,0,0,1,10.54,0v4.33A5.27,5.27,0,0,1,207.91,20.61Z"/></svg>