<svg id="Layer_1" data-name="Layer 1" xmlns="http://www.w3.org/2000/svg" viewBox="0 0 360 360"><defs><style>.cls-1{fill:#f5b97d;}.cls-2{fill:#ef7385;}.cls-3{fill:#b35664;}.cls-4{fill:#0f2040;}</style></defs><title>Thoracic</title><path class="cls-1" d="M248.1,126.63l-20.25,15.18c-6.25-8.26-27.06-29.76-47.85-29.76-24.85,0-47.63,29.47-47.85,29.76L111.9,126.63c1-1.41,23-30.23,53.34-38a2.8,2.8,0,0,0,2.1-2.72v-62h25.32v62a2.8,2.8,0,0,0,2.1,2.72c30.36,7.75,52.29,36.57,53.34,38Z"/><path class="cls-2" d="M48.18,336c11,0,93.74,6,93.74-94.49s9.44-169.82-25.33-169.82S5.27,185.36,5.27,270.7C5.27,321.82,35.93,336,48.18,336Z"/><path class="cls-3" d="M116.59,71.72A25.11,25.11,0,0,0,106,74.53c22.21,13.87,14.85,78.3,14.85,167,0,77.4-49.07,91.62-76.66,94.07a21.14,21.14,0,0,0,4,.42c11.06,0,93.74,6,93.74-94.49s9.44-169.82-25.33-169.82Z"/><path class="cls-2" d="M311.82,336c-11.05,0-93.74,6-93.74-94.49S208.64,71.72,243.41,71.72s111.32,113.64,111.32,199c0,51.12-30.66,65.33-42.91,65.33Z"/><path class="cls-3" d="M243.41,71.72a19.28,19.28,0,0,0-10.47,2.81c37.65,18,100.69,118.72,100.69,196.17,0,46.19-25,62.25-38.89,64.91a154.72,154.72,0,0,0,17.08.42c12.25,0,42.91-14.21,42.91-65.33,0-85.34-76.54-199-111.32-199Z"/><path class="cls-4" d="M347.22,201.91a346.34,346.34,0,0,0-30.59-65.42c-11.93-19.85-24.87-36.94-37.44-49.42-13.77-13.68-25.81-20.62-35.78-20.62-15.26,0-23.11,10.84-27.08,25.44A84,84,0,0,0,197.93,84V23.91a5.27,5.27,0,0,0-5.27-5.27H167.34a5.27,5.27,0,0,0-5.27,5.27V84a83.29,83.29,0,0,0-18.41,7.85c-4-14.61-11.82-25.44-27.07-25.44-15.52,0-33.33,16.94-45.54,31.16a5.27,5.27,0,0,0,8,6.87C93.83,87.27,107.86,77,116.59,77c12.09,0,16.1,11.84,18.34,24.14l0,.2c3.59,20,3,50.7,2.33,86.58-.3,16.18-.65,34.52-.65,53.62,0,30.29-7.77,53.29-23.1,68.34C93.9,329.17,67,330.83,54.13,330.83c-2.58,0-4.72-.07-6-.07C44,330.76,34.62,328.27,26,319c-12.77-13.82-15.45-33.87-15.45-48.26,0-52.85,29.62-113.21,55-148.85a5.27,5.27,0,1,0-8.59-6.12C30.67,152.64,0,215.37,0,270.7c0,46.62,25.65,70.19,49.88,70.63a124.21,124.21,0,0,0,29.78-2.56c16.61-3.59,30.5-10.78,41.28-21.37,17.42-17.11,26.25-42.63,26.25-75.86,0-19,.33-36.49.65-53.42.4-21.09.75-39.62.35-55.49,5.66-5,13.67-11,22.32-13.72a5.28,5.28,0,0,0-3.22-10c-1,.34-2.1.72-3.15,1.13l-5.79-13.52a63.91,63.91,0,0,1,8.2-2.71,8.08,8.08,0,0,0,6.07-7.83V76.47h14.76v9.46a8.08,8.08,0,0,0,6.07,7.83,63.91,63.91,0,0,1,8.2,2.71L195.84,110c-1-.39-2-.76-3-1.08a5.27,5.27,0,1,0-3.29,10c8.65,2.83,16.61,8.68,22.24,13.62-.41,15.87-.06,34.42.34,55.52.32,16.93.65,34.43.65,53.42,0,33.23,8.84,58.75,26.26,75.86,10.78,10.59,24.66,17.78,41.27,21.37,13.35,2.89,22.76,2.54,31.49,2.54,7.71,0,20.46-4.31,31-16.44a5.27,5.27,0,1,0-8-6.92c-7.66,8.8-17.33,12.81-23.07,12.81-1.26,0-3.31.07-5.95.07-12.88,0-39.78-1.66-59.42-20.95-15.33-15.05-23.1-38.05-23.1-68.34,0-19.09-.35-37.43-.65-53.62C222,152,221.45,121.29,225,101.35l0-.21C227.35,88.66,231.46,77,243.41,77c6.79,0,17.12,6.4,28.35,17.55,11.79,11.71,24.51,28.54,35.83,47.38,26.21,43.62,41.86,91.76,41.86,128.77,0,11-1.5,20.94-4.47,29.43a5.28,5.28,0,1,0,10,3.48C358.3,294,360,282.93,360,270.7c0-20.75-4.3-43.9-12.78-68.79ZM154.68,114.69a82.58,82.58,0,0,0-7.05,4.77c-.39-6-.94-11.59-1.71-16.65,1-.6,2-1.18,2.93-1.74Zm32.7-85.51V39.91H172.62V29.18ZM172.62,65.92V50.45h14.76V65.92Zm32.67,48.83,5.86-13.68c1,.56,2,1.14,2.93,1.74q-1.16,7.6-1.71,16.68a83,83,0,0,0-7.08-4.74Z"/><path class="cls-4" d="M61.92,146.56a5.26,5.26,0,0,0,4,6.27,72.57,72.57,0,0,0,25.1,1,119.22,119.22,0,0,0-14.2,32.6c-13.43,5.82-27,17.27-36.85,31.12a5.27,5.27,0,0,0,8.61,6.09,86.58,86.58,0,0,1,25.17-23.78c-2.64,14.4-3.83,31.33-3,51.44A5.28,5.28,0,0,0,76,256.37h.21a5.28,5.28,0,0,0,5.06-5.48c-.77-19.35-.32-39,4.48-57.91a4.66,4.66,0,0,0,.25-.5C89,200,93.53,207.05,100,212a5.27,5.27,0,1,0,6.43-8.35c-9.1-7-13.44-20.38-13.76-30.36a111.24,111.24,0,0,1,30.62-39.65,5.27,5.27,0,1,0-6.77-8.09,136.11,136.11,0,0,0-15.77,15.32,62.49,62.49,0,0,1-32.53,1.65,5.28,5.28,0,0,0-6.27,4Z"/><path class="cls-4" d="M311.38,223.64a5.27,5.27,0,0,0,8.61-6.09c-9.8-13.85-23.42-25.3-36.85-31.12a119.55,119.55,0,0,0-14.2-32.6,72.51,72.51,0,0,0,25.1-1,5.27,5.27,0,0,0-2.23-10.31,62.49,62.49,0,0,1-32.53-1.65,136.11,136.11,0,0,0-15.77-15.32,5.27,5.27,0,1,0-6.77,8.09c11.63,9.73,22.73,21.48,30.63,39.37-.25,10-4.58,23.56-13.77,30.64A5.27,5.27,0,1,0,260,212c6.43-4.94,11-12,13.92-19.5,3.83,15.43,5.71,34.43,4.75,58.38a5.28,5.28,0,0,0,5.06,5.48H284a5.27,5.27,0,0,0,5.27-5.06c.8-20.11-.39-37-3-51.44a86.58,86.58,0,0,1,25.17,23.78Z"/></svg>