<svg id="Layer_1" data-name="Layer 1" xmlns="http://www.w3.org/2000/svg" viewBox="0 0 360 360"><defs><style>.cls-1{fill:#b35664;}.cls-2{fill:#ef7385;}.cls-3{fill:#f7c797;}.cls-4{fill:#f5b97d;}.cls-5{fill:#0f2040;}</style></defs><title>Thyroid</title><path class="cls-1" d="M330,210c0,36-18,48-18,66s-15.6,78-48,78a73.43,73.43,0,0,1-11.28-.9A138.85,138.85,0,0,1,222,344.58H138A121.72,121.72,0,0,1,96,354a24.63,24.63,0,0,1-6.72-.9C61.44,345.6,48,292.68,48,276c0-18-18-30-18-66,0-48,24-66,24-84,0-15.18,15.36-26.1,32.28-34.26H273.72C290.64,99.9,306,110.82,306,126,306,144,330,162,330,210Z"/><path class="cls-2" d="M312,210c0,36-18,48-18,66,0,16.68-13.44,69.6-41.28,77.1a24.63,24.63,0,0,1-6.72.9,121.72,121.72,0,0,1-42-9.42H120a138.85,138.85,0,0,1-30.72,8.52C61.44,345.6,48,292.68,48,276c0-18-18-30-18-66,0-48,24-66,24-84,0-15.18,15.36-26.1,32.28-34.26H255.72C272.64,99.9,288,110.82,288,126,288,144,312,162,312,210Z"/><path class="cls-3" d="M86.26,91.75l.09.09,2.89,2.78.6.59c.93.9,1.87,1.83,2.81,2.77l.25.25c15.51,15.55,33.4,37.8,41.15,81.32A92.05,92.05,0,0,1,180,168a92,92,0,0,1,45.94,11.55c7.76-43.52,25.65-65.77,41.16-81.32l.25-.25c.94-1,1.88-1.87,2.81-2.77l.6-.59,2.88-2.78.1-.09C285.19,80.79,294,72.59,294,60c0-36-35.6-54-66-54-38,0-17.6,48-48,48S170,6,132,6C101.6,6,66,24,66,60,66,72.59,74.81,80.78,86.26,91.75Z"/><path class="cls-3" d="M175.81,120c-32.84,0-50.95,14.64-57.31,21a169.6,169.6,0,0,1,11.37,38.51A92,92,0,0,1,175.81,168a92,92,0,0,1,45.95,11.55A169.09,169.09,0,0,1,233.13,141C226.77,134.64,208.66,120,175.81,120Z"/><path class="cls-3" d="M175.81,324a155,155,0,0,1-42-5.92v26.5a9.42,9.42,0,0,0,9.42,9.42h65.16a9.41,9.41,0,0,0,9.42-9.42v-26.5A154.93,154.93,0,0,1,175.81,324Z"/><path class="cls-3" d="M175.81,293.92a155,155,0,0,1-42-5.92v26.5a9.42,9.42,0,0,0,9.42,9.42h65.16a9.41,9.41,0,0,0,9.42-9.42V288A154.93,154.93,0,0,1,175.81,293.92Z"/><path class="cls-4" d="M222,278.52v60.06a9.39,9.39,0,0,1-9.42,9.42h-18a9.39,9.39,0,0,0,9.42-9.42V285.12A85.38,85.38,0,0,0,222,278.52Z"/><path class="cls-4" d="M294,60a27.36,27.36,0,0,1-5.82,16.5,123.28,123.28,0,0,1-14.46,15.24c0,.06-.06.06-.06.12-1,.9-1.92,1.8-2.88,2.76q-.31.28-.6.6c-1,.9-1.86,1.8-2.82,2.76-.12.06-.18.18-.24.24C251.58,113.76,233.7,136,226,179.58a86.94,86.94,0,0,0-17.7-7.56,140.11,140.11,0,0,1,40.86-79.8c.06-.06.12-.18.24-.24,1-1,1.86-1.86,2.82-2.76q.28-.31.6-.6c1-1,1.92-1.86,2.88-2.76,0-.06.06-.06.06-.12A123.28,123.28,0,0,0,270.18,70.5,27.3,27.3,0,0,0,276,54c0-22.38-13.8-37.8-31.5-46.26C269.94,13,294,30.42,294,60Z"/><path class="cls-5" d="M42,276c0,20.25,16.25,84,54,84a121,121,0,0,0,38.21-7.6,15.38,15.38,0,0,0,13.21,7.6h65.16a15.38,15.38,0,0,0,13.21-7.6A120.94,120.94,0,0,0,264,360c37.75,0,54-63.75,54-84a44.66,44.66,0,0,1,6.12-18.81A98.93,98.93,0,0,0,336,210a130.74,130.74,0,0,0-16.89-64.56A49,49,0,0,1,312,126c0-13.42-9.26-25.15-28.14-35.72C293,81.27,300,72.53,300,60c0-39-37.1-60-72-60-24.6,0-29.57,17.55-33.19,30.37S189,48,180,48s-11.18-4.83-14.81-17.63S156.6,0,132,0C97.1,0,60,21,60,60c0,12.53,7,21.27,16.14,30.28C57.26,100.85,48,112.58,48,126a49,49,0,0,1-7.11,19.44A130.74,130.74,0,0,0,24,210a98.93,98.93,0,0,0,11.88,47.19A44.66,44.66,0,0,1,42,276Zm118.37,22.2c.76.14,1.52.26,2.29.39,2,.32,4.08.58,6.22.8.8.08,1.6.18,2.42.25,2.8.21,5.68.36,8.7.36s5.9-.15,8.7-.36c.82-.07,1.62-.17,2.44-.25,2.12-.22,4.19-.48,6.18-.8.78-.13,1.56-.25,2.33-.4a97.62,97.62,0,0,0,16.08-4.4l.27-.09v19.68c-1.09.28-2.17.56-3.26.81-1.31.29-2.61.59-3.91.85-2,.41-4,.74-6,1.06-1.18.19-2.37.4-3.55.56-2.31.31-4.61.53-6.92.72-.89.08-1.77.19-2.66.25a142.43,142.43,0,0,1-19.38,0c-.89-.06-1.77-.17-2.66-.25-2.31-.19-4.61-.41-6.92-.72-1.18-.16-2.37-.37-3.55-.56-2-.32-4-.65-6-1.06-1.3-.26-2.6-.56-3.9-.85-1.09-.25-2.18-.53-3.27-.81V293.7l.22.07A97.25,97.25,0,0,0,160.37,298.2ZM216,344.58a3.42,3.42,0,0,1-3.42,3.42H147.42a3.43,3.43,0,0,1-3.42-3.43V325.82c.62.14,1.24.24,1.85.37,1.21.27,2.43.5,3.64.74,2.16.43,4.33.81,6.49,1.14q2,.31,3.93.57c2.09.27,4.19.48,6.29.67,1.32.12,2.64.26,4,.34,2.39.15,4.78.21,7.16.26.89,0,1.78.09,2.67.09s1.78-.08,2.66-.09c2.39,0,4.78-.11,7.17-.26,1.32-.08,2.64-.22,4-.34,2.1-.19,4.19-.4,6.29-.67,1.31-.17,2.62-.36,3.92-.57q3.26-.49,6.5-1.14c1.21-.24,2.42-.47,3.64-.74.61-.13,1.23-.23,1.85-.37v18.76ZM173,162.24c-1,.06-1.92.16-2.88.25l-.26,0c-.27,0-.55,0-.82,0l-.45.07-2,.23c-1.23.15-2.42.33-3.6.52-.75.12-1.5.24-2.23.38-1.39.25-2.75.52-4.07.82l-.91.22a94.88,94.88,0,0,0-17.3,5.82,172.75,172.75,0,0,0-8.54-28c1-.83,2.08-1.72,3.35-2.65.3-.22.68-.46,1-.68,1.07-.76,2.21-1.52,3.47-2.29.58-.35,1.25-.7,1.88-1.06,1.14-.64,2.32-1.29,3.61-1.91.77-.38,1.62-.75,2.45-1.12,1.3-.58,2.67-1.13,4.1-1.67,1-.35,1.92-.69,2.91-1,1.53-.5,3.16-1,4.83-1.38,1.06-.27,2.1-.55,3.21-.79,1.9-.4,3.94-.71,6-1,1-.15,2-.34,3.1-.45a92.94,92.94,0,0,1,20.42,0c1.08.11,2.06.3,3.1.45,2.06.29,4.11.6,6,1,1.11.24,2.15.52,3.21.79,1.66.43,3.3.88,4.83,1.38,1,.32,2,.66,2.9,1,1.44.54,2.81,1.09,4.11,1.67.83.37,1.67.74,2.45,1.12,1.28.62,2.47,1.27,3.61,1.91.63.36,1.29.71,1.88,1.06,1.26.77,2.39,1.53,3.46,2.29.32.22.71.46,1,.68,1.26.92,2.37,1.81,3.34,2.65a172.71,172.71,0,0,0-8.53,28,95.13,95.13,0,0,0-17.3-5.82l-.91-.22c-1.32-.3-2.69-.57-4.08-.82-.73-.14-1.47-.26-2.22-.38-1.18-.19-2.37-.37-3.6-.52l-2-.23c-.42-.05-.85-.07-1.27-.11l-.26,0c-1-.09-1.9-.19-2.88-.25-2.28-.15-4.61-.24-7-.24S175.25,162.09,173,162.24ZM132,12c14.8,0,17.74,7.82,21.64,21.64C156.8,44.76,161.11,60,180,60s23.2-15.24,26.36-26.36C210.26,19.82,213.2,12,228,12c29.09,0,60,16.82,60,48,0,9.79-7.07,16.56-17.77,26.81l-.63.6h0c-1.16,1.11-2.38,2.28-3.62,3.49h0c-3.08,3-6.36,6.29-9.72,10l0,0c-1.11,1.24-2.23,2.52-3.36,3.86l-.31.37-.11.13c-.58.7-1.17,1.39-1.75,2.11l-.75,1c-.93,1.18-1.86,2.38-2.78,3.63l-.13.18a133.26,133.26,0,0,0-11.79,19.1l-.44-.31c-1.08-.82-2.22-1.65-3.49-2.5-.14-.1-.3-.19-.44-.28-1.19-.79-2.49-1.58-3.85-2.36l-1.14-.66c-1.53-.85-3.15-1.69-4.88-2.51l-.93-.41c-1.58-.73-3.25-1.42-5-2.09l-1.23-.47c-2-.72-4.11-1.4-6.32-2-.47-.14-1-.26-1.44-.38-2.08-.55-4.23-1.05-6.49-1.47-.34-.07-.66-.15-1-.21-2.5-.45-5.13-.79-7.85-1.06l-1.91-.16c-2.84-.23-5.75-.39-8.83-.39s-6,.16-8.83.39l-1.91.16c-2.72.27-5.35.61-7.85,1.06-.35.06-.67.14-1,.21-2.25.42-4.41.92-6.48,1.47l-1.44.37c-2.21.63-4.32,1.3-6.33,2l-1.22.47c-1.75.67-3.41,1.36-5,2.09l-.93.41c-1.73.82-3.35,1.66-4.88,2.51l-1.15.66c-1.36.78-2.66,1.57-3.85,2.36l-.42.27c-1.28.85-2.42,1.69-3.51,2.51l-.44.32a133.85,133.85,0,0,0-8.46-14.39l-.17-.25q-1.33-2-2.69-3.82c-.34-.46-.67-.92-1-1.37-.54-.73-1.08-1.43-1.63-2.13s-1.25-1.61-1.88-2.38l-.05-.06A179,179,0,0,0,94,90.92h0c-1.24-1.21-2.46-2.38-3.62-3.49l-.64-.61C79.07,76.56,72,69.79,72,60,72,28.82,102.91,12,132,12ZM51.6,150.86A57.07,57.07,0,0,0,60,126c0-9.37,8.24-18.23,25.15-27l.51.49h0l3,2.95c1,1,2.06,2.09,3.12,3.21.34.35.68.73,1,1.09.76.81,1.53,1.64,2.31,2.51l1.08,1.22c.87,1,1.76,2,2.65,3.12l.66.79a125.49,125.49,0,0,1,17.68,29l0,0v0c1.14,2.61,2.2,5.28,3.2,8,.3.81.58,1.66.86,2.5q.87,2.47,1.65,5c.45,1.45.88,2.91,1.3,4.43.21.75.41,1.53.61,2.29A37.1,37.1,0,0,0,108,162a6,6,0,0,0,0,12,22.81,22.81,0,0,1,15.53,5.16,56.81,56.81,0,0,0-8,6.8,6,6,0,0,0,8.88,8.08,56.49,56.49,0,0,1,12.49-9.23l.06,0h0a79.72,79.72,0,0,1,17.16-7.19l.18-.05c1.64-.48,3.36-.91,5.15-1.31l.59-.14c.32-.06.68-.11,1-.18,1.36-.28,2.75-.53,4.18-.76l1-.17c.61-.09,1.27-.13,1.89-.21,1.12-.14,2.24-.27,3.4-.37l1.36-.14c2.26-.16,4.6-.25,7-.25s4.78.09,7.05.25l1,.1c1.29.11,2.52.26,3.76.41.67.08,1.38.13,2,.22l.26.05c1.67.25,3.26.55,4.82.87.37.08.78.13,1.15.21A81.78,81.78,0,0,1,223,184.77h0a4.21,4.21,0,0,0,.39.17,55.24,55.24,0,0,1,12.17,9.1,6,6,0,1,0,8.87-8.09,56.74,56.74,0,0,0-8-6.79A22.77,22.77,0,0,1,252,174a6,6,0,0,0,0-12,37.1,37.1,0,0,0-16.82,3.72c.2-.76.39-1.54.61-2.29.41-1.52.85-3,1.3-4.43q.78-2.55,1.65-5c.28-.84.56-1.69.86-2.5,1-2.65,2-5.24,3.11-7.79l.18-.4a125.18,125.18,0,0,1,6.65-13.06c.11-.17.21-.34.31-.52,1.08-1.81,2.16-3.55,3.27-5.21.1-.16.2-.32.31-.48,2.31-3.47,4.67-6.61,7-9.5.36-.45.73-.88,1.1-1.32.75-.91,1.5-1.79,2.25-2.65l1.34-1.51c.71-.79,1.41-1.55,2.1-2.29l1.21-1.29c1.07-1.12,2.13-2.21,3.15-3.23l2.76-2.72h0l.51-.49c16.91,8.76,25.15,17.62,25.15,27a57.07,57.07,0,0,0,8.4,24.86A118.61,118.61,0,0,1,324,210a87.27,87.27,0,0,1-10.7,42,54.72,54.72,0,0,0-7.3,24c0,17.36-15.36,72-42,72a110.84,110.84,0,0,1-36-7.54V293.37A34.34,34.34,0,0,0,252,302a6,6,0,0,0,0-12,22.08,22.08,0,0,1-16.74-6.29,59.1,59.1,0,0,0,9.18-7.67,6,6,0,0,0-8.88-8.07,60.64,60.64,0,0,1-16.18,11.19l-.06,0a80.28,80.28,0,0,1-8.86,3.75l-.37.14a86.48,86.48,0,0,1-8.66,2.49c-.46.11-.91.22-1.39.32a87.26,87.26,0,0,1-8.68,1.43l-1.92.19c-3.1.3-6.23.5-9.44.5s-6.44-.2-9.59-.5l-1.6-.16a90.88,90.88,0,0,1-9.15-1.51l-.62-.14a82.66,82.66,0,0,1-18.37-6.51,3.82,3.82,0,0,0-.36-.13A59.55,59.55,0,0,1,124.44,268a6,6,0,0,0-8.88,8.07,59.1,59.1,0,0,0,9.18,7.67A22.08,22.08,0,0,1,108,290a6,6,0,0,0,0,12,34.36,34.36,0,0,0,24-8.63v47.09A110.89,110.89,0,0,1,96,348c-26.64,0-42-54.64-42-72a54.72,54.72,0,0,0-7.3-24A87.27,87.27,0,0,1,36,210,118.61,118.61,0,0,1,51.6,150.86Z"/></svg>