<svg id="Layer_1" data-name="Layer 1" xmlns="http://www.w3.org/2000/svg" viewBox="0 0 360 360"><defs><style>.cls-1{fill:#f5b97d;}.cls-2{fill:#b88b5e;}.cls-3{fill:#f7c797;}.cls-4{fill:#ef7385;}.cls-5{fill:#f9d5b1;}.cls-6{fill:#0f2040;}</style></defs><title>Transplant</title><path class="cls-1" d="M17.42,249.68v58.06a46.44,46.44,0,0,0,46.45,46.45H296.13a46.44,46.44,0,0,0,46.45-46.45V249.68Z"/><path class="cls-2" d="M126.75,214.84h.06a57.44,57.44,0,0,0-4.87,23.22,58,58,0,0,0,1.16,11.62H17.42A11.65,11.65,0,0,1,5.81,238.06V226.45a11.64,11.64,0,0,1,11.61-11.61Z"/><path class="cls-2" d="M354.19,226.45v11.61a11.65,11.65,0,0,1-11.61,11.62H236.9a58,58,0,0,0,1.16-11.62,57.44,57.44,0,0,0-4.87-23.22H342.58A11.64,11.64,0,0,1,354.19,226.45Z"/><path class="cls-3" d="M240.74,5.81a8.94,8.94,0,0,0-4.94,1.51,125.42,125.42,0,0,1-32.57,15.44L178,30.54A46.65,46.65,0,0,0,145.16,75v26.42A8.92,8.92,0,0,0,159,108.81a121.29,121.29,0,0,1,21-11.2,114,114,0,0,1,11.61-4.24l25.26-7.78a36.23,36.23,0,0,0,4.65-1.74,46.47,46.47,0,0,0,28.16-42.68V14.75a8.94,8.94,0,0,0-8.94-8.94Z"/><path class="cls-4" d="M354.19,92.9a34.84,34.84,0,0,1-69.67,0c0-23.22,34.83-69.67,34.83-69.67S354.19,69.68,354.19,92.9Z"/><path class="cls-5" d="M238.06,238.06a58.06,58.06,0,1,1-116.12,0,58.06,58.06,0,0,1,116.12,0Z"/><path class="cls-4" d="M214.84,232.26v11.61a5.83,5.83,0,0,1-5.81,5.81H191.61V267.1a5.82,5.82,0,0,1-5.8,5.8H174.19a5.82,5.82,0,0,1-5.8-5.8V249.68H151a5.83,5.83,0,0,1-5.81-5.81V232.26a5.82,5.82,0,0,1,5.81-5.81h17.42V209a5.82,5.82,0,0,1,5.8-5.8h11.62a5.82,5.82,0,0,1,5.8,5.8v17.42H209A5.82,5.82,0,0,1,214.84,232.26Z"/><path class="cls-4" d="M110.26,93a8.31,8.31,0,0,1,.06,1.22,36.36,36.36,0,0,1-5.46,19.1l-19.1,30.55-.23.4A14.5,14.5,0,0,1,73.34,151a14.16,14.16,0,0,1-6.86-1.74L21.89,124.9A31.55,31.55,0,0,1,10.1,113.57a30.94,30.94,0,0,1,9.47-41.45l5.22-3.55a17.14,17.14,0,0,1,3.49-5,17.87,17.87,0,0,1,12.89-5.46h33A36.07,36.07,0,0,1,99.75,68.63l.35.35a35.89,35.89,0,0,1,10.16,24Z"/><path class="cls-1" d="M108.87,49.41a12.85,12.85,0,0,1,1.45,6,13.67,13.67,0,0,1-7.49,12.2L100.1,69l-.35-.35A36.07,36.07,0,0,0,74.21,58.06H69.68l20-15A12.34,12.34,0,0,1,97,40.65a12.21,12.21,0,0,1,10.91,6.73Z"/><path class="cls-1" d="M69.68,29v29H46.45V29A11.65,11.65,0,0,1,58.06,17.42,11.71,11.71,0,0,1,69.68,29Z"/><path class="cls-1" d="M46.45,46.45V58.06H41.17a17.87,17.87,0,0,0-12.89,5.46L13.3,56A13.64,13.64,0,0,1,5.81,43.84a12.85,12.85,0,0,1,1.45-6l1-2a12.2,12.2,0,0,1,18.23-4.3Z"/><path class="cls-6" d="M162.58,255.48V267.1a11.63,11.63,0,0,0,11.61,11.61h11.62a11.63,11.63,0,0,0,11.61-11.61V255.48H209a11.62,11.62,0,0,0,11.62-11.61V232.26A11.62,11.62,0,0,0,209,220.65H197.42V209a11.63,11.63,0,0,0-11.61-11.61H174.19A11.63,11.63,0,0,0,162.58,209v11.62H151a11.62,11.62,0,0,0-11.62,11.61v11.61A11.62,11.62,0,0,0,151,255.48ZM151,232.26h23.22V209h11.62v23.23H209v11.62H185.81V267.1H174.19V243.87H151Z"/><path class="cls-6" d="M342.58,209H236.82a63.75,63.75,0,0,0-7.77-11.81l69.48-69.48A40.55,40.55,0,0,0,360,92.9c0-24.45-32.31-68.25-36-73.16l-4.65-6.19-4.64,6.19c-3.69,4.91-36,48.71-36,73.16a40.45,40.45,0,0,0,10.77,27.47L220.84,189a63.5,63.5,0,0,0-35-14.52v-73c2.48-.94,5-1.83,7.52-2.61l25.27-7.77a52,52,0,0,0,36.88-50V14.72A14.72,14.72,0,0,0,232.6,2.47a119.1,119.1,0,0,1-31.09,14.76L176.25,25a52,52,0,0,0-36.9,50v26.45a14.73,14.73,0,0,0,22.89,12.25,118.55,118.55,0,0,1,11.95-6.93v67.75a63.59,63.59,0,0,0-35,14.53l-46-46,16.63-26.61a41.84,41.84,0,0,0-.92-45.79,19.26,19.26,0,0,0,7.29-15.11,19.5,19.5,0,0,0-2-8.68l-1-2A17.92,17.92,0,0,0,97,34.84a18.11,18.11,0,0,0-10.8,3.6l-10.69,8V29a17.42,17.42,0,1,0-34.83,0v5.81L30,26.83a18.09,18.09,0,0,0-10.81-3.6,17.89,17.89,0,0,0-16.11,10l-1,2a19.5,19.5,0,0,0-2,8.68A19.31,19.31,0,0,0,10.72,61.21l8.42,4.21L16.33,67.3A36.67,36.67,0,0,0,19.11,130l44.57,24.31a20.1,20.1,0,0,0,22.31-2l45,44.95A63.75,63.75,0,0,0,123.18,209H17.42A17.45,17.45,0,0,0,0,226.45v11.61a17.41,17.41,0,0,0,11.61,16.36v53.32A52.32,52.32,0,0,0,63.87,360H296.13a52.32,52.32,0,0,0,52.26-52.26V254.42A17.41,17.41,0,0,0,360,238.06V226.45A17.45,17.45,0,0,0,342.58,209ZM204.92,28.33A130.6,130.6,0,0,0,239,12.13a3.16,3.16,0,0,1,1.73-.52,3.11,3.11,0,0,1,3.11,3.11V41.17a40.29,40.29,0,0,1-19.4,34.53,80.35,80.35,0,0,0-39.9-41.11ZM155.8,104a3.2,3.2,0,0,1-4.83-2.58V75a40.34,40.34,0,0,1,18.24-33.84l.3.08a68.86,68.86,0,0,1,44.36,39.23l-24,7.36A131,131,0,0,0,155.8,104ZM319.35,33.15c11,15.72,29,44.7,29,59.75a29,29,0,1,1-58.07,0C290.32,77.87,308.37,48.88,319.35,33.15ZM93.14,47.73A6.58,6.58,0,0,1,102.7,50l1,2a7.79,7.79,0,0,1,.83,3.48A7.7,7.7,0,0,1,101,61.93a41.79,41.79,0,0,0-15.84-8.18ZM58.06,23.23A5.81,5.81,0,0,1,63.87,29V52.26H52.26V29A5.81,5.81,0,0,1,58.06,23.23ZM11.61,43.86a8,8,0,0,1,.82-3.49l1-2A6.6,6.6,0,0,1,23,36.12L40.65,49.35v2.94a23.6,23.6,0,0,0-13.11,4.34L15.92,50.82A7.75,7.75,0,0,1,11.61,43.86ZM69.25,144.12,24.67,119.8A25,25,0,0,1,18,81.13,23.6,23.6,0,0,0,30.55,97.25l1.69.85,5.2-10.39-1.7-.85a12.14,12.14,0,0,1,5.43-23H74.22a30.22,30.22,0,0,1,29.94,26.79,33.57,33.57,0,0,1-21.88,8h-1v11.61h1a45.22,45.22,0,0,0,19.9-4.61,30.22,30.22,0,0,1-2.27,4.51L80.58,141.14a8.73,8.73,0,0,1-11.33,3ZM180,185.81a52.26,52.26,0,1,1-52.26,52.25A52.32,52.32,0,0,1,180,185.81ZM11.61,226.45a5.81,5.81,0,0,1,5.81-5.8H118.6a63.74,63.74,0,0,0-2.47,17.41c0,2,.12,3.89.3,5.81h-99a5.81,5.81,0,0,1-5.81-5.81ZM296.13,348.39H63.87a40.69,40.69,0,0,1-40.64-40.65V255.48H118.6a63.8,63.8,0,0,0,122.8,0h95.37v52.26A40.69,40.69,0,0,1,296.13,348.39Zm52.26-110.33a5.81,5.81,0,0,1-5.81,5.81h-99c.18-1.92.3-3.84.3-5.81a63.74,63.74,0,0,0-2.47-17.41H342.58a5.81,5.81,0,0,1,5.81,5.8Z"/><path class="cls-6" d="M336.77,92.9H325.16a5.82,5.82,0,0,1-5.81,5.81v11.61A17.43,17.43,0,0,0,336.77,92.9Z"/><path class="cls-6" d="M63.87,99.78a23.4,23.4,0,0,1,2.47-10.44l2.73-5.45-10.39-5.2L56,84.15a35,35,0,0,0-1.9,26.69l4.31,12.94,11-3.68-4.31-12.94A23.1,23.1,0,0,1,63.87,99.78Z"/></svg>