<svg id="Layer_1" data-name="Layer 1" xmlns="http://www.w3.org/2000/svg" viewBox="0 0 360 360"><defs><style>.cls-1{fill:#f9d5b1;}.cls-2{fill:#f7c797;}.cls-3{fill:#0f2040;}</style></defs><title>Trauma</title><g id="surface1"><path class="cls-1" d="M181.18,85.28c-4.66-16.19-2.33-33.16,4.23-48.68a22.67,22.67,0,0,0-1.15-19.9,22.46,22.46,0,0,0-37.51-2.46A5.73,5.73,0,0,1,140,16.18a22.46,22.46,0,0,0-30.45,22,22.64,22.64,0,0,0,9.62,17.46c13.81,9.66,24.82,22.78,29.49,39l22.65,78.6a1.93,1.93,0,0,0,3.77-.38l2.67-34.11a3.46,3.46,0,0,1,3.6-3.19l9.94.41a3.27,3.27,0,0,0,3.27-4.17Z"/><path class="cls-1" d="M245.45,318c-10.59-13.11-17.54-28.76-17.54-45.61v-124a1.43,1.43,0,0,0-2.77-.5l-13,34.57a3.47,3.47,0,0,1-4.34,2.07l-10.23-3.41a2.67,2.67,0,0,0-3.51,2.53v88.7c0,16.85-6.94,32.51-17.54,45.61a22.64,22.64,0,0,0-4.4,19.44,22.46,22.46,0,0,0,35.36,12.75,5.72,5.72,0,0,1,7,0,22.46,22.46,0,0,0,35.36-12.75A22.65,22.65,0,0,0,245.45,318Z"/><path class="cls-2" d="M205.37,309.63V183.75l-7.77-2.58a2.67,2.67,0,0,0-3.51,2.53v88.7c0,16.85-6.94,32.5-17.54,45.61a22.64,22.64,0,0,0-4.4,19.44,22.46,22.46,0,0,0,35.45,12.68,5.6,5.6,0,0,1,6.88.06,22.46,22.46,0,0,0,33-6.75h-8.3A33.81,33.81,0,0,1,205.37,309.63Z"/><path class="cls-2" d="M171.34,173.25a1.92,1.92,0,0,0,3.76-.38l2-24.85-25-86.7a33.81,33.81,0,0,0-39.42-23.74l-3,.64a22.63,22.63,0,0,0,9.61,17.46c13.81,9.65,24.82,22.78,29.49,39Z"/><path class="cls-3" d="M174.27,188.71l.54,0a5.26,5.26,0,0,0,4.72-4.83l3.37-42.94,12.73.52a5.27,5.27,0,0,0,5.28-6.73l-3.6-12.51a5.27,5.27,0,0,0-10.13,2.92l1.57,5.48-10.49-.43a5.27,5.27,0,0,0-5.48,4.86l-1.49,19L153.76,93.19C149.09,77,138.18,62.52,122.22,51.36a17.49,17.49,0,0,1-7.37-13.44A17.19,17.19,0,0,1,138.14,21.1,11,11,0,0,0,151,17.4a17.19,17.19,0,0,1,28.67,1.84,17.51,17.51,0,0,1,.91,15.31c-7.57,17.94-9.1,36-4.43,52.19l4.56,15.83a5.27,5.27,0,1,0,10.13-2.92l-4.56-15.83c-4-13.86-2.61-29.48,4-45.17a28,28,0,0,0-1.39-24.49,27.72,27.72,0,0,0-46.35-3.08.46.46,0,0,1-.61.17,27.74,27.74,0,0,0-37.6,27.27A28,28,0,0,0,116.18,60c14,9.76,23.45,22.25,27.44,36.11l25.59,88.79A5.28,5.28,0,0,0,174.27,188.71Z"/><path class="cls-3" d="M249.55,314.69c-10.71-13.24-16.37-27.86-16.37-42.29V140.54A5.27,5.27,0,0,0,223,138.69L207.85,179l-12.09-4a5.28,5.28,0,0,0-6.94,5v62a5.28,5.28,0,1,0,10.55,0V187.31l10,3.33a5.29,5.29,0,0,0,6.61-3.16l6.7-17.86V272.4c0,16.86,6.47,33.78,18.71,48.92a17.47,17.47,0,0,1,3.36,15,17.19,17.19,0,0,1-27,9.71,11,11,0,0,0-13.34,0,17.19,17.19,0,0,1-27-9.71,17.47,17.47,0,0,1,3.36-15c12.25-15.14,18.72-32.06,18.72-48.92v-7.86a5.28,5.28,0,0,0-10.55,0v7.86c0,14.42-5.66,29.05-16.37,42.29A28,28,0,0,0,167,338.62a27.74,27.74,0,0,0,43.69,15.79.45.45,0,0,1,.63,0A27.18,27.18,0,0,0,227.85,360a29.53,29.53,0,0,0,6.87-.83A27.62,27.62,0,0,0,255,338.62,28,28,0,0,0,249.55,314.69Z"/><path class="cls-3" d="M211.92,114.72a5.28,5.28,0,1,0,9.44-4.72l-5.64-11.27a5.27,5.27,0,1,0-9.43,4.72Z"/><path class="cls-3" d="M239.18,123.27a5.25,5.25,0,0,0,3.73-1.54l5.64-5.64a5.28,5.28,0,0,0-7.46-7.46l-5.64,5.64a5.27,5.27,0,0,0,3.73,9Z"/><path class="cls-3" d="M175.28,211.91a5.28,5.28,0,0,0-7.46-7.46l-5.64,5.63a5.28,5.28,0,1,0,7.46,7.46Z"/></g></svg>