<svg id="Layer_1" data-name="Layer 1" xmlns="http://www.w3.org/2000/svg" viewBox="0 0 360 360"><defs><style>.cls-1{fill:#f5b97d;}.cls-2{fill:#b88b5e;}.cls-3{fill:#ef7385;}.cls-4{fill:#b35664;}.cls-5{fill:#0f2040;}</style></defs><title>Urology</title><g id="Filled_outline" data-name="Filled outline"><path class="cls-1" d="M144,6V90a13.45,13.45,0,0,1-18,12,73.15,73.15,0,0,0-30-6v24a64.81,64.81,0,0,1,48,24h0a71.86,71.86,0,0,1-48,18v24a73.15,73.15,0,0,0,30-6,13.48,13.48,0,0,1,18,12V354h24V6Z"/><path class="cls-2" d="M216,6V90a13.45,13.45,0,0,0,18,12,73.15,73.15,0,0,1,30-6v24a64.81,64.81,0,0,0-48,24h0a71.86,71.86,0,0,0,48,18v24a73.15,73.15,0,0,1-30-6,13.48,13.48,0,0,0-18,12V354H192V6Z"/><path class="cls-3" d="M95.44,204.14a47.79,47.79,0,0,0-6.7-57.2A48,48,0,0,0,72,54C6,54,6,159.39,6,180c0,18,12,114,66,114a48,48,0,0,0,23.44-89.86Z"/><path class="cls-4" d="M264.56,204.14a47.79,47.79,0,0,1,6.7-57.2A48,48,0,0,1,288,54c66,0,66,105.39,66,126,0,18-12,114-66,114a48,48,0,0,1-23.44-89.86Z"/><path class="cls-5" d="M72,300a54,54,0,0,0,31.28-98,54.24,54.24,0,0,0,3.52-10.67,77.37,77.37,0,0,0,21.64-5.84,6.5,6.5,0,0,1,6.14.87A7,7,0,0,1,138,192V354a6,6,0,0,0,6,6h24a6,6,0,0,0,6-6V6a6,6,0,0,0-6-6H144a6,6,0,0,0-6,6V90a7.06,7.06,0,0,1-3.44,5.63,6.55,6.55,0,0,1-6.14.89c-1-.45-1.9-.71-2.86-1.08A54,54,0,0,0,72,48C25.57,48,0,94.88,0,180,0,199.74,12.52,300,72,300Zm53.58-191.93a18.58,18.58,0,0,0,15.54-2.4A18.88,18.88,0,0,0,150,90V12h12V348H150V192a18.91,18.91,0,0,0-8.88-15.68,18.42,18.42,0,0,0-17.54-1.8A63.64,63.64,0,0,1,107.93,179a53.74,53.74,0,0,0-1.61-11.78,79.76,79.76,0,0,0,27.84-9,67.08,67.08,0,0,0,14.08-10,6,6,0,0,0,.56-7.84,75.07,75.07,0,0,0-26.09-20.28A53,53,0,0,0,125.58,108.07Zm9.76,35.29a66.12,66.12,0,0,1-33.23,12.24,54.92,54.92,0,0,0-3.84-6.48A54.12,54.12,0,0,0,117.39,131,65.2,65.2,0,0,1,135.34,143.36ZM72,60a42,42,0,0,1,14.78,81.26,42.59,42.59,0,0,1-35.12-2.5l-5.82,10.48a53.72,53.72,0,0,0,41,4.65,41.65,41.65,0,0,1,5.88,42.3,55.11,55.11,0,0,0-47.72,3l6,10.39a42.74,42.74,0,0,1,41.79-.07A42,42,0,0,1,72,288c-48.82,0-60-93.84-60-108C12,135.18,19.8,60,72,60Z"/><path class="cls-5" d="M56.11,89.62,54,84l-1.9-5.69c-2.21.73-21.76,8.64-28,58.95L36,138.74C41.25,96.35,56,89.68,56.11,89.62Z"/><path class="cls-5" d="M64.2,274.15A21.45,21.45,0,0,0,71,275.24a26.63,26.63,0,0,0,16.76-6.55l-7.5-9.38c-6.6,5.3-10.91,3.91-12.32,3.44-11.64-3.78-22.2-28-26.14-42.33l-11.58,3.16C31.42,228,42.65,267.14,64.2,274.15Z"/><rect class="cls-5" x="24" y="150" width="12" height="12"/><path class="cls-5" d="M288,48a54,54,0,0,0-53.56,47.44c-1,.36-1.86.63-2.85,1.06a6.52,6.52,0,0,1-6.15-.87A7.06,7.06,0,0,1,222,90V6a6,6,0,0,0-6-6H192a6,6,0,0,0-6,6V354a6,6,0,0,0,6,6h24a6,6,0,0,0,6-6V192a7.06,7.06,0,0,1,3.44-5.63,6.53,6.53,0,0,1,6.14-.88,77.39,77.39,0,0,0,21.64,5.85,54.84,54.84,0,0,0,3.5,10.67A54,54,0,0,0,288,300c59.48,0,72-100.26,72-120C360,94.88,334.43,48,288,48ZM252.07,179a63.43,63.43,0,0,1-15.66-4.53,18.51,18.51,0,0,0-17.53,1.8A18.89,18.89,0,0,0,210,192V348H198V12h12V90a18.91,18.91,0,0,0,8.88,15.68,18.63,18.63,0,0,0,15.53,2.4,53.72,53.72,0,0,0,2.88,12A75.11,75.11,0,0,0,211.2,140.4a6,6,0,0,0,.55,7.85,66.42,66.42,0,0,0,14.09,10,79.37,79.37,0,0,0,27.83,9A54.24,54.24,0,0,0,252.07,179ZM231.6,147.74a65.84,65.84,0,0,1-6.94-4.38A65.15,65.15,0,0,1,242.6,131a54.07,54.07,0,0,0,19.13,18.17,52.32,52.32,0,0,0-3.84,6.48A66.39,66.39,0,0,1,231.6,147.74ZM288,288a42,42,0,0,1-20.51-78.6h0a42.75,42.75,0,0,1,41.5.25l6-10.38a55.1,55.1,0,0,0-47.73-3.06,41.68,41.68,0,0,1,5.9-42.28,53.77,53.77,0,0,0,41-4.65l-5.82-10.49A42,42,0,1,1,288,60c52.2,0,60,75.18,60,120C348,194.16,336.82,288,288,288Z"/><path class="cls-5" d="M307.9,78.31l-4,11.31c.15.06,14.86,6.73,20.16,49.12l11.9-1.48C329.66,87,310.11,79,307.9,78.31Z"/><path class="cls-5" d="M292.07,262.75c-1.41.46-5.7,1.86-12.32-3.44l-7.5,9.38A26.63,26.63,0,0,0,289,275.24a21.45,21.45,0,0,0,6.79-1.09c21.55-7,32.78-46.13,34-50.57l-11.58-3.16C314.28,234.77,303.71,259,292.07,262.75Z"/><rect class="cls-5" x="324" y="198" width="12" height="12"/></g></svg>