<svg id="Layer_1" data-name="Layer 1" xmlns="http://www.w3.org/2000/svg" viewBox="0 0 360 360"><defs><style>.cls-1{fill:#ef7385;}.cls-2{fill:#b35664;}.cls-3{fill:#f28f9d;}.cls-4{fill:#0f2040;}</style></defs><title>Vascular</title><path class="cls-1" d="M240.24,15.29S128.4,76,5.27,235V354.73H138S223.71,243.65,309.66,175Z"/><path class="cls-2" d="M116.87,354.73H138S223.71,243.65,309.66,175l-9-20.79c-92.79,72.47-183.75,200.56-183.75,200.56Z"/><ellipse class="cls-1" cx="276.37" cy="94.33" rx="78.36" ry="89.06"/><path class="cls-2" d="M276.37,5.27a69.41,69.41,0,0,0-10.55.81c38.29,5.85,67.81,43.13,67.81,88.25s-29.52,82.39-67.81,88.25a69.42,69.42,0,0,0,10.55.8c43.27,0,78.36-39.87,78.36-89S319.64,5.27,276.37,5.27Z"/><ellipse class="cls-3" cx="276.37" cy="94.33" rx="57.26" ry="67.96"/><ellipse class="cls-2" cx="266.29" cy="122.72" rx="18.28" ry="11.95"/><ellipse class="cls-2" cx="325.21" cy="86.54" rx="18.28" ry="11.95"/><ellipse class="cls-2" cx="270.77" cy="66.63" rx="18.28" ry="11.95"/><path class="cls-4" d="M163.26,77a5.27,5.27,0,0,0-6.74-8.11C101.87,114.35,49.58,169.16,1.1,231.78A5.3,5.3,0,0,0,0,235V354.73A5.27,5.27,0,0,0,5.27,360H89.51a5.28,5.28,0,1,0,0-10.55h-79V236.81C58.25,175.39,109.62,121.62,163.26,77Z"/><path class="cls-4" d="M360,94.33C360,42.32,322.48,0,276.37,0A75.66,75.66,0,0,0,238,10.52a3.49,3.49,0,0,0-.39.19c-1.57.86-26.21,14.55-63.95,44.26a5.27,5.27,0,1,0,6.52,8.29c9.34-7.36,17.85-13.7,25.37-19.09a102.81,102.81,0,0,0-12.83,50.16c0,52,37.51,94.33,83.63,94.33a73.46,73.46,0,0,0,9.43-.61C214,250.72,146.55,335.26,135.4,349.45H112.54a5.28,5.28,0,1,0,0,10.55H138a5.28,5.28,0,0,0,4.17-2.05c.85-1.11,86.17-111.15,170.57-178.67C340.67,164,360,131.66,360,94.33Zm-83.63,83.78c-40.3,0-73.09-37.58-73.09-83.78s32.79-83.78,73.09-83.78,73.08,37.58,73.08,83.78S316.67,178.11,276.37,178.11Z"/><path class="cls-4" d="M266.29,105.5c-13.21,0-23.56,7.56-23.56,17.22S253.08,140,266.29,140s23.55-7.57,23.55-17.23S279.5,105.5,266.29,105.5Zm0,23.9c-7.33,0-13-3.59-13-6.68s5.68-6.68,13-6.68,13,3.59,13,6.68S273.61,129.4,266.29,129.4Z"/><path class="cls-4" d="M348.77,86.54c0-6.9-5.29-12.73-13.12-15.5a77.34,77.34,0,0,0-11-23.21A5.28,5.28,0,0,0,316,53.9a65.26,65.26,0,0,1,8,15.44c-12.63.44-22.36,7.84-22.36,17.21,0,9.66,10.34,17.22,23.55,17.22.87,0,1.72,0,2.56-.1-3.58,28.79-24.35,53.35-51.4,53.35-28.67,0-52-28.12-52-62.69s23.32-62.69,52-62.69a45.1,45.1,0,0,1,25.12,7.84,5.27,5.27,0,0,0,5.86-8.76,55.55,55.55,0,0,0-31-9.63c-34.48,0-62.53,32.86-62.53,73.24s28,73.23,62.53,73.23c33.92,0,59.62-30.86,62.29-66.79,6.14-3.08,10.11-8.25,10.11-14.23Zm-36.57,0c0-3.08,5.69-6.67,13-6.67s13,3.59,13,6.67-5.68,6.68-13,6.68S312.2,89.63,312.2,86.54Z"/><path class="cls-4" d="M270.77,49.41c-13.21,0-23.55,7.56-23.55,17.22s10.34,17.23,23.55,17.23,23.56-7.57,23.56-17.23S284,49.41,270.77,49.41Zm0,23.9c-7.32,0-13-3.59-13-6.68s5.69-6.68,13-6.68,13,3.59,13,6.68S278.1,73.31,270.77,73.31Z"/></svg>